<svg width="284" height="164" viewBox="0 0 284 164" fill="none" xmlns="http://www.w3.org/2000/svg">
<path d="M273.631 1H10.3688C5.19454 1 1 5.21685 1 10.4186V153.581C1 158.783 5.19454 163 10.3688 163H273.631C278.805 163 283 158.783 283 153.581V10.4186C283 5.21685 278.805 1 273.631 1Z" fill="white"/>
<path d="M273.631 1.47095H10.3688C5.45332 1.47095 1.46851 5.47696 1.46851 10.4186V153.581C1.46851 158.523 5.45332 162.529 10.3688 162.529H273.631C278.547 162.529 282.532 158.523 282.532 153.581V10.4186C282.532 5.47696 278.547 1.47095 273.631 1.47095Z" stroke="#1B506F" stroke-opacity="0.15" stroke-linecap="round" stroke-dasharray="8 8"/>
<g opacity="0.2">
<path d="M155.568 84.2727H144.261V95.64C144.249 96.2349 144.005 96.8013 143.582 97.2177C143.16 97.6341 142.591 97.8674 142 97.8674C141.408 97.8674 140.839 97.6341 140.417 97.2177C139.994 96.8013 139.75 96.2349 139.738 95.64V84.2727H128.432C128.131 84.2789 127.832 84.2246 127.553 84.1131C127.273 84.0017 127.018 83.8352 126.803 83.6235C126.588 83.4118 126.418 83.1591 126.301 82.8803C126.185 82.6014 126.125 82.302 126.125 81.9995C126.125 81.697 126.185 81.3976 126.301 81.1187C126.418 80.8399 126.588 80.5872 126.803 80.3755C127.018 80.1638 127.273 79.9974 127.553 79.8859C127.832 79.7744 128.131 79.7202 128.432 79.7263H139.738V68.36C139.732 68.0576 139.786 67.757 139.897 67.4758C140.008 67.1946 140.174 66.9385 140.384 66.7224C140.595 66.5064 140.846 66.3347 141.123 66.2176C141.401 66.1004 141.699 66.04 142 66.04C142.3 66.04 142.598 66.1004 142.876 66.2176C143.153 66.3347 143.404 66.5064 143.615 66.7224C143.826 66.9385 143.991 67.1946 144.102 67.4758C144.213 67.757 144.267 68.0576 144.261 68.36V79.7263H155.568C156.16 79.7384 156.723 79.9833 157.137 80.4082C157.551 80.8332 157.783 81.4045 157.783 81.9995C157.783 82.5945 157.551 83.1658 157.137 83.5908C156.723 84.0158 156.16 84.2606 155.568 84.2727Z" fill="#1B506F"/>
</g>
</svg>
