<svg width="64" height="64" viewBox="0 0 64 64" fill="none" xmlns="http://www.w3.org/2000/svg">
<path opacity="0.1" d="M54 0H10C4.47715 0 0 4.47715 0 10V54C0 59.5228 4.47715 64 10 64H54C59.5228 64 64 59.5228 64 54V10C64 4.47715 59.5228 0 54 0Z" fill="#098AD3"/>
<path d="M47.066 39.393C46.4365 40.9015 45.6636 42.3461 44.758 43.707C43.258 45.991 41.139 48.842 38.523 48.86C36.194 48.881 35.593 47.341 32.43 47.368C29.267 47.395 28.612 48.89 26.28 48.868C23.661 48.844 21.658 46.276 20.157 43.996C15.958 37.593 15.514 30.1 18.109 26.113C18.8919 24.8114 19.982 23.7216 21.2837 22.939C22.5855 22.1564 24.0593 21.7049 25.576 21.624C28.355 21.624 30.101 23.15 32.397 23.15C34.626 23.15 35.983 21.621 39.197 21.621C40.5312 21.6824 41.8354 22.0375 43.0165 22.661C44.1977 23.2845 45.2266 24.161 46.03 25.228C44.723 25.9515 43.6506 27.0343 42.9395 28.3481C42.2284 29.6619 41.9084 31.1519 42.0174 32.6418C42.1264 34.1318 42.6597 35.5593 43.5544 36.7557C44.4491 37.9521 45.6677 38.8673 47.066 39.393ZM36.756 19.069C37.4143 18.2697 37.9067 17.3473 38.2045 16.3555C38.5022 15.3638 38.5993 14.3227 38.49 13.293C36.3732 13.5452 34.4305 14.59 33.053 16.217C32.3775 16.9785 31.8699 17.8737 31.5634 18.8445C31.2569 19.8152 31.1583 20.8396 31.274 21.851C32.338 21.8284 33.3832 21.5666 34.3322 21.085C35.2812 20.6034 36.1096 19.9144 36.756 19.069Z" fill="black"/>
</svg>
