<svg width="65" height="64" viewBox="0 0 65 64" fill="none" xmlns="http://www.w3.org/2000/svg">
<path opacity="0.1" d="M55 0H10C4.47715 0 0 4.47715 0 10V54C0 59.5228 4.47715 64 10 64H55C60.5228 64 65 59.5228 65 54V10C65 4.47715 60.5228 0 55 0Z" fill="#098AD3"/>
<path d="M48.561 28.839H47.261V28.772H32.735V35.228H41.857C41.1671 37.1876 39.8657 38.8737 38.1448 40.0376C36.4239 41.2015 34.3745 41.7816 32.2989 41.6924C30.2233 41.6032 28.2312 40.8493 26.6165 39.5421C25.0018 38.2348 23.8499 36.4433 23.3307 34.4317C22.8114 32.4201 22.9523 30.2948 23.7326 28.3694C24.5128 26.4439 25.8911 24.8201 27.6642 23.7375C29.4374 22.6548 31.5115 22.1705 33.5807 22.3561C35.65 22.5416 37.6048 23.3871 39.157 24.768L43.722 20.203C41.0072 17.6811 37.5066 16.1712 33.8091 15.9273C30.1117 15.6834 26.4431 16.7205 23.4206 18.8641C20.398 21.0076 18.206 24.1268 17.2134 27.6969C16.2207 31.2669 16.488 35.0699 17.9702 38.466C19.4524 41.8621 22.0591 44.6441 25.3517 46.3439C28.6443 48.0436 32.4219 48.5574 36.0489 47.7989C39.6759 47.0403 42.9309 45.0556 45.2664 42.1788C47.6018 39.3019 48.8751 35.7085 48.872 32.003C48.872 30.9407 48.7679 29.881 48.561 28.839Z" fill="#FFC107"/>
<path d="M18.455 24.487L23.755 28.376C24.3336 26.9368 25.2502 25.658 26.4273 24.6476C27.6043 23.6373 29.0073 22.9251 30.5176 22.5713C32.0279 22.2174 33.6013 22.2323 35.1046 22.6147C36.608 22.997 37.9972 23.7356 39.155 24.768L43.7199 20.203C41.9081 18.5086 39.7294 17.2555 37.3537 16.5414C34.9779 15.8273 32.4694 15.6716 30.0236 16.0863C27.5778 16.5011 25.2608 17.4751 23.2533 18.9324C21.2458 20.3897 19.6019 22.291 18.45 24.488L18.455 24.487Z" fill="#FF3D00"/>
<path d="M32.7341 48.14C36.7375 48.1405 40.5969 46.6463 43.5561 43.95L38.5561 39.723C37.3467 40.6397 35.9384 41.2585 34.4452 41.5293C32.952 41.8001 31.416 41.7153 29.9617 41.2817C28.5074 40.8481 27.1758 40.078 26.0747 39.0337C24.9736 37.9894 24.134 36.7003 23.6241 35.271L18.3701 39.326C19.7189 41.9767 21.7744 44.2029 24.3093 45.7584C26.8443 47.3139 29.76 48.1381 32.7341 48.14Z" fill="#4CAF50"/>
<path d="M48.5621 28.839H47.2621V28.772H32.7351V35.228H41.8571C41.2207 37.0184 40.0734 38.5829 38.5571 39.728L43.5571 43.955C45.2551 42.4662 46.61 40.6269 47.5283 38.5638C48.4466 36.5007 48.9064 34.263 48.8761 32.005C48.8752 30.9419 48.7701 29.8815 48.5621 28.839Z" fill="#1976D2"/>
</svg>
