<svg width="151" height="152" viewBox="0 0 151 152" fill="none" xmlns="http://www.w3.org/2000/svg">
<path d="M40.1361 66.7217C40.0615 66.3764 39.9308 66.1197 39.7441 65.9517C39.5575 65.7744 39.2915 65.6857 38.9461 65.6857C38.4141 65.6857 38.0315 65.9191 37.7981 66.3857C37.5648 66.8431 37.4435 67.5711 37.4341 68.5697C37.6395 68.2431 37.9335 67.9864 38.3161 67.7997C38.7081 67.6131 39.1375 67.5197 39.6041 67.5197C40.5188 67.5197 41.2515 67.8091 41.8021 68.3877C42.3621 68.9664 42.6421 69.7737 42.6421 70.8097C42.6421 71.4911 42.5021 72.0884 42.2221 72.6017C41.9515 73.1151 41.5501 73.5164 41.0181 73.8057C40.4955 74.0951 39.8748 74.2397 39.1561 74.2397C37.7188 74.2397 36.7201 73.7917 36.1601 72.8957C35.6001 71.9904 35.3201 70.6931 35.3201 69.0037C35.3201 67.2304 35.6141 65.9144 36.2021 65.0557C36.7995 64.1877 37.7515 63.7537 39.0581 63.7537C39.7581 63.7537 40.3461 63.8937 40.8221 64.1737C41.3075 64.4444 41.6715 64.8037 41.9141 65.2517C42.1661 65.6997 42.3155 66.1897 42.3621 66.7217H40.1361ZM39.0301 69.4097C38.6288 69.4097 38.2928 69.5311 38.0221 69.7737C37.7608 70.0071 37.6301 70.3431 37.6301 70.7817C37.6301 71.2297 37.7515 71.5797 37.9941 71.8317C38.2461 72.0837 38.6008 72.2097 39.0581 72.2097C39.4688 72.2097 39.7908 72.0884 40.0241 71.8457C40.2668 71.5937 40.3881 71.2531 40.3881 70.8237C40.3881 70.3851 40.2715 70.0397 40.0381 69.7877C39.8048 69.5357 39.4688 69.4097 39.0301 69.4097ZM43.9962 68.9337C43.9962 67.3284 44.3042 66.0637 44.9202 65.1397C45.5455 64.2157 46.5489 63.7537 47.9302 63.7537C49.3115 63.7537 50.3102 64.2157 50.9262 65.1397C51.5515 66.0637 51.8642 67.3284 51.8642 68.9337C51.8642 70.5577 51.5515 71.8317 50.9262 72.7557C50.3102 73.6797 49.3115 74.1417 47.9302 74.1417C46.5489 74.1417 45.5455 73.6797 44.9202 72.7557C44.3042 71.8317 43.9962 70.5577 43.9962 68.9337ZM49.5122 68.9337C49.5122 67.9911 49.4095 67.2677 49.2042 66.7637C48.9989 66.2504 48.5742 65.9937 47.9302 65.9937C47.2862 65.9937 46.8615 66.2504 46.6562 66.7637C46.4509 67.2677 46.3482 67.9911 46.3482 68.9337C46.3482 69.5684 46.3855 70.0957 46.4602 70.5157C46.5349 70.9264 46.6842 71.2624 46.9082 71.5237C47.1415 71.7757 47.4822 71.9017 47.9302 71.9017C48.3782 71.9017 48.7142 71.7757 48.9382 71.5237C49.1715 71.2624 49.3255 70.9264 49.4002 70.5157C49.4749 70.0957 49.5122 69.5684 49.5122 68.9337ZM55.943 71.9717L54.389 75.9897H52.863L53.675 71.9717H55.943ZM64.3446 66.0497H59.9766V67.9817C60.1632 67.7764 60.4246 67.6084 60.7606 67.4777C61.0966 67.3471 61.4606 67.2817 61.8526 67.2817C62.5526 67.2817 63.1312 67.4404 63.5886 67.7577C64.0552 68.0751 64.3959 68.4857 64.6106 68.9897C64.8252 69.4937 64.9326 70.0397 64.9326 70.6277C64.9326 71.7197 64.6246 72.5877 64.0086 73.2317C63.3926 73.8664 62.5246 74.1837 61.4046 74.1837C60.6579 74.1837 60.0092 74.0577 59.4586 73.8057C58.9079 73.5444 58.4832 73.1851 58.1846 72.7277C57.8859 72.2704 57.7226 71.7431 57.6946 71.1457H60.0326C60.0886 71.4351 60.2239 71.6777 60.4386 71.8737C60.6532 72.0604 60.9472 72.1537 61.3206 72.1537C61.7592 72.1537 62.0859 72.0137 62.3006 71.7337C62.5152 71.4537 62.6226 71.0804 62.6226 70.6137C62.6226 70.1564 62.5106 69.8064 62.2866 69.5637C62.0626 69.3211 61.7359 69.1997 61.3066 69.1997C60.9892 69.1997 60.7279 69.2791 60.5226 69.4377C60.3172 69.5871 60.1819 69.7877 60.1166 70.0397H57.8066V63.9497H64.3446V66.0497ZM66.254 68.9337C66.254 67.3284 66.562 66.0637 67.178 65.1397C67.8034 64.2157 68.8067 63.7537 70.188 63.7537C71.5694 63.7537 72.568 64.2157 73.184 65.1397C73.8094 66.0637 74.122 67.3284 74.122 68.9337C74.122 70.5577 73.8094 71.8317 73.184 72.7557C72.568 73.6797 71.5694 74.1417 70.188 74.1417C68.8067 74.1417 67.8034 73.6797 67.178 72.7557C66.562 71.8317 66.254 70.5577 66.254 68.9337ZM71.77 68.9337C71.77 67.9911 71.6674 67.2677 71.462 66.7637C71.2567 66.2504 70.832 65.9937 70.188 65.9937C69.544 65.9937 69.1194 66.2504 68.914 66.7637C68.7087 67.2677 68.606 67.9911 68.606 68.9337C68.606 69.5684 68.6434 70.0957 68.718 70.5157C68.7927 70.9264 68.942 71.2624 69.166 71.5237C69.3994 71.7757 69.74 71.9017 70.188 71.9017C70.636 71.9017 70.972 71.7757 71.196 71.5237C71.4294 71.2624 71.5834 70.9264 71.658 70.5157C71.7327 70.0957 71.77 69.5684 71.77 68.9337ZM75.3868 68.9337C75.3868 67.3284 75.6948 66.0637 76.3108 65.1397C76.9362 64.2157 77.9395 63.7537 79.3208 63.7537C80.7022 63.7537 81.7008 64.2157 82.3168 65.1397C82.9422 66.0637 83.2548 67.3284 83.2548 68.9337C83.2548 70.5577 82.9422 71.8317 82.3168 72.7557C81.7008 73.6797 80.7022 74.1417 79.3208 74.1417C77.9395 74.1417 76.9362 73.6797 76.3108 72.7557C75.6948 71.8317 75.3868 70.5577 75.3868 68.9337ZM80.9028 68.9337C80.9028 67.9911 80.8002 67.2677 80.5948 66.7637C80.3895 66.2504 79.9648 65.9937 79.3208 65.9937C78.6768 65.9937 78.2522 66.2504 78.0468 66.7637C77.8415 67.2677 77.7388 67.9911 77.7388 68.9337C77.7388 69.5684 77.7762 70.0957 77.8508 70.5157C77.9255 70.9264 78.0748 71.2624 78.2988 71.5237C78.5322 71.7757 78.8728 71.9017 79.3208 71.9017C79.7688 71.9017 80.1048 71.7757 80.3288 71.5237C80.5622 71.2624 80.7162 70.9264 80.7908 70.5157C80.8655 70.0957 80.9028 69.5684 80.9028 68.9337ZM90.1184 66.2737V68.2617H93.3244V70.1097H90.1184V72.2657H93.7444V74.1837H87.7244V64.3557H93.7444V66.2737H90.1184ZM101.823 67.4637C101.645 67.1371 101.389 66.8897 101.053 66.7217C100.726 66.5444 100.339 66.4557 99.8907 66.4557C99.116 66.4557 98.4953 66.7124 98.0287 67.2257C97.562 67.7297 97.3287 68.4064 97.3287 69.2557C97.3287 70.1611 97.5713 70.8704 98.0567 71.3837C98.5513 71.8877 99.228 72.1397 100.087 72.1397C100.675 72.1397 101.169 71.9904 101.571 71.6917C101.981 71.3931 102.28 70.9637 102.467 70.4037H99.4287V68.6397H104.637V70.8657C104.459 71.4631 104.156 72.0184 103.727 72.5317C103.307 73.0451 102.77 73.4604 102.117 73.7777C101.463 74.0951 100.726 74.2537 99.9047 74.2537C98.934 74.2537 98.066 74.0437 97.3007 73.6237C96.5447 73.1944 95.952 72.6017 95.5227 71.8457C95.1027 71.0897 94.8927 70.2264 94.8927 69.2557C94.8927 68.2851 95.1027 67.4217 95.5227 66.6657C95.952 65.9004 96.5447 65.3077 97.3007 64.8877C98.0567 64.4584 98.92 64.2437 99.8907 64.2437C101.067 64.2437 102.056 64.5284 102.859 65.0977C103.671 65.6671 104.207 66.4557 104.469 67.4637H101.823ZM113.453 67.5197C113.453 68.0891 113.322 68.6117 113.061 69.0877C112.799 69.5544 112.398 69.9324 111.857 70.2217C111.315 70.5111 110.643 70.6557 109.841 70.6557H108.357V74.1837H105.963V64.3557H109.841C110.625 64.3557 111.287 64.4911 111.829 64.7617C112.37 65.0324 112.776 65.4057 113.047 65.8817C113.317 66.3577 113.453 66.9037 113.453 67.5197ZM109.659 68.7517C110.116 68.7517 110.457 68.6444 110.681 68.4297C110.905 68.2151 111.017 67.9117 111.017 67.5197C111.017 67.1277 110.905 66.8244 110.681 66.6097C110.457 66.3951 110.116 66.2877 109.659 66.2877H108.357V68.7517H109.659Z" fill="#10284A"/>
<g opacity="0.15">
<path d="M75.632 151.043C65.558 151.043 55.786 149.071 46.5875 145.18C37.7031 141.422 29.7229 136.042 22.8686 129.188C16.0162 122.336 10.6357 114.356 6.87676 105.469C2.98598 96.269 1.01318 86.4964 1.01318 76.423C1.01318 66.3495 2.98598 56.5776 6.87678 47.3788C10.6356 38.4921 16.016 30.5119 22.8685 23.6601C29.722 16.8069 37.7022 11.4265 46.5875 7.66811C55.7871 3.77747 65.5591 1.80475 75.632 1.80475C85.7049 1.80475 95.4769 3.77747 104.677 7.66813C113.562 11.4266 121.542 16.807 128.395 23.66C135.248 30.5119 140.628 38.4921 144.387 47.3788C148.278 56.5776 150.251 66.3495 150.251 76.423C150.251 86.4964 148.278 96.269 144.387 105.469C140.628 114.356 135.248 122.336 128.395 129.188C121.541 136.041 113.561 141.422 104.677 145.18C95.4779 149.071 85.7059 151.043 75.632 151.043ZM75.632 10.4233C39.2385 10.4233 9.63028 40.0306 9.63028 76.423C9.63028 112.817 39.2385 142.425 75.632 142.425C112.025 142.425 141.634 112.817 141.634 76.423C141.634 40.0306 112.025 10.4233 75.632 10.4233Z" fill="#098AD3"/>
<path d="M75.632 150.293C85.605 150.293 95.2787 148.34 104.384 144.489C113.18 140.769 121.08 135.443 127.865 128.657C134.649 121.874 139.975 113.974 143.696 105.177C147.548 96.0698 149.501 86.3955 149.501 76.423C149.501 66.4504 147.548 56.7768 143.697 47.671C139.975 38.8736 134.649 30.9736 127.865 24.1904C121.08 17.406 113.18 12.0795 104.384 8.35891C95.2777 4.50755 85.6039 2.55475 75.632 2.55475C65.6601 2.55475 55.9863 4.50755 46.8796 8.35887C38.0838 12.0794 30.1837 17.4059 23.3989 24.1904C16.615 30.9737 11.2886 38.8736 7.56752 47.671C3.71604 56.7768 1.76318 66.4504 1.76318 76.423C1.76318 86.3955 3.71606 96.0698 7.5675 105.177C11.2887 113.974 16.6151 121.874 23.3989 128.657C30.1846 135.443 38.0846 140.769 46.8797 144.489C55.9852 148.34 65.6589 150.293 75.632 150.293ZM75.632 9.67327C112.439 9.67327 142.384 39.6171 142.384 76.423C142.384 113.23 112.439 143.175 75.632 143.175C38.825 143.175 8.88028 113.23 8.88028 76.423C8.88028 39.6171 38.825 9.67327 75.632 9.67327ZM75.632 151.793C65.4577 151.793 55.5872 149.801 46.2953 145.87C37.3206 142.075 29.2605 136.64 22.3382 129.718C15.4168 122.797 9.98232 114.736 6.18602 105.762C2.25594 96.4682 0.263184 86.5974 0.263184 76.423C0.263184 66.2481 2.25594 56.3783 6.18602 47.0866C9.98232 38.1114 15.4168 30.0505 22.3382 23.1297C29.2605 16.2078 37.3206 10.7735 46.2953 6.97737C55.588 3.04739 65.4582 1.05475 75.632 1.05475C85.8058 1.05475 95.676 3.04739 104.969 6.97737C113.943 10.7735 122.004 16.2078 128.926 23.1297C135.847 30.0505 141.282 38.1114 145.078 47.0866C149.008 56.3783 151.001 66.2481 151.001 76.423C151.001 86.5974 149.008 96.4682 145.078 105.762C141.282 114.736 135.847 122.797 128.926 129.718C122.004 136.64 113.943 142.075 104.969 145.87C95.6767 149.801 85.8063 151.793 75.632 151.793ZM75.632 11.1733C39.652 11.1733 10.3803 40.4446 10.3803 76.423C10.3803 112.404 39.652 141.675 75.632 141.675C111.612 141.675 140.884 112.404 140.884 76.423C140.884 40.4446 111.612 11.1733 75.632 11.1733Z" fill="#098AD3"/>
</g>
<path d="M51.7132 92.1948V90.2868H55.0372V99.0468H52.9012V92.1948H51.7132ZM56.2249 92.1948V90.2868H59.5489V99.0468H57.4129V92.1948H56.2249ZM63.3646 97.1508L62.0326 100.595H60.7246L61.4206 97.1508H63.3646ZM70.5659 92.0748H66.8219V93.7308C66.9819 93.5548 67.2059 93.4108 67.4939 93.2988C67.7819 93.1868 68.0939 93.1308 68.4299 93.1308C69.0299 93.1308 69.5259 93.2668 69.9179 93.5388C70.3179 93.8108 70.6099 94.1628 70.7939 94.5948C70.9779 95.0268 71.0699 95.4948 71.0699 95.9988C71.0699 96.9348 70.8059 97.6788 70.2779 98.2308C69.7499 98.7748 69.0059 99.0468 68.0459 99.0468C67.4059 99.0468 66.8499 98.9388 66.3779 98.7228C65.9059 98.4988 65.5419 98.1908 65.2859 97.7988C65.0299 97.4068 64.8899 96.9548 64.8659 96.4428H66.8699C66.9179 96.6908 67.0339 96.8988 67.2179 97.0668C67.4019 97.2268 67.6539 97.3068 67.9739 97.3068C68.3499 97.3068 68.6299 97.1868 68.8139 96.9468C68.9979 96.7068 69.0899 96.3868 69.0899 95.9868C69.0899 95.5948 68.9939 95.2948 68.8019 95.0868C68.6099 94.8788 68.3299 94.7748 67.9619 94.7748C67.6899 94.7748 67.4659 94.8428 67.2899 94.9788C67.1139 95.1068 66.9979 95.2788 66.9419 95.4948H64.9619V90.2748H70.5659V92.0748ZM72.2026 94.5468C72.2026 93.1708 72.4666 92.0868 72.9946 91.2948C73.5306 90.5028 74.3906 90.1068 75.5746 90.1068C76.7586 90.1068 77.6146 90.5028 78.1426 91.2948C78.6786 92.0868 78.9466 93.1708 78.9466 94.5468C78.9466 95.9388 78.6786 97.0308 78.1426 97.8228C77.6146 98.6148 76.7586 99.0108 75.5746 99.0108C74.3906 99.0108 73.5306 98.6148 72.9946 97.8228C72.4666 97.0308 72.2026 95.9388 72.2026 94.5468ZM76.9306 94.5468C76.9306 93.7388 76.8426 93.1188 76.6666 92.6868C76.4906 92.2468 76.1266 92.0268 75.5746 92.0268C75.0226 92.0268 74.6586 92.2468 74.4826 92.6868C74.3066 93.1188 74.2186 93.7388 74.2186 94.5468C74.2186 95.0908 74.2506 95.5428 74.3146 95.9028C74.3786 96.2548 74.5066 96.5428 74.6986 96.7668C74.8986 96.9828 75.1906 97.0908 75.5746 97.0908C75.9586 97.0908 76.2466 96.9828 76.4386 96.7668C76.6386 96.5428 76.7706 96.2548 76.8346 95.9028C76.8986 95.5428 76.9306 95.0908 76.9306 94.5468ZM80.0307 94.5468C80.0307 93.1708 80.2947 92.0868 80.8227 91.2948C81.3587 90.5028 82.2187 90.1068 83.4027 90.1068C84.5867 90.1068 85.4427 90.5028 85.9707 91.2948C86.5067 92.0868 86.7747 93.1708 86.7747 94.5468C86.7747 95.9388 86.5067 97.0308 85.9707 97.8228C85.4427 98.6148 84.5867 99.0108 83.4027 99.0108C82.2187 99.0108 81.3587 98.6148 80.8227 97.8228C80.2947 97.0308 80.0307 95.9388 80.0307 94.5468ZM84.7587 94.5468C84.7587 93.7388 84.6707 93.1188 84.4947 92.6868C84.3187 92.2468 83.9547 92.0268 83.4027 92.0268C82.8507 92.0268 82.4867 92.2468 82.3107 92.6868C82.1347 93.1188 82.0467 93.7388 82.0467 94.5468C82.0467 95.0908 82.0787 95.5428 82.1427 95.9028C82.2067 96.2548 82.3347 96.5428 82.5267 96.7668C82.7267 96.9828 83.0187 97.0908 83.4027 97.0908C83.7867 97.0908 84.0747 96.9828 84.2667 96.7668C84.4667 96.5428 84.5987 96.2548 84.6627 95.9028C84.7267 95.5428 84.7587 95.0908 84.7587 94.5468ZM92.6578 92.2668V93.9708H95.4058V95.5548H92.6578V97.4028H95.7658V99.0468H90.6058V90.6228H95.7658V92.2668H92.6578ZM102.69 93.2868C102.538 93.0068 102.318 92.7948 102.03 92.6508C101.75 92.4988 101.418 92.4228 101.034 92.4228C100.37 92.4228 99.838 92.6428 99.438 93.0828C99.038 93.5148 98.838 94.0948 98.838 94.8228C98.838 95.5988 99.046 96.2068 99.462 96.6468C99.886 97.0788 100.466 97.2948 101.202 97.2948C101.706 97.2948 102.13 97.1668 102.474 96.9108C102.826 96.6548 103.082 96.2868 103.242 95.8068H100.638V94.2948H105.102V96.2028C104.95 96.7148 104.69 97.1908 104.322 97.6308C103.962 98.0708 103.502 98.4268 102.942 98.6988C102.382 98.9708 101.75 99.1068 101.046 99.1068C100.214 99.1068 99.47 98.9268 98.814 98.5668C98.166 98.1988 97.658 97.6908 97.29 97.0428C96.93 96.3948 96.75 95.6548 96.75 94.8228C96.75 93.9908 96.93 93.2508 97.29 92.6028C97.658 91.9468 98.166 91.4388 98.814 91.0788C99.462 90.7108 100.202 90.5268 101.034 90.5268C102.042 90.5268 102.89 90.7708 103.578 91.2588C104.274 91.7468 104.734 92.4228 104.958 93.2868H102.69ZM112.659 93.3348C112.659 93.8228 112.547 94.2708 112.323 94.6788C112.099 95.0788 111.755 95.4028 111.291 95.6508C110.827 95.8988 110.251 96.0228 109.563 96.0228H108.291V99.0468H106.239V90.6228H109.563C110.235 90.6228 110.803 90.7388 111.267 90.9708C111.731 91.2028 112.079 91.5228 112.311 91.9308C112.543 92.3388 112.659 92.8068 112.659 93.3348ZM109.407 94.3908C109.799 94.3908 110.091 94.2988 110.283 94.1148C110.475 93.9308 110.571 93.6708 110.571 93.3348C110.571 92.9988 110.475 92.7388 110.283 92.5548C110.091 92.3708 109.799 92.2788 109.407 92.2788H108.291V94.3908H109.407Z" fill="#00BF54"/>
<path d="M34.4371 94.6007L37.9181 91.1187C38.0426 90.9934 38.1906 90.894 38.3537 90.8261C38.5167 90.7583 38.6915 90.7234 38.8681 90.7234C39.0447 90.7234 39.2196 90.7583 39.3826 90.8261C39.5457 90.894 39.6937 90.9934 39.8181 91.1187L43.2991 94.5997C43.4873 94.7884 43.6154 95.0285 43.6671 95.2899C43.7189 95.5513 43.692 95.8221 43.5899 96.0682C43.4878 96.3143 43.3151 96.5246 43.0936 96.6726C42.872 96.8206 42.6116 96.8997 42.3451 96.8997H35.3781C35.1122 96.8988 34.8524 96.819 34.6319 96.6704C34.4113 96.5217 34.2397 96.311 34.139 96.0649C34.0382 95.8187 34.0128 95.5482 34.0659 95.2875C34.1189 95.0269 34.2481 94.7879 34.4371 94.6007Z" fill="#00BF54"/>
<path d="M98.3462 4.42476C103.333 5.99964 108.152 8.06299 112.733 10.5848C117.994 13.4861 122.884 17.0156 127.294 21.0958C134.796 27.9466 140.746 36.323 144.744 45.6628C148.901 55.3978 151.001 62.6788 151.001 74.6118V79.0218L141.532 79.3378L140.801 79.3628L140.777 78.6348C140.068 57.4988 133.032 40.6348 119.871 28.5168C112.602 21.9368 103.966 17.0472 94.5832 14.1988C88.8056 12.3067 82.7924 11.2296 76.7172 10.9988C76.4502 10.9988 76.2032 10.9988 75.9852 11.0128L75.2542 11.0468L74.7892 0.862762L75.5212 0.831764C75.9552 0.81076 76.4302 0.801765 76.9312 0.801765C84.2098 0.939713 91.4273 2.16076 98.3462 4.42476Z" fill="#00BF54"/>
</svg>
