<svg width="11" height="7" viewBox="0 0 11 7" fill="none" xmlns="http://www.w3.org/2000/svg">
<path d="M1.10292 4.08L4.58392 0.598001C4.70837 0.472706 4.85638 0.373268 5.01942 0.305411C5.18246 0.237555 5.35732 0.202621 5.53392 0.202621C5.71052 0.202621 5.88537 0.237555 6.04841 0.305411C6.21146 0.373268 6.35946 0.472706 6.48392 0.598001L9.96492 4.079C10.1531 4.26763 10.2811 4.5078 10.3329 4.76916C10.3846 5.03052 10.3578 5.30136 10.2557 5.54746C10.1536 5.79357 9.9809 6.0039 9.75935 6.1519C9.5378 6.2999 9.27735 6.37893 9.01092 6.379H2.04392C1.77794 6.37808 1.51821 6.29825 1.29762 6.14963C1.07704 6.00101 0.905506 5.79028 0.80475 5.54412C0.703995 5.29796 0.678545 5.02744 0.731622 4.76681C0.7847 4.50618 0.913919 4.26715 1.10292 4.08Z" fill="#00BF54"/>
</svg>
