<svg width="69" height="94" viewBox="0 0 69 94" fill="none" xmlns="http://www.w3.org/2000/svg">
<path d="M51.828 46.4852V1.05216C51.828 0.894416 51.7924 0.738699 51.7241 0.596537C51.6557 0.454376 51.5562 0.32941 51.433 0.230889C51.3098 0.132369 51.166 0.0628154 51.0123 0.0273776C50.8586 -0.0080602 50.6989 -0.00847521 50.545 0.0261633L34.709 3.57016C34.4752 3.62255 34.2662 3.75321 34.1167 3.94051C33.9673 4.12781 33.8862 4.36053 33.887 4.60016V46.4852H17.944V9.54916C17.9439 9.39152 17.9084 9.23591 17.8401 9.09384C17.7718 8.95177 17.6724 8.82687 17.5493 8.72836C17.4263 8.62986 17.2826 8.56028 17.129 8.52476C16.9754 8.48924 16.8158 8.4887 16.662 8.52316L0.822003 12.0672C0.588668 12.1194 0.380103 12.2497 0.230682 12.4363C0.0812614 12.623 -0.000102283 12.855 9.65004e-08 13.0942V42.0812C9.65004e-08 43.2481 0.463571 44.3673 1.28873 45.1924C2.11389 46.0176 3.23305 46.4812 4.4 46.4812H16.945V92.1632C16.9451 92.3204 16.9804 92.4755 17.0484 92.6173C17.1163 92.759 17.2152 92.8838 17.3377 92.9823C17.4602 93.0808 17.6032 93.1506 17.7563 93.1866C17.9093 93.2226 18.0684 93.2238 18.222 93.1902L34.059 89.6462C34.2923 89.5939 34.5009 89.4637 34.6503 89.277C34.7997 89.0903 34.8811 88.8583 34.881 88.6192V46.4852H50.824V83.4202C50.8239 83.5779 50.8593 83.7336 50.9276 83.8758C50.9958 84.018 51.0952 84.143 51.2183 84.2416C51.3414 84.3403 51.4851 84.4099 51.6387 84.4455C51.7924 84.4811 51.9521 84.4816 52.106 84.4472L67.947 80.9002C68.1803 80.8479 68.3889 80.7177 68.5383 80.531C68.6877 80.3443 68.7691 80.1123 68.769 79.8732V50.8892C68.769 49.7222 68.3054 48.6031 67.4803 47.7779C66.6551 46.9527 65.536 46.4892 64.369 46.4892L51.828 46.4852Z" fill="url(#paint0_linear_106_4477)"/>
<defs>
<linearGradient id="paint0_linear_106_4477" x1="34.3845" y1="93.2145" x2="34.3845" y2="0.000488281" gradientUnits="userSpaceOnUse">
<stop offset="0.501" stop-color="#099A5D"/>
<stop offset="0.502" stop-color="#00BF54"/>
</linearGradient>
</defs>
</svg>
