<svg width="70" height="25" viewBox="0 0 70 25" fill="none" xmlns="http://www.w3.org/2000/svg">
<path opacity="0.1" d="M65 0H5C2.23858 0 0 2.23858 0 5V20C0 22.7614 2.23858 25 5 25H65C67.7614 25 70 22.7614 70 20V5C70 2.23858 67.7614 0 65 0Z" fill="#00BF54"/>
<path d="M8.14769 16.356C8.41969 16.14 8.54369 16.04 8.51969 16.056C9.30369 15.408 9.91969 14.876 10.3677 14.46C10.8237 14.044 11.2077 13.608 11.5197 13.152C11.8317 12.696 11.9877 12.252 11.9877 11.82C11.9877 11.492 11.9117 11.236 11.7597 11.052C11.6077 10.868 11.3797 10.776 11.0757 10.776C10.7717 10.776 10.5317 10.892 10.3557 11.124C10.1877 11.348 10.1037 11.668 10.1037 12.084H8.12369C8.13969 11.404 8.28369 10.836 8.55569 10.38C8.83569 9.924 9.19969 9.588 9.64769 9.372C10.1037 9.156 10.6077 9.048 11.1597 9.048C12.1117 9.048 12.8277 9.292 13.3077 9.78C13.7957 10.268 14.0397 10.904 14.0397 11.688C14.0397 12.544 13.7477 13.34 13.1637 14.076C12.5797 14.804 11.8357 15.516 10.9317 16.212H14.1717V17.88H8.14769V16.356ZM20.6672 10.776L17.6552 18H15.5552L18.6032 11.004H14.8712V9.252H20.6672V10.776ZM21.425 16.356C21.697 16.14 21.821 16.04 21.797 16.056C22.581 15.408 23.197 14.876 23.645 14.46C24.101 14.044 24.485 13.608 24.797 13.152C25.109 12.696 25.265 12.252 25.265 11.82C25.265 11.492 25.189 11.236 25.037 11.052C24.885 10.868 24.657 10.776 24.353 10.776C24.049 10.776 23.809 10.892 23.633 11.124C23.465 11.348 23.381 11.668 23.381 12.084H21.401C21.417 11.404 21.561 10.836 21.833 10.38C22.113 9.924 22.477 9.588 22.925 9.372C23.381 9.156 23.885 9.048 24.437 9.048C25.389 9.048 26.105 9.292 26.585 9.78C27.073 10.268 27.317 10.904 27.317 11.688C27.317 12.544 27.025 13.34 26.441 14.076C25.857 14.804 25.113 15.516 24.209 16.212H27.449V17.88H21.425V16.356ZM29.5165 18.096C29.1565 18.096 28.8605 17.992 28.6285 17.784C28.4045 17.568 28.2925 17.304 28.2925 16.992C28.2925 16.672 28.4045 16.404 28.6285 16.188C28.8605 15.972 29.1565 15.864 29.5165 15.864C29.8685 15.864 30.1565 15.972 30.3805 16.188C30.6125 16.404 30.7285 16.672 30.7285 16.992C30.7285 17.304 30.6125 17.568 30.3805 17.784C30.1565 17.992 29.8685 18.096 29.5165 18.096ZM37.9072 11.028H34.1632V12.684C34.3232 12.508 34.5472 12.364 34.8352 12.252C35.1232 12.14 35.4352 12.084 35.7712 12.084C36.3712 12.084 36.8672 12.22 37.2592 12.492C37.6592 12.764 37.9512 13.116 38.1352 13.548C38.3192 13.98 38.4112 14.448 38.4112 14.952C38.4112 15.888 38.1472 16.632 37.6192 17.184C37.0912 17.728 36.3472 18 35.3872 18C34.7472 18 34.1912 17.892 33.7192 17.676C33.2472 17.452 32.8832 17.144 32.6272 16.752C32.3712 16.36 32.2312 15.908 32.2072 15.396H34.2112C34.2592 15.644 34.3752 15.852 34.5592 16.02C34.7432 16.18 34.9952 16.26 35.3152 16.26C35.6912 16.26 35.9712 16.14 36.1552 15.9C36.3392 15.66 36.4312 15.34 36.4312 14.94C36.4312 14.548 36.3352 14.248 36.1432 14.04C35.9512 13.832 35.6712 13.728 35.3032 13.728C35.0312 13.728 34.8072 13.796 34.6312 13.932C34.4552 14.06 34.3392 14.232 34.2832 14.448H32.3032V9.228H37.9072V11.028ZM44.3429 11.22V12.924H47.0909V14.508H44.3429V16.356H47.4509V18H42.2909V9.576H47.4509V11.22H44.3429ZM54.3751 12.24C54.2231 11.96 54.0031 11.748 53.7151 11.604C53.4351 11.452 53.1031 11.376 52.7191 11.376C52.0551 11.376 51.5231 11.596 51.1231 12.036C50.7231 12.468 50.5231 13.048 50.5231 13.776C50.5231 14.552 50.7311 15.16 51.1471 15.6C51.5711 16.032 52.1511 16.248 52.8871 16.248C53.3911 16.248 53.8151 16.12 54.1591 15.864C54.5111 15.608 54.7671 15.24 54.9271 14.76H52.3231V13.248H56.7871V15.156C56.6351 15.668 56.3751 16.144 56.0071 16.584C55.6471 17.024 55.1871 17.38 54.6271 17.652C54.0671 17.924 53.4351 18.06 52.7311 18.06C51.8991 18.06 51.1551 17.88 50.4991 17.52C49.8511 17.152 49.3431 16.644 48.9751 15.996C48.6151 15.348 48.4351 14.608 48.4351 13.776C48.4351 12.944 48.6151 12.204 48.9751 11.556C49.3431 10.9 49.8511 10.392 50.4991 10.032C51.1471 9.664 51.8871 9.48 52.7191 9.48C53.7271 9.48 54.5751 9.724 55.2631 10.212C55.9591 10.7 56.4191 11.376 56.6431 12.24H54.3751ZM64.3437 12.288C64.3437 12.776 64.2317 13.224 64.0077 13.632C63.7837 14.032 63.4397 14.356 62.9757 14.604C62.5117 14.852 61.9357 14.976 61.2477 14.976H59.9757V18H57.9237V9.576H61.2477C61.9197 9.576 62.4877 9.692 62.9517 9.924C63.4157 10.156 63.7637 10.476 63.9957 10.884C64.2277 11.292 64.3437 11.76 64.3437 12.288ZM61.0917 13.344C61.4837 13.344 61.7757 13.252 61.9677 13.068C62.1597 12.884 62.2557 12.624 62.2557 12.288C62.2557 11.952 62.1597 11.692 61.9677 11.508C61.7757 11.324 61.4837 11.232 61.0917 11.232H59.9757V13.344H61.0917Z" fill="#00BF54"/>
</svg>
