<svg width="351" height="64" viewBox="0 0 351 64" fill="none" xmlns="http://www.w3.org/2000/svg">
<path d="M64.9063 47.7273V55H64.0256V47.7273H64.9063ZM69.0663 55H66.822V47.7273H69.1658C69.8713 47.7273 70.4749 47.8729 70.9768 48.1641C71.4787 48.4529 71.8634 48.8684 72.131 49.4105C72.3985 49.9503 72.5322 50.5966 72.5322 51.3494C72.5322 52.107 72.3973 52.7592 72.1274 53.3061C71.8575 53.8506 71.4645 54.2696 70.9484 54.5632C70.4323 54.8544 69.805 55 69.0663 55ZM67.7027 54.2188H69.0095C69.6108 54.2188 70.1092 54.1027 70.5045 53.8707C70.8999 53.6387 71.1946 53.3085 71.3888 52.88C71.5829 52.4515 71.68 51.9413 71.68 51.3494C71.68 50.7623 71.5841 50.2569 71.3923 49.8331C71.2006 49.407 70.9141 49.0803 70.533 48.853C70.1518 48.6233 69.6771 48.5085 69.1089 48.5085H67.7027V54.2188ZM77.1219 55V47.7273H79.6645C80.1711 47.7273 80.589 47.8149 80.9181 47.9901C81.2471 48.1629 81.4922 48.3961 81.6531 48.6896C81.8141 48.9808 81.8946 49.304 81.8946 49.6591C81.8946 49.9716 81.839 50.2296 81.7277 50.4332C81.6188 50.6368 81.4744 50.7978 81.2945 50.9162C81.1169 51.0346 80.924 51.1222 80.7156 51.179V51.25C80.9382 51.2642 81.1619 51.3423 81.3868 51.4844C81.6117 51.6264 81.7999 51.83 81.9514 52.0952C82.103 52.3603 82.1787 52.6847 82.1787 53.0682C82.1787 53.4328 82.0959 53.7607 81.9301 54.0518C81.7644 54.343 81.5028 54.5739 81.1453 54.7443C80.7878 54.9148 80.3227 55 79.7497 55H77.1219ZM78.0026 54.2188H79.7497C80.325 54.2188 80.7334 54.1075 80.9749 53.8849C81.2187 53.66 81.3406 53.3878 81.3406 53.0682C81.3406 52.822 81.2779 52.5947 81.1524 52.3864C81.027 52.1757 80.8482 52.0076 80.6162 51.8821C80.3842 51.7543 80.1096 51.6903 79.7923 51.6903H78.0026V54.2188ZM78.0026 50.9233H79.6361C79.9012 50.9233 80.1404 50.8712 80.3534 50.767C80.5689 50.6629 80.7393 50.5161 80.8648 50.3267C80.9926 50.1373 81.0566 49.9148 81.0566 49.6591C81.0566 49.3395 80.9453 49.0684 80.7227 48.8459C80.5002 48.621 80.1475 48.5085 79.6645 48.5085H78.0026V50.9233ZM85.2672 55.1278C84.9216 55.1278 84.6079 55.0627 84.3262 54.9325C84.0444 54.8 83.8207 54.6094 83.655 54.3608C83.4893 54.1098 83.4064 53.8068 83.4064 53.4517C83.4064 53.1392 83.468 52.8859 83.5911 52.6918C83.7142 52.4953 83.8787 52.3414 84.0847 52.2301C84.2907 52.1188 84.5179 52.036 84.7665 51.9815C85.0175 51.9247 85.2696 51.8797 85.5229 51.8466C85.8543 51.804 86.123 51.772 86.329 51.7507C86.5373 51.727 86.6889 51.688 86.7836 51.6335C86.8806 51.5791 86.9291 51.4844 86.9291 51.3494V51.321C86.9291 50.9706 86.8333 50.6984 86.6415 50.5043C86.4521 50.3101 86.1645 50.2131 85.7786 50.2131C85.3785 50.2131 85.0648 50.3007 84.8375 50.4759C84.6103 50.651 84.4505 50.8381 84.3581 51.0369L83.5627 50.7528C83.7047 50.4214 83.8941 50.1634 84.1309 49.9787C84.37 49.7917 84.6304 49.6615 84.9121 49.5881C85.1962 49.5123 85.4756 49.4744 85.7502 49.4744C85.9254 49.4744 86.1266 49.4957 86.3539 49.5384C86.5835 49.5786 86.8049 49.6626 87.0179 49.7905C87.2334 49.9183 87.4121 50.1113 87.5541 50.3693C87.6962 50.6274 87.7672 50.973 87.7672 51.4062V55H86.9291V54.2614H86.8865C86.8297 54.3797 86.735 54.5064 86.6024 54.6413C86.4699 54.7763 86.2935 54.8911 86.0733 54.9858C85.8532 55.0805 85.5845 55.1278 85.2672 55.1278ZM85.3951 54.375C85.7265 54.375 86.0059 54.3099 86.2331 54.1797C86.4628 54.0495 86.6356 53.8814 86.7516 53.6754C86.87 53.4695 86.9291 53.2528 86.9291 53.0256V52.2585C86.8936 52.3011 86.8155 52.3402 86.6948 52.3757C86.5764 52.4089 86.4391 52.4384 86.2828 52.4645C86.129 52.4882 85.9786 52.5095 85.8318 52.5284C85.6874 52.545 85.5702 52.5592 85.4803 52.571C85.2625 52.5994 85.0589 52.6456 84.8695 52.7095C84.6825 52.7711 84.5309 52.8646 84.4149 52.9901C84.3013 53.1132 84.2445 53.2812 84.2445 53.4943C84.2445 53.7855 84.3522 54.0057 84.5676 54.1548C84.7854 54.3016 85.0613 54.375 85.3951 54.375ZM91.6627 55.1136C91.1514 55.1136 90.711 54.9929 90.3417 54.7514C89.9724 54.5099 89.6883 54.1773 89.4894 53.7536C89.2906 53.3298 89.1911 52.8456 89.1911 52.3011C89.1911 51.7472 89.2929 51.2583 89.4965 50.8345C89.7025 50.4084 89.9889 50.0758 90.3559 49.8366C90.7252 49.5952 91.1561 49.4744 91.6485 49.4744C92.032 49.4744 92.3777 49.5455 92.6854 49.6875C92.9932 49.8295 93.2453 50.0284 93.4418 50.2841C93.6383 50.5398 93.7603 50.8381 93.8076 51.179H92.9695C92.9056 50.9304 92.7636 50.7102 92.5434 50.5185C92.3256 50.3243 92.032 50.2273 91.6627 50.2273C91.336 50.2273 91.0496 50.3125 90.8033 50.483C90.5595 50.651 90.3689 50.889 90.2316 51.1967C90.0967 51.5021 90.0292 51.8608 90.0292 52.2727C90.0292 52.6941 90.0955 53.0611 90.2281 53.3736C90.363 53.6861 90.5524 53.9287 90.7962 54.1016C91.0425 54.2744 91.3313 54.3608 91.6627 54.3608C91.8805 54.3608 92.0782 54.3229 92.2558 54.2472C92.4333 54.1714 92.5836 54.0625 92.7068 53.9205C92.8299 53.7784 92.9175 53.608 92.9695 53.4091H93.8076C93.7603 53.7311 93.6431 54.0211 93.456 54.2791C93.2714 54.5348 93.0264 54.7384 92.721 54.8899C92.4179 55.0391 92.0652 55.1136 91.6627 55.1136ZM95.9639 53.0114L95.9497 51.9744H96.1202L98.5066 49.5455H99.5435L97.0009 52.1165H96.9298L95.9639 53.0114ZM95.1827 55V47.7273H96.0208V55H95.1827ZM98.6486 55L96.5179 52.3011L97.1145 51.7188L99.7139 55H98.6486Z" fill="#757575"/>
<rect x="63" y="2" width="32" height="32" rx="16" fill="white"/>
<rect x="63.4" y="2.4" width="31.2" height="31.2" rx="15.6" stroke="black" stroke-opacity="0.1" stroke-width="0.8"/>
<path d="M75.353 23.3999V22.3772L79.1939 18.1726C79.6446 17.6802 80.0159 17.2522 80.3075 16.8885C80.5992 16.5211 80.8151 16.1764 80.9553 15.8544C81.0992 15.5287 81.1712 15.1878 81.1712 14.8317C81.1712 14.4226 81.0727 14.0685 80.8757 13.7692C80.6825 13.47 80.4174 13.2389 80.0803 13.076C79.7431 12.9132 79.3643 12.8317 78.9439 12.8317C78.4969 12.8317 78.1068 12.9245 77.7734 13.1101C77.4439 13.2919 77.1882 13.5476 77.0064 13.8772C76.8284 14.2067 76.7393 14.5931 76.7393 15.0363H75.3984C75.3984 14.3544 75.5556 13.756 75.87 13.2408C76.1844 12.7257 76.6125 12.3241 77.1541 12.0363C77.6996 11.7484 78.3113 11.6044 78.9893 11.6044C79.6712 11.6044 80.2753 11.7484 80.8018 12.0363C81.3284 12.3241 81.7412 12.7124 82.0405 13.201C82.3397 13.6897 82.4893 14.2332 82.4893 14.8317C82.4893 15.2598 82.4117 15.6783 82.2564 16.0874C82.1049 16.4927 81.8397 16.9454 81.4609 17.4454C81.0859 17.9416 80.5651 18.5476 79.8984 19.2635L77.2848 22.059V22.1499H82.6939V23.3999H75.353Z" fill="#6D6D6D"/>
<rect x="4" width="32" height="32" rx="16" fill="white"/>
<rect x="4.4" y="0.4" width="31.2" height="31.2" rx="15.6" stroke="black" stroke-opacity="0.1" stroke-width="0.8"/>
<path d="M21.2955 10.3636V22H19.8864V11.8409H19.8182L16.9773 13.7273V12.2955L19.8864 10.3636H21.2955Z" fill="#6D6D6D"/>
<rect x="4.4" y="0.4" width="31.2" height="31.2" rx="15.6" fill="#00BF54"/>
<rect x="4.4" y="0.4" width="31.2" height="31.2" rx="15.6" stroke="#00BF54" stroke-width="0.8"/>
<path d="M21.5341 10.3636V22H19.7727V12.125H19.7045L16.9205 13.9432V12.2614L19.8239 10.3636H21.5341Z" fill="white"/>
<path d="M3.00611 47.7273V55H2.12542V47.7273H3.00611ZM7.16617 55H4.92185V47.7273H7.2656C7.97109 47.7273 8.57478 47.8729 9.07668 48.1641C9.57857 48.4529 9.96328 48.8684 10.2308 49.4105C10.4983 49.9503 10.6321 50.5966 10.6321 51.3494C10.6321 52.107 10.4971 52.7592 10.2272 53.3061C9.95736 53.8506 9.56437 54.2696 9.04827 54.5632C8.53217 54.8544 7.9048 55 7.16617 55ZM5.80253 54.2188H7.10935C7.71067 54.2188 8.20902 54.1027 8.60438 53.8707C8.99974 53.6387 9.29448 53.3085 9.48861 52.88C9.68274 52.4515 9.7798 51.9413 9.7798 51.3494C9.7798 50.7623 9.68392 50.2569 9.49216 49.8331C9.3004 49.407 9.01394 49.0803 8.63279 48.853C8.25163 48.6233 7.77696 48.5085 7.20878 48.5085H5.80253V54.2188ZM15.2217 55V47.7273H19.5825V48.5085H16.1024V50.9659H19.2558V51.7472H16.1024V55H15.2217ZM21.0686 55V49.5455H21.8782V50.3693H21.9351C22.0345 50.0994 22.2144 49.8804 22.4748 49.7124C22.7352 49.5443 23.0288 49.4602 23.3555 49.4602C23.4171 49.4602 23.494 49.4614 23.5863 49.4638C23.6787 49.4661 23.7485 49.4697 23.7959 49.4744V50.3267C23.7674 50.3196 23.7023 50.3089 23.6005 50.2947C23.5011 50.2782 23.3958 50.2699 23.2845 50.2699C23.0193 50.2699 22.7826 50.3255 22.5743 50.4368C22.3683 50.5457 22.2049 50.6972 22.0842 50.8913C21.9658 51.0831 21.9066 51.3021 21.9066 51.5483V55H21.0686ZM26.9891 55.1136C26.4967 55.1136 26.0646 54.9964 25.693 54.7621C25.3236 54.5277 25.0348 54.1998 24.8265 53.7784C24.6205 53.357 24.5175 52.8646 24.5175 52.3011C24.5175 51.733 24.6205 51.237 24.8265 50.8132C25.0348 50.3894 25.3236 50.0604 25.693 49.826C26.0646 49.5916 26.4967 49.4744 26.9891 49.4744C27.4815 49.4744 27.9124 49.5916 28.2817 49.826C28.6534 50.0604 28.9422 50.3894 29.1482 50.8132C29.3565 51.237 29.4607 51.733 29.4607 52.3011C29.4607 52.8646 29.3565 53.357 29.1482 53.7784C28.9422 54.1998 28.6534 54.5277 28.2817 54.7621C27.9124 54.9964 27.4815 55.1136 26.9891 55.1136ZM26.9891 54.3608C27.3632 54.3608 27.6709 54.2649 27.9124 54.0732C28.1539 53.8814 28.3326 53.6293 28.4486 53.3168C28.5646 53.0043 28.6226 52.6657 28.6226 52.3011C28.6226 51.9366 28.5646 51.5968 28.4486 51.282C28.3326 50.9671 28.1539 50.7126 27.9124 50.5185C27.6709 50.3243 27.3632 50.2273 26.9891 50.2273C26.6151 50.2273 26.3073 50.3243 26.0658 50.5185C25.8243 50.7126 25.6456 50.9671 25.5296 51.282C25.4136 51.5968 25.3556 51.9366 25.3556 52.3011C25.3556 52.6657 25.4136 53.0043 25.5296 53.3168C25.6456 53.6293 25.8243 53.8814 26.0658 54.0732C26.3073 54.2649 26.6151 54.3608 26.9891 54.3608ZM31.728 51.7188V55H30.8899V49.5455H31.6996V50.3977H31.7706C31.8985 50.1207 32.0926 49.8982 32.353 49.7301C32.6134 49.5597 32.9496 49.4744 33.3615 49.4744C33.7309 49.4744 34.054 49.5502 34.331 49.7017C34.608 49.8509 34.8234 50.0781 34.9773 50.3835C35.1312 50.6866 35.2081 51.0701 35.2081 51.5341V55H34.3701V51.5909C34.3701 51.1624 34.2588 50.8286 34.0362 50.5895C33.8137 50.348 33.5083 50.2273 33.1201 50.2273C32.8525 50.2273 32.6134 50.2853 32.4027 50.4013C32.1944 50.5173 32.0299 50.6866 31.9091 50.9091C31.7884 51.1316 31.728 51.4015 31.728 51.7188ZM39.2616 49.5455V50.2557H36.4349V49.5455H39.2616ZM37.2588 48.2386H38.0969V53.4375C38.0969 53.6742 38.1312 53.8518 38.1999 53.9702C38.2709 54.0862 38.3608 54.1643 38.4697 54.2045C38.581 54.2424 38.6982 54.2614 38.8213 54.2614C38.9136 54.2614 38.9894 54.2566 39.0486 54.2472C39.1078 54.2353 39.1551 54.2259 39.1906 54.2188L39.3611 54.9716C39.3043 54.9929 39.225 55.0142 39.1232 55.0355C39.0214 55.0592 38.8923 55.071 38.7361 55.071C38.4993 55.071 38.2673 55.0201 38.0401 54.9183C37.8152 54.8165 37.6281 54.6615 37.479 54.4531C37.3322 54.2448 37.2588 53.982 37.2588 53.6648V48.2386Z" fill="#00BF54"/>
<mask id="path-11-inside-1_3612_1538" fill="white">
<rect x="35.1436" y="15" width="29" height="5" rx="1"/>
</mask>
<rect x="35.1436" y="15" width="29" height="5" rx="1" stroke="#1F1F1F" stroke-opacity="0.1" stroke-width="4.8" mask="url(#path-11-inside-1_3612_1538)"/>
<path d="M130.201 55V47.7273H134.561V48.5085H131.081V50.9659H134.235V51.7472H131.081V55H130.201ZM137.711 55.1278C137.366 55.1278 137.052 55.0627 136.77 54.9325C136.488 54.8 136.265 54.6094 136.099 54.3608C135.933 54.1098 135.85 53.8068 135.85 53.4517C135.85 53.1392 135.912 52.8859 136.035 52.6918C136.158 52.4953 136.323 52.3414 136.529 52.2301C136.735 52.1188 136.962 52.036 137.211 51.9815C137.461 51.9247 137.714 51.8797 137.967 51.8466C138.298 51.804 138.567 51.772 138.773 51.7507C138.981 51.727 139.133 51.688 139.228 51.6335C139.325 51.5791 139.373 51.4844 139.373 51.3494V51.321C139.373 50.9706 139.277 50.6984 139.086 50.5043C138.896 50.3101 138.609 50.2131 138.223 50.2131C137.823 50.2131 137.509 50.3007 137.282 50.4759C137.054 50.651 136.894 50.8381 136.802 51.0369L136.007 50.7528C136.149 50.4214 136.338 50.1634 136.575 49.9787C136.814 49.7917 137.074 49.6615 137.356 49.5881C137.64 49.5123 137.92 49.4744 138.194 49.4744C138.369 49.4744 138.571 49.4957 138.798 49.5384C139.028 49.5786 139.249 49.6626 139.462 49.7905C139.677 49.9183 139.856 50.1113 139.998 50.3693C140.14 50.6274 140.211 50.973 140.211 51.4062V55H139.373V54.2614H139.331C139.274 54.3797 139.179 54.5064 139.046 54.6413C138.914 54.7763 138.738 54.8911 138.517 54.9858C138.297 55.0805 138.028 55.1278 137.711 55.1278ZM137.839 54.375C138.171 54.375 138.45 54.3099 138.677 54.1797C138.907 54.0495 139.08 53.8814 139.196 53.6754C139.314 53.4695 139.373 53.2528 139.373 53.0256V52.2585C139.338 52.3011 139.26 52.3402 139.139 52.3757C139.02 52.4089 138.883 52.4384 138.727 52.4645C138.573 52.4882 138.423 52.5095 138.276 52.5284C138.131 52.545 138.014 52.5592 137.924 52.571C137.707 52.5994 137.503 52.6456 137.314 52.7095C137.126 52.7711 136.975 52.8646 136.859 52.9901C136.745 53.1132 136.689 53.2812 136.689 53.4943C136.689 53.7855 136.796 54.0057 137.012 54.1548C137.229 54.3016 137.505 54.375 137.839 54.375ZM144.107 55.1136C143.595 55.1136 143.155 54.9929 142.786 54.7514C142.416 54.5099 142.132 54.1773 141.933 53.7536C141.735 53.3298 141.635 52.8456 141.635 52.3011C141.635 51.7472 141.737 51.2583 141.941 50.8345C142.147 50.4084 142.433 50.0758 142.8 49.8366C143.169 49.5952 143.6 49.4744 144.093 49.4744C144.476 49.4744 144.822 49.5455 145.129 49.6875C145.437 49.8295 145.689 50.0284 145.886 50.2841C146.082 50.5398 146.204 50.8381 146.252 51.179H145.414C145.35 50.9304 145.208 50.7102 144.987 50.5185C144.77 50.3243 144.476 50.2273 144.107 50.2273C143.78 50.2273 143.494 50.3125 143.247 50.483C143.004 50.651 142.813 50.889 142.676 51.1967C142.541 51.5021 142.473 51.8608 142.473 52.2727C142.473 52.6941 142.54 53.0611 142.672 53.3736C142.807 53.6861 142.996 53.9287 143.24 54.1016C143.486 54.2744 143.775 54.3608 144.107 54.3608C144.325 54.3608 144.522 54.3229 144.7 54.2472C144.877 54.1714 145.028 54.0625 145.151 53.9205C145.274 53.7784 145.361 53.608 145.414 53.4091H146.252C146.204 53.7311 146.087 54.0211 145.9 54.2791C145.715 54.5348 145.47 54.7384 145.165 54.8899C144.862 55.0391 144.509 55.1136 144.107 55.1136ZM149.914 55.1136C149.388 55.1136 148.935 54.9976 148.554 54.7656C148.175 54.5312 147.882 54.2045 147.676 53.7855C147.473 53.3641 147.371 52.8741 147.371 52.3153C147.371 51.7566 147.473 51.2642 147.676 50.8381C147.882 50.4096 148.169 50.0758 148.536 49.8366C148.905 49.5952 149.336 49.4744 149.828 49.4744C150.113 49.4744 150.393 49.5218 150.67 49.6165C150.947 49.7112 151.199 49.8651 151.426 50.0781C151.654 50.2888 151.835 50.5682 151.97 50.9162C152.105 51.2642 152.172 51.6927 152.172 52.2017V52.5568H147.968V51.8324H151.32C151.32 51.5246 151.258 51.25 151.135 51.0085C151.015 50.767 150.842 50.5765 150.617 50.4368C150.394 50.2971 150.131 50.2273 149.828 50.2273C149.495 50.2273 149.206 50.3101 148.962 50.4759C148.72 50.6392 148.535 50.8523 148.404 51.1151C148.274 51.3778 148.209 51.6596 148.209 51.9602V52.4432C148.209 52.8551 148.28 53.2043 148.422 53.4908C148.567 53.7749 148.767 53.9915 149.022 54.1406C149.278 54.2874 149.575 54.3608 149.914 54.3608C150.134 54.3608 150.333 54.33 150.51 54.2685C150.69 54.2045 150.845 54.1098 150.975 53.9844C151.106 53.8565 151.206 53.6979 151.277 53.5085L152.087 53.7358C152.002 54.0104 151.858 54.2519 151.657 54.4602C151.456 54.6662 151.207 54.8272 150.912 54.9432C150.616 55.0568 150.283 55.1136 149.914 55.1136Z" fill="black" fill-opacity="0.54"/>
<rect x="125" y="2" width="32" height="32" rx="16" fill="white"/>
<rect x="125.4" y="2.4" width="31.2" height="31.2" rx="15.6" stroke="black" stroke-opacity="0.1" stroke-width="0.8"/>
<path d="M141.036 23.5591C140.286 23.5591 139.618 23.4303 139.031 23.1728C138.447 22.9152 137.983 22.5572 137.639 22.0989C137.298 21.6368 137.112 21.1008 137.082 20.4909H138.514C138.544 20.8659 138.673 21.1898 138.9 21.4625C139.127 21.7315 139.425 21.9398 139.792 22.0875C140.159 22.2353 140.567 22.3091 141.014 22.3091C141.514 22.3091 141.957 22.222 142.343 22.0478C142.729 21.8735 143.032 21.6311 143.252 21.3205C143.472 21.0099 143.582 20.65 143.582 20.2409C143.582 19.8129 143.476 19.436 143.264 19.1103C143.051 18.7807 142.741 18.5231 142.332 18.3375C141.923 18.1519 141.423 18.0591 140.832 18.0591H139.9V16.8091H140.832C141.294 16.8091 141.699 16.7258 142.048 16.5591C142.4 16.3924 142.675 16.1576 142.871 15.8546C143.072 15.5515 143.173 15.1955 143.173 14.7864C143.173 14.3924 143.086 14.0496 142.911 13.758C142.737 13.4663 142.491 13.239 142.173 13.0762C141.858 12.9133 141.487 12.8318 141.059 12.8318C140.657 12.8318 140.279 12.9057 139.923 13.0534C139.57 13.1974 139.282 13.4076 139.059 13.6841C138.836 13.9568 138.714 14.2864 138.695 14.6728H137.332C137.354 14.0629 137.538 13.5288 137.883 13.0705C138.228 12.6084 138.678 12.2485 139.235 11.9909C139.796 11.7334 140.411 11.6046 141.082 11.6046C141.801 11.6046 142.419 11.7504 142.934 12.0421C143.449 12.3299 143.845 12.7106 144.121 13.1841C144.398 13.6576 144.536 14.169 144.536 14.7182C144.536 15.3735 144.364 15.9322 144.019 16.3943C143.678 16.8565 143.214 17.1765 142.627 17.3546V17.4455C143.362 17.5667 143.936 17.8792 144.349 18.383C144.762 18.883 144.968 19.5023 144.968 20.2409C144.968 20.8735 144.796 21.4417 144.451 21.9455C144.11 22.4455 143.644 22.8394 143.053 23.1273C142.462 23.4152 141.79 23.5591 141.036 23.5591Z" fill="#1F1F1F" fill-opacity="0.65"/>
<mask id="path-16-inside-2_3612_1538" fill="white">
<rect x="96" y="15" width="29" height="5" rx="1"/>
</mask>
<rect x="96" y="15" width="29" height="5" rx="1" stroke="#1F1F1F" stroke-opacity="0.1" stroke-width="4.8" mask="url(#path-16-inside-2_3612_1538)"/>
<path d="M250.219 49V41.7273H254.58V42.5085H251.1V44.9659H254.254V45.7472H251.1V49H250.219ZM257.73 49.1278C257.384 49.1278 257.071 49.0627 256.789 48.9325C256.507 48.8 256.284 48.6094 256.118 48.3608C255.952 48.1098 255.869 47.8068 255.869 47.4517C255.869 47.1392 255.931 46.8859 256.054 46.6918C256.177 46.4953 256.342 46.3414 256.548 46.2301C256.753 46.1188 256.981 46.036 257.229 45.9815C257.48 45.9247 257.732 45.8797 257.986 45.8466C258.317 45.804 258.586 45.772 258.792 45.7507C259 45.727 259.152 45.688 259.246 45.6335C259.343 45.5791 259.392 45.4844 259.392 45.3494V45.321C259.392 44.9706 259.296 44.6984 259.104 44.5043C258.915 44.3101 258.627 44.2131 258.241 44.2131C257.841 44.2131 257.528 44.3007 257.3 44.4759C257.073 44.651 256.913 44.8381 256.821 45.0369L256.025 44.7528C256.168 44.4214 256.357 44.1634 256.594 43.9787C256.833 43.7917 257.093 43.6615 257.375 43.5881C257.659 43.5123 257.938 43.4744 258.213 43.4744C258.388 43.4744 258.589 43.4957 258.817 43.5384C259.046 43.5786 259.268 43.6626 259.481 43.7905C259.696 43.9183 259.875 44.1113 260.017 44.3693C260.159 44.6274 260.23 44.973 260.23 45.4062V49H259.392V48.2614H259.349C259.293 48.3797 259.198 48.5064 259.065 48.6413C258.933 48.7763 258.756 48.8911 258.536 48.9858C258.316 49.0805 258.047 49.1278 257.73 49.1278ZM257.858 48.375C258.189 48.375 258.469 48.3099 258.696 48.1797C258.926 48.0495 259.098 47.8814 259.214 47.6754C259.333 47.4695 259.392 47.2528 259.392 47.0256V46.2585C259.356 46.3011 259.278 46.3402 259.158 46.3757C259.039 46.4089 258.902 46.4384 258.746 46.4645C258.592 46.4882 258.441 46.5095 258.295 46.5284C258.15 46.545 258.033 46.5592 257.943 46.571C257.725 46.5994 257.522 46.6456 257.332 46.7095C257.145 46.7711 256.994 46.8646 256.878 46.9901C256.764 47.1132 256.707 47.2812 256.707 47.4943C256.707 47.7855 256.815 48.0057 257.03 48.1548C257.248 48.3016 257.524 48.375 257.858 48.375ZM264.126 49.1136C263.614 49.1136 263.174 48.9929 262.805 48.7514C262.435 48.5099 262.151 48.1773 261.952 47.7536C261.753 47.3298 261.654 46.8456 261.654 46.3011C261.654 45.7472 261.756 45.2583 261.959 44.8345C262.165 44.4084 262.452 44.0758 262.819 43.8366C263.188 43.5952 263.619 43.4744 264.111 43.4744C264.495 43.4744 264.84 43.5455 265.148 43.6875C265.456 43.8295 265.708 44.0284 265.905 44.2841C266.101 44.5398 266.223 44.8381 266.27 45.179H265.432C265.368 44.9304 265.226 44.7102 265.006 44.5185C264.788 44.3243 264.495 44.2273 264.126 44.2273C263.799 44.2273 263.512 44.3125 263.266 44.483C263.022 44.651 262.832 44.889 262.694 45.1967C262.559 45.5021 262.492 45.8608 262.492 46.2727C262.492 46.6941 262.558 47.0611 262.691 47.3736C262.826 47.6861 263.015 47.9287 263.259 48.1016C263.505 48.2744 263.794 48.3608 264.126 48.3608C264.343 48.3608 264.541 48.3229 264.719 48.2472C264.896 48.1714 265.046 48.0625 265.17 47.9205C265.293 47.7784 265.38 47.608 265.432 47.4091H266.27C266.223 47.7311 266.106 48.0211 265.919 48.2791C265.734 48.5348 265.489 48.7384 265.184 48.8899C264.881 49.0391 264.528 49.1136 264.126 49.1136ZM269.932 49.1136C269.407 49.1136 268.954 48.9976 268.572 48.7656C268.194 48.5312 267.901 48.2045 267.695 47.7855C267.492 47.3641 267.39 46.8741 267.39 46.3153C267.39 45.7566 267.492 45.2642 267.695 44.8381C267.901 44.4096 268.188 44.0758 268.555 43.8366C268.924 43.5952 269.355 43.4744 269.847 43.4744C270.131 43.4744 270.412 43.5218 270.689 43.6165C270.966 43.7112 271.218 43.8651 271.445 44.0781C271.672 44.2888 271.854 44.5682 271.989 44.9162C272.123 45.2642 272.191 45.6927 272.191 46.2017V46.5568H267.986V45.8324H271.339C271.339 45.5246 271.277 45.25 271.154 45.0085C271.033 44.767 270.86 44.5765 270.636 44.4368C270.413 44.2971 270.15 44.2273 269.847 44.2273C269.513 44.2273 269.225 44.3101 268.981 44.4759C268.739 44.6392 268.553 44.8523 268.423 45.1151C268.293 45.3778 268.228 45.6596 268.228 45.9602V46.4432C268.228 46.8551 268.299 47.2043 268.441 47.4908C268.585 47.7749 268.785 47.9915 269.041 48.1406C269.297 48.2874 269.594 48.3608 269.932 48.3608C270.153 48.3608 270.351 48.33 270.529 48.2685C270.709 48.2045 270.864 48.1098 270.994 47.9844C271.124 47.8565 271.225 47.6979 271.296 47.5085L272.106 47.7358C272.021 48.0104 271.877 48.2519 271.676 48.4602C271.475 48.6662 271.226 48.8272 270.93 48.9432C270.634 49.0568 270.302 49.1136 269.932 49.1136ZM253.815 61V53.7273H254.696V60.2188H258.076V61H253.815ZM261.763 61.1136C261.238 61.1136 260.784 60.9976 260.403 60.7656C260.024 60.5312 259.732 60.2045 259.526 59.7855C259.322 59.3641 259.221 58.8741 259.221 58.3153C259.221 57.7566 259.322 57.2642 259.526 56.8381C259.732 56.4096 260.018 56.0758 260.385 55.8366C260.755 55.5952 261.186 55.4744 261.678 55.4744C261.962 55.4744 262.243 55.5218 262.52 55.6165C262.797 55.7112 263.049 55.8651 263.276 56.0781C263.503 56.2888 263.684 56.5682 263.819 56.9162C263.954 57.2642 264.022 57.6927 264.022 58.2017V58.5568H259.817V57.8324H263.169C263.169 57.5246 263.108 57.25 262.985 57.0085C262.864 56.767 262.691 56.5765 262.466 56.4368C262.244 56.2971 261.981 56.2273 261.678 56.2273C261.344 56.2273 261.055 56.3101 260.811 56.4759C260.57 56.6392 260.384 56.8523 260.254 57.1151C260.124 57.3778 260.059 57.6596 260.059 57.9602V58.4432C260.059 58.8551 260.13 59.2043 260.272 59.4908C260.416 59.7749 260.616 59.9915 260.872 60.1406C261.128 60.2874 261.425 60.3608 261.763 60.3608C261.983 60.3608 262.182 60.33 262.36 60.2685C262.54 60.2045 262.695 60.1098 262.825 59.9844C262.955 59.8565 263.056 59.6979 263.127 59.5085L263.936 59.7358C263.851 60.0104 263.708 60.2519 263.507 60.4602C263.306 60.6662 263.057 60.8272 262.761 60.9432C262.465 61.0568 262.133 61.1136 261.763 61.1136ZM267.875 55.5455V56.2557H264.935V55.5455H267.875ZM265.816 61V54.7926C265.816 54.4801 265.889 54.2197 266.036 54.0114C266.183 53.803 266.373 53.6468 266.608 53.5426C266.842 53.4384 267.09 53.3864 267.35 53.3864C267.556 53.3864 267.724 53.4029 267.854 53.4361C267.984 53.4692 268.081 53.5 268.145 53.5284L267.904 54.2528C267.861 54.2386 267.802 54.2209 267.726 54.1996C267.653 54.1783 267.556 54.1676 267.435 54.1676C267.158 54.1676 266.958 54.2375 266.835 54.3771C266.714 54.5168 266.654 54.7216 266.654 54.9915V61H265.816ZM271.572 55.5455V56.2557H268.745V55.5455H271.572ZM269.569 54.2386H270.407V59.4375C270.407 59.6742 270.442 59.8518 270.51 59.9702C270.581 60.0862 270.671 60.1643 270.78 60.2045C270.891 60.2424 271.009 60.2614 271.132 60.2614C271.224 60.2614 271.3 60.2566 271.359 60.2472C271.418 60.2353 271.466 60.2259 271.501 60.2188L271.672 60.9716C271.615 60.9929 271.535 61.0142 271.434 61.0355C271.332 61.0592 271.203 61.071 271.047 61.071C270.81 61.071 270.578 61.0201 270.351 60.9183C270.126 60.8165 269.939 60.6615 269.789 60.4531C269.643 60.2448 269.569 59.982 269.569 59.6648V54.2386Z" fill="#757575"/>
<rect x="246" y="2" width="32" height="32" rx="16" fill="white"/>
<rect x="246.4" y="2.4" width="31.2" height="31.2" rx="15.6" stroke="black" stroke-opacity="0.1" stroke-width="0.8"/>
<path d="M261.703 23.5591C261.037 23.5591 260.436 23.4265 259.902 23.1614C259.368 22.8962 258.94 22.5326 258.618 22.0705C258.296 21.6084 258.12 21.0818 258.09 20.4909H259.453C259.506 21.0174 259.745 21.4531 260.169 21.7978C260.597 22.1387 261.109 22.3091 261.703 22.3091C262.181 22.3091 262.605 22.1974 262.976 21.9739C263.351 21.7504 263.645 21.4436 263.857 21.0534C264.073 20.6595 264.181 20.2144 264.181 19.7182C264.181 19.2106 264.069 18.758 263.846 18.3603C263.626 17.9587 263.323 17.6424 262.936 17.4114C262.55 17.1803 262.109 17.0629 261.613 17.0591C261.256 17.0553 260.891 17.1103 260.516 17.2239C260.141 17.3337 259.832 17.4758 259.59 17.65L258.272 17.4909L258.976 11.7637H265.022V13.0137H260.158L259.749 16.4455H259.817C260.056 16.2561 260.355 16.0989 260.715 15.9739C261.075 15.8489 261.45 15.7864 261.84 15.7864C262.552 15.7864 263.186 15.9568 263.743 16.2978C264.304 16.6349 264.743 17.097 265.061 17.6841C265.383 18.2712 265.544 18.9417 265.544 19.6955C265.544 20.4379 265.378 21.1008 265.044 21.6841C264.715 22.2637 264.26 22.722 263.681 23.0591C263.101 23.3924 262.442 23.5591 261.703 23.5591Z" fill="#1F1F1F" fill-opacity="0.65"/>
<mask id="path-21-inside-3_3612_1538" fill="white">
<rect x="218" y="15" width="29" height="5" rx="1"/>
</mask>
<rect x="218" y="15" width="29" height="5" rx="1" stroke="#1F1F1F" stroke-opacity="0.1" stroke-width="4.8" mask="url(#path-21-inside-3_3612_1538)"/>
<mask id="path-22-inside-4_3612_1538" fill="white">
<rect x="278" y="15" width="29" height="5" rx="1"/>
</mask>
<rect x="278" y="15" width="29" height="5" rx="1" stroke="#1F1F1F" stroke-opacity="0.1" stroke-width="4.8" mask="url(#path-22-inside-4_3612_1538)"/>
<path d="M179.98 55V47.7273H184.341V48.5085H180.861V50.9659H184.014V51.7472H180.861V55H179.98ZM187.491 55.1278C187.145 55.1278 186.832 55.0627 186.55 54.9325C186.268 54.8 186.044 54.6094 185.879 54.3608C185.713 54.1098 185.63 53.8068 185.63 53.4517C185.63 53.1392 185.692 52.8859 185.815 52.6918C185.938 52.4953 186.102 52.3414 186.308 52.2301C186.514 52.1188 186.742 52.036 186.99 51.9815C187.241 51.9247 187.493 51.8797 187.747 51.8466C188.078 51.804 188.347 51.772 188.553 51.7507C188.761 51.727 188.913 51.688 189.007 51.6335C189.104 51.5791 189.153 51.4844 189.153 51.3494V51.321C189.153 50.9706 189.057 50.6984 188.865 50.5043C188.676 50.3101 188.388 50.2131 188.002 50.2131C187.602 50.2131 187.289 50.3007 187.061 50.4759C186.834 50.651 186.674 50.8381 186.582 51.0369L185.786 50.7528C185.928 50.4214 186.118 50.1634 186.355 49.9787C186.594 49.7917 186.854 49.6615 187.136 49.5881C187.42 49.5123 187.699 49.4744 187.974 49.4744C188.149 49.4744 188.35 49.4957 188.578 49.5384C188.807 49.5786 189.029 49.6626 189.242 49.7905C189.457 49.9183 189.636 50.1113 189.778 50.3693C189.92 50.6274 189.991 50.973 189.991 51.4062V55H189.153V54.2614H189.11C189.053 54.3797 188.959 54.5064 188.826 54.6413C188.694 54.7763 188.517 54.8911 188.297 54.9858C188.077 55.0805 187.808 55.1278 187.491 55.1278ZM187.619 54.375C187.95 54.375 188.23 54.3099 188.457 54.1797C188.686 54.0495 188.859 53.8814 188.975 53.6754C189.094 53.4695 189.153 53.2528 189.153 53.0256V52.2585C189.117 52.3011 189.039 52.3402 188.918 52.3757C188.8 52.4089 188.663 52.4384 188.507 52.4645C188.353 52.4882 188.202 52.5095 188.056 52.5284C187.911 52.545 187.794 52.5592 187.704 52.571C187.486 52.5994 187.283 52.6456 187.093 52.7095C186.906 52.7711 186.755 52.8646 186.639 52.9901C186.525 53.1132 186.468 53.2812 186.468 53.4943C186.468 53.7855 186.576 54.0057 186.791 54.1548C187.009 54.3016 187.285 54.375 187.619 54.375ZM193.886 55.1136C193.375 55.1136 192.935 54.9929 192.565 54.7514C192.196 54.5099 191.912 54.1773 191.713 53.7536C191.514 53.3298 191.415 52.8456 191.415 52.3011C191.415 51.7472 191.517 51.2583 191.72 50.8345C191.926 50.4084 192.213 50.0758 192.58 49.8366C192.949 49.5952 193.38 49.4744 193.872 49.4744C194.256 49.4744 194.601 49.5455 194.909 49.6875C195.217 49.8295 195.469 50.0284 195.666 50.2841C195.862 50.5398 195.984 50.8381 196.031 51.179H195.193C195.129 50.9304 194.987 50.7102 194.767 50.5185C194.549 50.3243 194.256 50.2273 193.886 50.2273C193.56 50.2273 193.273 50.3125 193.027 50.483C192.783 50.651 192.593 50.889 192.455 51.1967C192.32 51.5021 192.253 51.8608 192.253 52.2727C192.253 52.6941 192.319 53.0611 192.452 53.3736C192.587 53.6861 192.776 53.9287 193.02 54.1016C193.266 54.2744 193.555 54.3608 193.886 54.3608C194.104 54.3608 194.302 54.3229 194.479 54.2472C194.657 54.1714 194.807 54.0625 194.93 53.9205C195.054 53.7784 195.141 53.608 195.193 53.4091H196.031C195.984 53.7311 195.867 54.0211 195.68 54.2791C195.495 54.5348 195.25 54.7384 194.945 54.8899C194.642 55.0391 194.289 55.1136 193.886 55.1136ZM199.693 55.1136C199.168 55.1136 198.714 54.9976 198.333 54.7656C197.954 54.5312 197.662 54.2045 197.456 53.7855C197.253 53.3641 197.151 52.8741 197.151 52.3153C197.151 51.7566 197.253 51.2642 197.456 50.8381C197.662 50.4096 197.949 50.0758 198.315 49.8366C198.685 49.5952 199.116 49.4744 199.608 49.4744C199.892 49.4744 200.173 49.5218 200.45 49.6165C200.727 49.7112 200.979 49.8651 201.206 50.0781C201.433 50.2888 201.614 50.5682 201.749 50.9162C201.884 51.2642 201.952 51.6927 201.952 52.2017V52.5568H197.747V51.8324H201.1C201.1 51.5246 201.038 51.25 200.915 51.0085C200.794 50.767 200.621 50.5765 200.396 50.4368C200.174 50.2971 199.911 50.2273 199.608 50.2273C199.274 50.2273 198.985 50.3101 198.742 50.4759C198.5 50.6392 198.314 50.8523 198.184 51.1151C198.054 51.3778 197.989 51.6596 197.989 51.9602V52.4432C197.989 52.8551 198.06 53.2043 198.202 53.4908C198.346 53.7749 198.546 53.9915 198.802 54.1406C199.058 54.2874 199.355 54.3608 199.693 54.3608C199.913 54.3608 200.112 54.33 200.29 54.2685C200.47 54.2045 200.625 54.1098 200.755 53.9844C200.885 53.8565 200.986 53.6979 201.057 53.5085L201.867 53.7358C201.781 54.0104 201.638 54.2519 201.437 54.4602C201.236 54.6662 200.987 54.8272 200.691 54.9432C200.395 55.0568 200.063 55.1136 199.693 55.1136ZM206.339 55V49.5455H207.149V50.3693H207.206C207.305 50.0994 207.485 49.8804 207.745 49.7124C208.006 49.5443 208.299 49.4602 208.626 49.4602C208.688 49.4602 208.765 49.4614 208.857 49.4638C208.949 49.4661 209.019 49.4697 209.066 49.4744V50.3267C209.038 50.3196 208.973 50.3089 208.871 50.2947C208.772 50.2782 208.666 50.2699 208.555 50.2699C208.29 50.2699 208.053 50.3255 207.845 50.4368C207.639 50.5457 207.475 50.6972 207.355 50.8913C207.236 51.0831 207.177 51.3021 207.177 51.5483V55H206.339ZM210.21 55V49.5455H211.048V55H210.21ZM210.636 48.6364C210.473 48.6364 210.332 48.5807 210.213 48.4695C210.097 48.3582 210.039 48.2244 210.039 48.0682C210.039 47.9119 210.097 47.7782 210.213 47.6669C210.332 47.5556 210.473 47.5 210.636 47.5C210.799 47.5 210.939 47.5556 211.055 47.6669C211.173 47.7782 211.232 47.9119 211.232 48.0682C211.232 48.2244 211.173 48.3582 211.055 48.4695C210.939 48.5807 210.799 48.6364 210.636 48.6364ZM214.934 57.1591C214.53 57.1591 214.182 57.107 213.89 57.0028C213.599 56.901 213.357 56.7661 213.162 56.598C212.971 56.4323 212.818 56.2547 212.704 56.0653L213.372 55.5966C213.448 55.696 213.544 55.8097 213.66 55.9375C213.776 56.0677 213.934 56.1802 214.135 56.2749C214.339 56.3719 214.605 56.4205 214.934 56.4205C215.375 56.4205 215.738 56.3139 216.025 56.1009C216.311 55.8878 216.454 55.554 216.454 55.0994V53.9915H216.383C216.322 54.0909 216.234 54.214 216.12 54.3608C216.009 54.5052 215.848 54.6342 215.638 54.7479C215.429 54.8591 215.147 54.9148 214.792 54.9148C214.352 54.9148 213.957 54.8106 213.606 54.6023C213.258 54.3939 212.982 54.0909 212.779 53.6932C212.578 53.2955 212.477 52.8125 212.477 52.2443C212.477 51.6856 212.575 51.1991 212.772 50.7848C212.968 50.3681 213.242 50.0462 213.592 49.8189C213.942 49.5893 214.347 49.4744 214.807 49.4744C215.162 49.4744 215.443 49.5336 215.652 49.652C215.862 49.768 216.023 49.9006 216.135 50.0497C216.248 50.1965 216.336 50.3172 216.397 50.4119H216.483V49.5455H217.292V55.1562C217.292 55.625 217.186 56.0062 216.973 56.2997C216.762 56.5956 216.478 56.8123 216.12 56.9496C215.765 57.0893 215.37 57.1591 214.934 57.1591ZM214.906 54.1619C215.242 54.1619 215.526 54.085 215.758 53.9311C215.99 53.7772 216.167 53.5559 216.287 53.267C216.408 52.9782 216.469 52.6326 216.469 52.2301C216.469 51.8371 216.409 51.4903 216.291 51.1896C216.173 50.889 215.997 50.6534 215.765 50.483C215.533 50.3125 215.247 50.2273 214.906 50.2273C214.551 50.2273 214.255 50.3172 214.018 50.4972C213.784 50.6771 213.607 50.9186 213.489 51.2216C213.373 51.5246 213.315 51.8608 213.315 52.2301C213.315 52.6089 213.374 52.9439 213.493 53.2351C213.613 53.5239 213.791 53.7512 214.025 53.9169C214.262 54.0803 214.556 54.1619 214.906 54.1619ZM219.814 51.7188V55H218.976V47.7273H219.814V50.3977H219.885C220.013 50.116 220.205 49.8923 220.461 49.7266C220.719 49.5585 221.062 49.4744 221.491 49.4744C221.862 49.4744 222.188 49.549 222.467 49.6982C222.747 49.8449 222.963 50.071 223.117 50.3764C223.273 50.6795 223.351 51.0653 223.351 51.5341V55H222.513V51.5909C222.513 51.1577 222.401 50.8227 222.176 50.5859C221.953 50.3468 221.644 50.2273 221.249 50.2273C220.975 50.2273 220.728 50.2853 220.51 50.4013C220.295 50.5173 220.125 50.6866 219.999 50.9091C219.876 51.1316 219.814 51.4015 219.814 51.7188ZM227.407 49.5455V50.2557H224.58V49.5455H227.407ZM225.404 48.2386H226.242V53.4375C226.242 53.6742 226.276 53.8518 226.345 53.9702C226.416 54.0862 226.506 54.1643 226.615 54.2045C226.726 54.2424 226.843 54.2614 226.966 54.2614C227.059 54.2614 227.134 54.2566 227.194 54.2472C227.253 54.2353 227.3 54.2259 227.336 54.2188L227.506 54.9716C227.449 54.9929 227.37 55.0142 227.268 55.0355C227.166 55.0592 227.037 55.071 226.881 55.071C226.644 55.071 226.412 55.0201 226.185 54.9183C225.96 54.8165 225.773 54.6615 225.624 54.4531C225.477 54.2448 225.404 53.982 225.404 53.6648V48.2386Z" fill="black" fill-opacity="0.54"/>
<rect x="186" y="2" width="32" height="32" rx="16" fill="white"/>
<rect x="186.4" y="2.4" width="31.2" height="31.2" rx="15.6" stroke="black" stroke-opacity="0.1" stroke-width="0.8"/>
<path d="M197.832 21.0137V19.8546L202.945 11.7637H203.786V13.5591H203.218L199.354 19.6728V19.7637H206.241V21.0137H197.832ZM203.309 23.4V20.6614V20.1216V11.7637H204.65V23.4H203.309Z" fill="#1F1F1F" fill-opacity="0.65"/>
<mask id="path-27-inside-5_3612_1538" fill="white">
<rect x="157" y="15" width="29" height="5" rx="1"/>
</mask>
<rect x="157" y="15" width="29" height="5" rx="1" stroke="#1F1F1F" stroke-opacity="0.1" stroke-width="4.8" mask="url(#path-27-inside-5_3612_1538)"/>
<path d="M294.94 51H294.059C294.007 50.7467 293.916 50.5241 293.785 50.3324C293.658 50.1406 293.501 49.9796 293.317 49.8494C293.134 49.7169 292.932 49.6174 292.709 49.5511C292.487 49.4848 292.255 49.4517 292.013 49.4517C291.573 49.4517 291.174 49.563 290.817 49.7855C290.462 50.008 290.179 50.3359 289.968 50.7692C289.76 51.2024 289.655 51.7339 289.655 52.3636C289.655 52.9934 289.76 53.5249 289.968 53.9581C290.179 54.3913 290.462 54.7192 290.817 54.9418C291.174 55.1643 291.573 55.2756 292.013 55.2756C292.255 55.2756 292.487 55.2424 292.709 55.1761C292.932 55.1098 293.134 55.0116 293.317 54.8814C293.501 54.7488 293.658 54.5866 293.785 54.3949C293.916 54.2008 294.007 53.9782 294.059 53.7273H294.94C294.873 54.099 294.753 54.4316 294.577 54.7251C294.402 55.0187 294.184 55.2685 293.924 55.4744C293.663 55.678 293.371 55.8331 293.047 55.9396C292.725 56.0462 292.38 56.0994 292.013 56.0994C291.393 56.0994 290.842 55.9479 290.359 55.6449C289.876 55.3419 289.496 54.911 289.219 54.3523C288.942 53.7936 288.803 53.1307 288.803 52.3636C288.803 51.5966 288.942 50.9337 289.219 50.375C289.496 49.8163 289.876 49.3854 290.359 49.0824C290.842 48.7794 291.393 48.6278 292.013 48.6278C292.38 48.6278 292.725 48.6811 293.047 48.7876C293.371 48.8942 293.663 49.0504 293.924 49.2564C294.184 49.46 294.402 49.7086 294.577 50.0021C294.753 50.2933 294.873 50.6259 294.94 51ZM298.615 56.1136C298.122 56.1136 297.69 55.9964 297.319 55.7621C296.949 55.5277 296.661 55.1998 296.452 54.7784C296.246 54.357 296.143 53.8646 296.143 53.3011C296.143 52.733 296.246 52.237 296.452 51.8132C296.661 51.3894 296.949 51.0604 297.319 50.826C297.69 50.5916 298.122 50.4744 298.615 50.4744C299.107 50.4744 299.538 50.5916 299.907 50.826C300.279 51.0604 300.568 51.3894 300.774 51.8132C300.982 52.237 301.086 52.733 301.086 53.3011C301.086 53.8646 300.982 54.357 300.774 54.7784C300.568 55.1998 300.279 55.5277 299.907 55.7621C299.538 55.9964 299.107 56.1136 298.615 56.1136ZM298.615 55.3608C298.989 55.3608 299.297 55.2649 299.538 55.0732C299.78 54.8814 299.958 54.6293 300.074 54.3168C300.19 54.0043 300.248 53.6657 300.248 53.3011C300.248 52.9366 300.19 52.5968 300.074 52.282C299.958 51.9671 299.78 51.7126 299.538 51.5185C299.297 51.3243 298.989 51.2273 298.615 51.2273C298.241 51.2273 297.933 51.3243 297.692 51.5185C297.45 51.7126 297.271 51.9671 297.155 52.282C297.039 52.5968 296.981 52.9366 296.981 53.3011C296.981 53.6657 297.039 54.0043 297.155 54.3168C297.271 54.6293 297.45 54.8814 297.692 55.0732C297.933 55.2649 298.241 55.3608 298.615 55.3608ZM303.354 52.7188V56H302.516V50.5455H303.325V51.3977H303.396C303.524 51.1207 303.718 50.8982 303.979 50.7301C304.239 50.5597 304.575 50.4744 304.987 50.4744C305.357 50.4744 305.68 50.5502 305.957 50.7017C306.234 50.8509 306.449 51.0781 306.603 51.3835C306.757 51.6866 306.834 52.0701 306.834 52.5341V56H305.996V52.5909C305.996 52.1624 305.885 51.8286 305.662 51.5895C305.439 51.348 305.134 51.2273 304.746 51.2273C304.478 51.2273 304.239 51.2853 304.028 51.4013C303.82 51.5173 303.656 51.6866 303.535 51.9091C303.414 52.1316 303.354 52.4015 303.354 52.7188ZM310.944 50.5455V51.2557H308.004V50.5455H310.944ZM308.885 56V49.7926C308.885 49.4801 308.958 49.2197 309.105 49.0114C309.252 48.803 309.442 48.6468 309.676 48.5426C309.911 48.4384 310.158 48.3864 310.419 48.3864C310.625 48.3864 310.793 48.4029 310.923 48.4361C311.053 48.4692 311.15 48.5 311.214 48.5284L310.973 49.2528C310.93 49.2386 310.871 49.2209 310.795 49.1996C310.722 49.1783 310.625 49.1676 310.504 49.1676C310.227 49.1676 310.027 49.2375 309.904 49.3771C309.783 49.5168 309.723 49.7216 309.723 49.9915V56H308.885ZM312.269 56V50.5455H313.107V56H312.269ZM312.695 49.6364C312.531 49.6364 312.391 49.5807 312.272 49.4695C312.156 49.3582 312.098 49.2244 312.098 49.0682C312.098 48.9119 312.156 48.7782 312.272 48.6669C312.391 48.5556 312.531 48.5 312.695 48.5C312.858 48.5 312.998 48.5556 313.114 48.6669C313.232 48.7782 313.291 48.9119 313.291 49.0682C313.291 49.2244 313.232 49.3582 313.114 49.4695C312.998 49.5807 312.858 49.6364 312.695 49.6364ZM314.792 56V50.5455H315.601V51.3693H315.658C315.758 51.0994 315.938 50.8804 316.198 50.7124C316.458 50.5443 316.752 50.4602 317.079 50.4602C317.14 50.4602 317.217 50.4614 317.309 50.4638C317.402 50.4661 317.472 50.4697 317.519 50.4744V51.3267C317.491 51.3196 317.425 51.3089 317.324 51.2947C317.224 51.2782 317.119 51.2699 317.008 51.2699C316.742 51.2699 316.506 51.3255 316.297 51.4368C316.091 51.5457 315.928 51.6972 315.807 51.8913C315.689 52.0831 315.63 52.3021 315.63 52.5483V56H314.792ZM318.662 56V50.5455H319.472V51.3977H319.543C319.657 51.1065 319.84 50.8804 320.093 50.7195C320.347 50.5561 320.651 50.4744 321.006 50.4744C321.366 50.4744 321.665 50.5561 321.905 50.7195C322.146 50.8804 322.334 51.1065 322.469 51.3977H322.526C322.666 51.116 322.875 50.8923 323.155 50.7266C323.434 50.5585 323.769 50.4744 324.159 50.4744C324.647 50.4744 325.046 50.6271 325.356 50.9325C325.666 51.2356 325.821 51.7079 325.821 52.3494V56H324.983V52.3494C324.983 51.947 324.873 51.6593 324.653 51.4865C324.433 51.3137 324.174 51.2273 323.875 51.2273C323.492 51.2273 323.195 51.3433 322.984 51.5753C322.773 51.8049 322.668 52.0961 322.668 52.4489V56H321.816V52.2642C321.816 51.9541 321.715 51.7043 321.514 51.5149C321.313 51.3232 321.053 51.2273 320.736 51.2273C320.518 51.2273 320.315 51.2853 320.125 51.4013C319.938 51.5173 319.787 51.6783 319.671 51.8842C319.557 52.0878 319.5 52.3234 319.5 52.5909V56H318.662ZM329.109 56.1278C328.763 56.1278 328.449 56.0627 328.168 55.9325C327.886 55.8 327.662 55.6094 327.497 55.3608C327.331 55.1098 327.248 54.8068 327.248 54.4517C327.248 54.1392 327.31 53.8859 327.433 53.6918C327.556 53.4953 327.72 53.3414 327.926 53.2301C328.132 53.1188 328.359 53.036 328.608 52.9815C328.859 52.9247 329.111 52.8797 329.364 52.8466C329.696 52.804 329.965 52.772 330.171 52.7507C330.379 52.727 330.53 52.688 330.625 52.6335C330.722 52.5791 330.771 52.4844 330.771 52.3494V52.321C330.771 51.9706 330.675 51.6984 330.483 51.5043C330.294 51.3101 330.006 51.2131 329.62 51.2131C329.22 51.2131 328.906 51.3007 328.679 51.4759C328.452 51.651 328.292 51.8381 328.2 52.0369L327.404 51.7528C327.546 51.4214 327.736 51.1634 327.972 50.9787C328.212 50.7917 328.472 50.6615 328.754 50.5881C329.038 50.5123 329.317 50.4744 329.592 50.4744C329.767 50.4744 329.968 50.4957 330.195 50.5384C330.425 50.5786 330.646 50.6626 330.859 50.7905C331.075 50.9183 331.254 51.1113 331.396 51.3693C331.538 51.6274 331.609 51.973 331.609 52.4062V56H330.771V55.2614H330.728C330.671 55.3797 330.577 55.5064 330.444 55.6413C330.311 55.7763 330.135 55.8911 329.915 55.9858C329.695 56.0805 329.426 56.1278 329.109 56.1278ZM329.237 55.375C329.568 55.375 329.847 55.3099 330.075 55.1797C330.304 55.0495 330.477 54.8814 330.593 54.6754C330.712 54.4695 330.771 54.2528 330.771 54.0256V53.2585C330.735 53.3011 330.657 53.3402 330.536 53.3757C330.418 53.4089 330.281 53.4384 330.124 53.4645C329.971 53.4882 329.82 53.5095 329.673 53.5284C329.529 53.545 329.412 53.5592 329.322 53.571C329.104 53.5994 328.9 53.6456 328.711 53.7095C328.524 53.7711 328.373 53.8646 328.257 53.9901C328.143 54.1132 328.086 54.2812 328.086 54.4943C328.086 54.7855 328.194 55.0057 328.409 55.1548C328.627 55.3016 328.903 55.375 329.237 55.375ZM335.661 50.5455V51.2557H332.834V50.5455H335.661ZM333.658 49.2386H334.496V54.4375C334.496 54.6742 334.53 54.8518 334.599 54.9702C334.67 55.0862 334.76 55.1643 334.869 55.2045C334.98 55.2424 335.097 55.2614 335.22 55.2614C335.313 55.2614 335.388 55.2566 335.447 55.2472C335.507 55.2353 335.554 55.2259 335.59 55.2188L335.76 55.9716C335.703 55.9929 335.624 56.0142 335.522 56.0355C335.42 56.0592 335.291 56.071 335.135 56.071C334.898 56.071 334.666 56.0201 334.439 55.9183C334.214 55.8165 334.027 55.6615 333.878 55.4531C333.731 55.2448 333.658 54.982 333.658 54.6648V49.2386ZM337.071 56V50.5455H337.909V56H337.071ZM337.497 49.6364C337.334 49.6364 337.193 49.5807 337.075 49.4695C336.959 49.3582 336.901 49.2244 336.901 49.0682C336.901 48.9119 336.959 48.7782 337.075 48.6669C337.193 48.5556 337.334 48.5 337.497 48.5C337.661 48.5 337.8 48.5556 337.916 48.6669C338.035 48.7782 338.094 48.9119 338.094 49.0682C338.094 49.2244 338.035 49.3582 337.916 49.4695C337.8 49.5807 337.661 49.6364 337.497 49.6364ZM341.81 56.1136C341.318 56.1136 340.886 55.9964 340.514 55.7621C340.145 55.5277 339.856 55.1998 339.647 54.7784C339.441 54.357 339.338 53.8646 339.338 53.3011C339.338 52.733 339.441 52.237 339.647 51.8132C339.856 51.3894 340.145 51.0604 340.514 50.826C340.886 50.5916 341.318 50.4744 341.81 50.4744C342.302 50.4744 342.733 50.5916 343.103 50.826C343.474 51.0604 343.763 51.3894 343.969 51.8132C344.177 52.237 344.282 52.733 344.282 53.3011C344.282 53.8646 344.177 54.357 343.969 54.7784C343.763 55.1998 343.474 55.5277 343.103 55.7621C342.733 55.9964 342.302 56.1136 341.81 56.1136ZM341.81 55.3608C342.184 55.3608 342.492 55.2649 342.733 55.0732C342.975 54.8814 343.154 54.6293 343.27 54.3168C343.386 54.0043 343.444 53.6657 343.444 53.3011C343.444 52.9366 343.386 52.5968 343.27 52.282C343.154 51.9671 342.975 51.7126 342.733 51.5185C342.492 51.3243 342.184 51.2273 341.81 51.2273C341.436 51.2273 341.128 51.3243 340.887 51.5185C340.645 51.7126 340.467 51.9671 340.351 52.282C340.235 52.5968 340.177 52.9366 340.177 53.3011C340.177 53.6657 340.235 54.0043 340.351 54.3168C340.467 54.6293 340.645 54.8814 340.887 55.0732C341.128 55.2649 341.436 55.3608 341.81 55.3608ZM346.549 52.7188V56H345.711V50.5455H346.521V51.3977H346.592C346.719 51.1207 346.914 50.8982 347.174 50.7301C347.434 50.5597 347.771 50.4744 348.182 50.4744C348.552 50.4744 348.875 50.5502 349.152 50.7017C349.429 50.8509 349.644 51.0781 349.798 51.3835C349.952 51.6866 350.029 52.0701 350.029 52.5341V56H349.191V52.5909C349.191 52.1624 349.08 51.8286 348.857 51.5895C348.635 51.348 348.329 51.2273 347.941 51.2273C347.673 51.2273 347.434 51.2853 347.224 51.4013C347.015 51.5173 346.851 51.6866 346.73 51.9091C346.609 52.1316 346.549 52.4015 346.549 52.7188Z" fill="black" fill-opacity="0.54"/>
<rect x="307" y="3" width="32" height="32" rx="16" fill="white"/>
<rect x="307.4" y="3.4" width="31.2" height="31.2" rx="15.6" stroke="black" stroke-opacity="0.1" stroke-width="0.8"/>
<path d="M322.931 24.5591C322.453 24.5515 321.976 24.4606 321.499 24.2864C321.022 24.1121 320.586 23.8186 320.192 23.4057C319.798 22.989 319.482 22.4265 319.243 21.7182C319.005 21.0061 318.885 20.1121 318.885 19.0364C318.885 18.0061 318.982 17.0932 319.175 16.2978C319.368 15.4985 319.649 14.8262 320.016 14.2807C320.383 13.7315 320.827 13.3148 321.346 13.0307C321.868 12.7466 322.457 12.6046 323.113 12.6046C323.764 12.6046 324.344 12.7353 324.851 12.9966C325.363 13.2542 325.779 13.614 326.101 14.0762C326.423 14.5383 326.631 15.0705 326.726 15.6728H325.34C325.211 15.15 324.961 14.7163 324.59 14.3716C324.219 14.0269 323.726 13.8546 323.113 13.8546C322.211 13.8546 321.501 14.2466 320.982 15.0307C320.467 15.8148 320.207 16.9152 320.203 18.3318H320.294C320.506 18.0099 320.758 17.7353 321.05 17.508C321.346 17.2769 321.671 17.0989 322.027 16.9739C322.383 16.8489 322.76 16.7864 323.158 16.7864C323.825 16.7864 324.435 16.9531 324.988 17.2864C325.541 17.6159 325.984 18.0724 326.317 18.6557C326.65 19.2353 326.817 19.9 326.817 20.65C326.817 21.3697 326.656 22.0288 326.334 22.6273C326.012 23.222 325.56 23.6955 324.976 24.0478C324.397 24.3962 323.715 24.5667 322.931 24.5591ZM322.931 23.3091C323.408 23.3091 323.836 23.1898 324.215 22.9512C324.597 22.7125 324.899 22.3924 325.118 21.9909C325.342 21.5894 325.453 21.1424 325.453 20.65C325.453 20.169 325.346 19.7315 325.13 19.3375C324.917 18.9398 324.624 18.6235 324.249 18.3887C323.878 18.1538 323.453 18.0364 322.976 18.0364C322.616 18.0364 322.281 18.1084 321.971 18.2523C321.66 18.3924 321.387 18.5856 321.152 18.8318C320.921 19.0781 320.739 19.3603 320.607 19.6784C320.474 19.9928 320.408 20.3243 320.408 20.6728C320.408 21.1349 320.516 21.5667 320.732 21.9682C320.952 22.3697 321.251 22.6936 321.63 22.9398C322.012 23.186 322.446 23.3091 322.931 23.3091Z" fill="#1F1F1F" fill-opacity="0.65"/>
</svg>
