<svg width="16" height="20" viewBox="0 0 16 20" fill="none" xmlns="http://www.w3.org/2000/svg">
<path d="M8.00011 20C8.53006 19.9984 9.03785 19.7872 9.41258 19.4125C9.78731 19.0377 9.99853 18.5299 10.0001 18H6.00011C6.00011 18.5304 6.21083 19.0391 6.5859 19.4142C6.96097 19.7893 7.46968 20 8.00011 20ZM14.0001 14V9C14.0001 5.93 12.3601 3.36 9.50011 2.68V2C9.50011 1.60218 9.34208 1.22064 9.06077 0.93934C8.77947 0.658035 8.39794 0.5 8.00011 0.5C7.60229 0.5 7.22076 0.658035 6.93945 0.93934C6.65815 1.22064 6.50011 1.60218 6.50011 2V2.68C3.63011 3.36 2.00011 5.92 2.00011 9V14L0.710114 15.29C0.569693 15.4293 0.473722 15.6071 0.434336 15.8009C0.394951 15.9947 0.413921 16.1958 0.488846 16.3789C0.563772 16.5619 0.691289 16.7186 0.855272 16.8292C1.01926 16.9397 1.21234 16.9992 1.41011 17H14.5801C14.7787 17.0012 14.9732 16.9431 15.1387 16.8333C15.3042 16.7235 15.4333 16.5669 15.5095 16.3835C15.5857 16.2 15.6055 15.9981 15.5664 15.8033C15.5273 15.6086 15.4311 15.4299 15.2901 15.29L14.0001 14Z" fill="#1B506F"/>
</svg>
