<svg width="279" height="207" viewBox="0 0 279 207" fill="none" xmlns="http://www.w3.org/2000/svg">
<mask id="mask0_106_3544" style="mask-type:luminance" maskUnits="userSpaceOnUse" x="0" y="0" width="279" height="207">
<path d="M279 0.551758H0V206.142H279V0.551758Z" fill="white"/>
</mask>
<g mask="url(#mask0_106_3544)">
<path d="M157.46 102.342L200.97 95.6216L214.2 181.242L170.69 187.972L157.46 102.342Z" fill="#BBD951"/>
<path d="M199.32 98.7119L211.7 178.792L172.32 184.872L159.94 104.802L199.32 98.7119ZM208.71 176.602L197.13 101.702L162.93 106.992L174.51 181.892L208.71 176.602Z" fill="#C9EDF9"/>
<mask id="mask1_106_3544" style="mask-type:luminance" maskUnits="userSpaceOnUse" x="11" y="0" width="266" height="207">
<path d="M276.21 0.551758H11.15V206.142H276.21V0.551758Z" fill="white"/>
</mask>
<g mask="url(#mask1_106_3544)">
<mask id="mask2_106_3544" style="mask-type:luminance" maskUnits="userSpaceOnUse" x="173" y="132" width="27" height="18">
<path d="M199.47 132.742H173.28V149.472H199.47V132.742Z" fill="white"/>
</mask>
<g mask="url(#mask2_106_3544)">
<path d="M179.99 139.911C179.524 140.127 179.116 140.45 178.798 140.853C178.48 141.256 178.262 141.728 178.16 142.231C178.296 142.247 178.434 142.247 178.57 142.231C180.18 141.801 181.79 141.351 183.4 140.931C183.76 140.841 183.85 140.691 183.87 140.321C183.908 139.474 183.992 138.63 184.12 137.791C184.58 134.841 186.58 133.291 189.34 132.881C192.67 132.381 195 133.642 196.57 136.642C196.85 137.192 197.15 137.291 197.68 137.091C198.06 136.951 198.48 136.872 198.91 136.752L199.47 138.821L197.61 139.321C197.885 140.979 197.554 142.68 196.678 144.114C195.802 145.548 194.44 146.619 192.84 147.131L191.43 143.532C192.064 143.202 192.624 142.745 193.073 142.189C193.522 141.634 193.851 140.991 194.04 140.301L191.61 140.952C190.55 141.242 189.51 141.541 188.44 141.801C188.277 141.817 188.127 141.896 188.022 142.021C187.917 142.147 187.866 142.309 187.88 142.472C187.864 143.785 187.539 145.077 186.93 146.241C186.334 147.309 185.445 148.182 184.367 148.758C183.289 149.335 182.068 149.589 180.85 149.491C179.749 149.468 178.679 149.122 177.772 148.496C176.866 147.871 176.163 146.993 175.75 145.972L175.54 145.541C175.503 145.474 175.459 145.411 175.41 145.351L173.85 145.771L173.32 143.621C173.69 143.521 174.07 143.401 174.45 143.321C174.83 143.241 174.93 143.051 174.9 142.661C174.777 141.834 174.836 140.99 175.07 140.187C175.305 139.385 175.711 138.642 176.26 138.011C176.889 137.294 177.677 136.732 178.56 136.371L180.04 139.901M188.04 139.601L193.62 138.091C193.343 137.471 192.864 136.963 192.261 136.651C191.658 136.339 190.966 136.24 190.3 136.371C188.9 136.631 188.02 137.851 188.04 139.601ZM178.75 144.452C179.074 144.926 179.534 145.292 180.069 145.501C180.604 145.71 181.19 145.752 181.75 145.621C182.281 145.446 182.746 145.113 183.082 144.666C183.418 144.219 183.609 143.68 183.63 143.121L178.7 144.452" fill="#C9EDF9"/>
</g>
</g>
<path d="M213.65 86.1106L174.538 171.147L217.756 191.025L256.868 105.989L213.65 86.1106Z" fill="#50EE95"/>
<path d="M253.48 107.792L216.94 187.292L177.85 169.292L214.38 89.792L253.48 107.792ZM215.55 183.532L249.73 109.172L215.73 93.572L181.59 167.922L215.55 183.532Z" fill="#00BF90"/>
<mask id="mask3_106_3544" style="mask-type:luminance" maskUnits="userSpaceOnUse" x="11" y="0" width="266" height="207">
<path d="M276.21 0.551758H11.15V206.142H276.21V0.551758Z" fill="white"/>
</mask>
<g mask="url(#mask3_106_3544)">
<mask id="mask4_106_3544" style="mask-type:luminance" maskUnits="userSpaceOnUse" x="204" y="124" width="26" height="19">
<path d="M229.34 124.042H204.37V142.292H229.34V124.042Z" fill="white"/>
</mask>
<g mask="url(#mask4_106_3544)">
<path d="M212.83 128.002C212.334 127.864 211.813 127.845 211.309 127.948C210.805 128.05 210.332 128.271 209.93 128.592C210.037 128.681 210.151 128.761 210.27 128.832C211.78 129.542 213.27 130.232 214.8 130.952C214.858 130.991 214.924 131.019 214.993 131.032C215.062 131.046 215.133 131.046 215.201 131.032C215.27 131.018 215.336 130.99 215.394 130.951C215.452 130.912 215.502 130.861 215.54 130.802C216.112 130.174 216.719 129.58 217.36 129.022C219.62 127.022 222.14 127.172 224.52 128.632C227.38 130.402 228.35 132.872 227.62 136.172C227.49 136.772 227.62 137.042 228.18 137.232C228.576 137.391 228.963 137.571 229.34 137.772L228.43 139.712L226.68 138.902C225.821 140.345 224.471 141.431 222.877 141.961C221.284 142.492 219.553 142.432 218 141.792L219.25 138.122C219.947 138.284 220.67 138.298 221.373 138.163C222.075 138.029 222.742 137.749 223.33 137.342L221.04 136.272C220.04 135.812 219.04 135.362 218.04 134.882C217.974 134.834 217.899 134.799 217.819 134.78C217.739 134.761 217.657 134.758 217.576 134.771C217.495 134.784 217.417 134.813 217.348 134.856C217.278 134.899 217.218 134.955 217.17 135.022C216.311 136.015 215.228 136.79 214.01 137.282C212.869 137.713 211.628 137.807 210.435 137.554C209.242 137.3 208.147 136.71 207.28 135.852C206.447 135.124 205.848 134.166 205.558 133.099C205.268 132.031 205.3 130.901 205.65 129.852L205.77 129.392C205.775 129.315 205.775 129.239 205.77 129.162L204.31 128.482L205.23 126.482C205.589 126.628 205.94 126.795 206.28 126.982C206.64 127.182 206.83 127.082 207.05 126.762C207.489 126.058 208.073 125.454 208.762 124.992C209.452 124.53 210.232 124.22 211.05 124.082C211.996 123.946 212.961 124.028 213.87 124.322L212.72 127.972M219.04 132.912L224.28 135.362C224.469 134.709 224.431 134.01 224.171 133.382C223.911 132.753 223.445 132.231 222.85 131.902C222.205 131.564 221.456 131.48 220.751 131.665C220.047 131.85 219.437 132.291 219.04 132.902M208.81 130.612C208.747 131.193 208.865 131.78 209.148 132.292C209.43 132.804 209.864 133.216 210.39 133.472C210.902 133.671 211.463 133.711 211.998 133.586C212.533 133.461 213.019 133.177 213.39 132.772L208.76 130.612" fill="#C9EDF9"/>
</g>
</g>
<path d="M242.49 106.282L176.537 172.609L210.243 206.125L276.196 139.798L242.49 106.282Z" fill="#50EE95"/>
<path d="M272.47 140.342L210.8 202.392L180.32 172.062L242 110.012L272.47 140.342ZM210.78 198.392L268.47 140.392L241.97 114.052L184.28 172.052L210.78 198.392Z" fill="#00BF90"/>
<path d="M246.42 89.2414C246.503 96.643 244.388 103.903 240.344 110.103C236.3 116.302 230.509 121.164 223.702 124.071C216.895 126.979 209.378 127.803 202.103 126.438C194.828 125.073 188.121 121.581 182.83 116.404C177.54 111.227 173.904 104.597 172.382 97.3534C170.86 90.1095 171.52 82.577 174.28 75.7085C177.04 68.8401 181.774 62.9445 187.885 58.7673C193.996 54.5901 201.208 52.319 208.61 52.2414C218.53 52.1348 228.087 55.9729 235.177 62.9115C242.268 69.8502 246.312 79.3212 246.42 89.2414Z" fill="#FFB93E"/>
<path d="M242.66 89.2816C242.731 95.9368 240.826 102.464 237.188 108.036C233.549 113.609 228.34 117.978 222.218 120.59C216.096 123.202 209.337 123.94 202.796 122.711C196.255 121.481 190.226 118.34 185.47 113.684C180.714 109.027 177.446 103.065 176.079 96.5516C174.712 90.0379 175.307 83.2651 177.79 77.0897C180.272 70.9143 184.53 65.6137 190.025 61.8583C195.52 58.1028 202.005 56.0612 208.66 55.9916C217.583 55.8983 226.178 59.353 232.554 65.5959C238.93 71.8388 242.565 80.3586 242.66 89.2816Z" fill="#FFC53E"/>
<path d="M209.32 121.122C203.088 121.189 196.976 119.406 191.757 115.999C186.538 112.592 182.447 107.714 180.001 101.982C177.554 96.2501 176.863 89.9212 178.013 83.796C179.164 77.6707 182.105 72.0243 186.465 67.5708C190.825 63.1172 196.408 60.0566 202.507 58.7759C208.606 57.4953 214.948 58.0522 220.731 60.3761C226.514 62.7001 231.478 66.6867 234.995 71.8319C238.512 76.9771 240.424 83.0497 240.49 89.2817C240.57 97.6348 237.333 105.678 231.489 111.648C225.646 117.617 217.673 121.024 209.32 121.122ZM208.66 59.2717C202.657 59.3374 196.808 61.1819 191.854 64.5719C186.899 67.9619 183.061 72.7452 180.825 78.3166C178.589 83.8881 178.056 89.9975 179.293 95.8721C180.53 101.747 183.481 107.123 187.773 111.32C192.065 115.517 197.506 118.347 203.407 119.452C209.308 120.556 215.404 119.886 220.924 117.526C226.444 115.166 231.14 111.222 234.418 106.193C237.696 101.163 239.409 95.2747 239.34 89.2717C239.248 81.2257 235.964 73.5457 230.211 67.9201C224.458 62.2944 216.706 59.1837 208.66 59.2717Z" fill="#FFA412"/>
<mask id="mask5_106_3544" style="mask-type:luminance" maskUnits="userSpaceOnUse" x="196" y="67" width="26" height="46">
<path d="M221.86 67.4614H196.87V112.531H221.86V67.4614Z" fill="white"/>
</mask>
<g mask="url(#mask5_106_3544)">
<path d="M214.13 80.0614C213.977 79.2067 213.626 78.3998 213.105 77.7052C212.584 77.0105 211.908 76.4476 211.13 76.0614C211.079 76.2922 211.042 76.526 211.02 76.7614C211.02 79.5914 211.1 82.4214 211.1 85.2414C211.1 85.8614 211.31 86.0914 211.9 86.2414C213.283 86.6601 214.641 87.1542 215.97 87.7214C220.61 89.7214 222.31 93.7214 221.81 98.3814C221.21 104.061 218.15 107.381 212.56 108.661C211.56 108.891 211.25 109.331 211.35 110.291C211.42 110.981 211.35 111.691 211.35 112.461H207.7V109.181C199.7 107.981 197.28 102.291 196.9 98.0314L203.43 97.2514C203.697 98.4343 204.207 99.5486 204.928 100.523C205.65 101.498 206.566 102.311 207.62 102.911V98.6314C207.62 96.7814 207.55 94.9314 207.57 93.0814C207.6 92.9448 207.602 92.8034 207.574 92.6663C207.546 92.5291 207.49 92.3993 207.409 92.2853C207.328 92.1713 207.224 92.0755 207.103 92.0042C206.983 91.9329 206.849 91.8877 206.71 91.8714C204.556 91.2943 202.571 90.2109 200.92 88.7114C197.6 85.5114 197.01 81.5214 198.17 77.3514C199.25 73.4614 202.17 71.2714 206.12 70.4714L206.91 70.3114C207.037 70.2752 207.161 70.2284 207.28 70.1714V67.4414H210.98C210.98 68.0914 211.04 68.7514 210.98 69.4414C210.92 70.1314 211.23 70.3514 211.88 70.4414C213.288 70.6028 214.645 71.0617 215.863 71.7875C217.08 72.5133 218.129 73.4895 218.94 74.6514C219.809 75.9999 220.36 77.5285 220.55 79.1214L214.13 80.0414M211.22 93.3314C211.22 96.6614 211.29 99.9014 211.32 103.141C212.464 102.964 213.51 102.396 214.282 101.533C215.053 100.671 215.501 99.5675 215.55 98.4114C215.73 96.0014 214.1 94.0314 211.21 93.3314M207.21 76.0114C206.276 76.34 205.466 76.9482 204.89 77.7533C204.314 78.5584 204 79.5214 203.99 80.5114C204.046 81.4613 204.394 82.3706 204.987 83.1152C205.579 83.8598 206.387 84.4033 207.3 84.6714C207.3 81.8314 207.24 78.9814 207.21 76.0114Z" fill="#FFA412"/>
</g>
<path d="M105.71 67.4815H185.32C186.512 67.4788 187.693 67.7112 188.795 68.1652C189.897 68.6192 190.899 69.286 191.743 70.1274C192.587 70.9688 193.257 71.9684 193.715 73.069C194.172 74.1695 194.409 75.3495 194.41 76.5415V194.831C194.409 196.023 194.172 197.203 193.715 198.304C193.257 199.405 192.587 200.404 191.743 201.246C190.899 202.087 189.897 202.754 188.795 203.208C187.693 203.662 186.512 203.894 185.32 203.891H105.71C103.304 203.894 100.994 202.941 99.2901 201.243C97.5856 199.544 96.6253 197.238 96.62 194.831V76.5415C96.6253 74.135 97.5856 71.8291 99.2901 70.1303C100.994 68.4315 103.304 67.4788 105.71 67.4815Z" fill="#1B404F"/>
<path d="M186.57 78.7417H105.43V99.6217H186.57V78.7417Z" fill="#DFF3FF"/>
<path d="M125.32 113.122H108.83C108.383 113.122 107.941 113.034 107.529 112.863C107.116 112.692 106.741 112.441 106.426 112.126C106.11 111.81 105.86 111.435 105.689 111.023C105.518 110.61 105.43 110.168 105.43 109.722V109.002C105.43 108.1 105.788 107.235 106.426 106.597C107.063 105.96 107.928 105.602 108.83 105.602H125.32C126.222 105.602 127.086 105.96 127.724 106.597C128.362 107.235 128.72 108.1 128.72 109.002V109.722C128.72 110.168 128.632 110.61 128.461 111.023C128.29 111.435 128.04 111.81 127.724 112.126C127.408 112.441 127.034 112.692 126.621 112.863C126.209 113.034 125.766 113.122 125.32 113.122Z" fill="#0DD967"/>
<path d="M154.24 113.122H137.76C137.314 113.122 136.871 113.034 136.459 112.863C136.046 112.692 135.672 112.441 135.356 112.126C135.04 111.81 134.79 111.435 134.619 111.023C134.448 110.61 134.36 110.168 134.36 109.722V109.002C134.36 108.1 134.718 107.235 135.356 106.597C135.993 105.96 136.858 105.602 137.76 105.602H154.24C155.142 105.602 156.007 105.96 156.644 106.597C157.282 107.235 157.64 108.1 157.64 109.002V109.722C157.64 110.168 157.552 110.61 157.381 111.023C157.21 111.435 156.96 111.81 156.644 112.126C156.328 112.441 155.954 112.692 155.541 112.863C155.129 113.034 154.686 113.122 154.24 113.122Z" fill="#0DD967"/>
<path d="M183.17 113.122H166.69C166.244 113.122 165.801 113.034 165.389 112.863C164.976 112.692 164.602 112.441 164.286 112.126C163.97 111.81 163.72 111.435 163.549 111.023C163.378 110.61 163.29 110.168 163.29 109.722V109.002C163.29 108.1 163.648 107.235 164.286 106.597C164.923 105.96 165.788 105.602 166.69 105.602H183.17C184.072 105.602 184.937 105.96 185.574 106.597C186.212 107.235 186.57 108.1 186.57 109.002V109.722C186.57 110.168 186.482 110.61 186.311 111.023C186.14 111.435 185.89 111.81 185.574 112.126C185.258 112.441 184.884 112.692 184.471 112.863C184.059 113.034 183.617 113.122 183.17 113.122Z" fill="#0DD967"/>
<path d="M117.88 135.922H111C109.523 135.922 108.106 135.335 107.061 134.29C106.017 133.246 105.43 131.829 105.43 130.352V124.622C105.43 123.891 105.574 123.167 105.854 122.491C106.134 121.816 106.545 121.203 107.062 120.686C107.579 120.17 108.193 119.761 108.869 119.482C109.545 119.203 110.269 119.06 111 119.062H117.88C119.355 119.062 120.769 119.647 121.811 120.69C122.854 121.733 123.44 123.147 123.44 124.622V130.352C123.441 131.083 123.298 131.807 123.02 132.482C122.741 133.158 122.331 133.772 121.815 134.29C121.299 134.807 120.685 135.217 120.01 135.497C119.335 135.777 118.611 135.922 117.88 135.922Z" fill="#24B5E9"/>
<path d="M138.92 135.922H132.04C130.563 135.922 129.146 135.335 128.101 134.29C127.057 133.246 126.47 131.829 126.47 130.352V124.622C126.47 123.891 126.614 123.167 126.894 122.491C127.174 121.816 127.585 121.203 128.102 120.686C128.619 120.17 129.233 119.761 129.909 119.482C130.585 119.203 131.309 119.06 132.04 119.062H138.92C140.396 119.062 141.811 119.647 142.855 120.689C143.899 121.732 144.487 123.146 144.49 124.622V130.352C144.487 131.828 143.9 133.243 142.856 134.287C141.812 135.331 140.396 135.919 138.92 135.922Z" fill="#24B5E9"/>
<path d="M159.96 135.922H153.08C151.603 135.922 150.186 135.335 149.141 134.29C148.097 133.246 147.51 131.829 147.51 130.352V124.622C147.51 123.891 147.654 123.167 147.934 122.491C148.214 121.816 148.625 121.203 149.142 120.686C149.659 120.17 150.273 119.761 150.949 119.482C151.625 119.203 152.349 119.06 153.08 119.062H159.96C161.435 119.062 162.849 119.647 163.892 120.69C164.934 121.733 165.52 123.147 165.52 124.622V130.352C165.521 131.083 165.378 131.807 165.1 132.482C164.821 133.158 164.411 133.772 163.895 134.29C163.379 134.807 162.765 135.217 162.09 135.497C161.415 135.777 160.691 135.922 159.96 135.922Z" fill="#24B5E9"/>
<path d="M117.88 156.712H111C109.523 156.712 108.106 156.125 107.061 155.08C106.017 154.036 105.43 152.619 105.43 151.142V145.412C105.43 144.681 105.574 143.957 105.854 143.282C106.134 142.606 106.545 141.993 107.062 141.477C107.579 140.96 108.193 140.551 108.869 140.272C109.545 139.993 110.269 139.85 111 139.852H117.88C118.61 139.852 119.333 139.995 120.008 140.275C120.682 140.554 121.295 140.964 121.811 141.48C122.328 141.996 122.737 142.609 123.017 143.284C123.296 143.958 123.44 144.681 123.44 145.412V151.122C123.44 152.597 122.854 154.012 121.812 155.057C120.77 156.101 119.355 156.689 117.88 156.692" fill="#24B5E9"/>
<path d="M138.92 156.712H132.04C130.563 156.712 129.146 156.125 128.101 155.08C127.057 154.036 126.47 152.619 126.47 151.142V145.412C126.47 143.935 127.057 142.518 128.101 141.473C129.146 140.429 130.563 139.842 132.04 139.842H138.92C140.396 139.844 141.812 140.432 142.856 141.476C143.9 142.52 144.487 143.935 144.49 145.412V151.122C144.487 152.598 143.9 154.013 142.856 155.057C141.812 156.101 140.396 156.689 138.92 156.692" fill="#24B5E9"/>
<path d="M159.96 156.712H153.08C151.603 156.712 150.186 156.125 149.141 155.08C148.097 154.036 147.51 152.619 147.51 151.142V145.412C147.51 144.681 147.654 143.957 147.934 143.282C148.214 142.606 148.625 141.993 149.142 141.477C149.659 140.96 150.273 140.551 150.949 140.272C151.625 139.993 152.349 139.85 153.08 139.852H159.96C160.69 139.852 161.413 139.995 162.088 140.275C162.762 140.554 163.375 140.964 163.892 141.48C164.408 141.996 164.817 142.609 165.097 143.284C165.376 143.958 165.52 144.681 165.52 145.412V151.122C165.52 152.597 164.935 154.012 163.892 155.057C162.85 156.101 161.436 156.689 159.96 156.692" fill="#24B5E9"/>
<path d="M182.9 119.052H172.22C171.247 119.052 170.313 119.438 169.625 120.127C168.937 120.815 168.55 121.748 168.55 122.722V153.042C168.55 154.015 168.937 154.949 169.625 155.637C170.313 156.325 171.247 156.712 172.22 156.712H182.9C183.873 156.709 184.805 156.322 185.492 155.634C186.18 154.946 186.567 154.014 186.57 153.042V122.732C186.57 121.758 186.183 120.825 185.495 120.137C184.807 119.448 183.873 119.062 182.9 119.062" fill="#FF8363"/>
<path d="M117.88 177.501H111C109.523 177.501 108.106 176.915 107.061 175.87C106.017 174.825 105.43 173.409 105.43 171.931V166.201C105.43 164.724 106.017 163.307 107.061 162.263C108.106 161.218 109.523 160.631 111 160.631H117.88C119.355 160.634 120.77 161.222 121.812 162.266C122.854 163.311 123.44 164.726 123.44 166.201V171.931C123.44 173.407 122.854 174.822 121.812 175.866C120.77 176.911 119.355 177.499 117.88 177.501Z" fill="#24B5E9"/>
<path d="M138.92 177.501H132.04C130.563 177.501 129.146 176.915 128.101 175.87C127.057 174.825 126.47 173.409 126.47 171.931V166.201C126.47 164.724 127.057 163.307 128.101 162.263C129.146 161.218 130.563 160.631 132.04 160.631H138.92C140.397 160.631 141.814 161.218 142.859 162.263C143.903 163.307 144.49 164.724 144.49 166.201V171.931C144.487 173.408 143.9 174.823 142.856 175.867C141.812 176.911 140.396 177.499 138.92 177.501Z" fill="#24B5E9"/>
<path d="M159.96 177.501H153.08C151.603 177.501 150.186 176.915 149.141 175.87C148.097 174.825 147.51 173.409 147.51 171.931V166.201C147.51 164.724 148.097 163.307 149.141 162.263C150.186 161.218 151.603 160.631 153.08 160.631H159.96C161.436 160.634 162.85 161.222 163.892 162.266C164.935 163.311 165.52 164.726 165.52 166.201V171.931C165.52 173.407 164.935 174.822 163.892 175.866C162.85 176.911 161.436 177.499 159.96 177.501Z" fill="#24B5E9"/>
<path d="M181 177.501H174.12C172.643 177.501 171.226 176.915 170.181 175.87C169.137 174.825 168.55 173.409 168.55 171.931V166.201C168.55 164.724 169.137 163.307 170.181 162.263C171.226 161.218 172.643 160.631 174.12 160.631H181C182.476 160.634 183.892 161.222 184.936 162.266C185.98 163.31 186.567 164.725 186.57 166.201V171.931C186.567 173.408 185.98 174.823 184.936 175.867C183.892 176.911 182.476 177.499 181 177.501Z" fill="#FF8363"/>
<path d="M117.88 198.291H111C109.523 198.291 108.106 197.705 107.061 196.66C106.017 195.615 105.43 194.199 105.43 192.721V186.991C105.43 185.514 106.017 184.097 107.061 183.053C108.106 182.008 109.523 181.421 111 181.421H117.88C118.611 181.421 119.335 181.566 120.01 181.846C120.685 182.126 121.299 182.536 121.815 183.053C122.331 183.571 122.741 184.185 123.02 184.861C123.298 185.536 123.441 186.26 123.44 186.991V192.721C123.44 194.197 122.854 195.612 121.812 196.656C120.77 197.701 119.355 198.289 117.88 198.291Z" fill="#24B5E9"/>
<path d="M138.92 198.291H132.04C130.563 198.291 129.146 197.705 128.101 196.66C127.057 195.615 126.47 194.199 126.47 192.721V186.991C126.47 185.516 127.055 184.101 128.098 183.056C129.14 182.012 130.554 181.424 132.03 181.421H138.92C140.396 181.424 141.812 182.012 142.856 183.056C143.9 184.1 144.487 185.515 144.49 186.991V192.721C144.487 194.198 143.9 195.613 142.856 196.657C141.812 197.701 140.396 198.289 138.92 198.291Z" fill="#24B5E9"/>
<path d="M159.96 198.291H153.08C151.603 198.291 150.186 197.705 149.141 196.66C148.097 195.615 147.51 194.199 147.51 192.721V186.991C147.51 185.514 148.097 184.097 149.141 183.053C150.186 182.008 151.603 181.421 153.08 181.421H159.96C161.436 181.424 162.85 182.012 163.892 183.056C164.935 184.101 165.52 185.516 165.52 186.991V192.721C165.52 194.197 164.935 195.612 163.892 196.656C162.85 197.701 161.436 198.289 159.96 198.291Z" fill="#FF8363"/>
<path d="M181 198.291H174.12C172.643 198.291 171.226 197.705 170.181 196.66C169.137 195.615 168.55 194.199 168.55 192.721V186.991C168.55 185.514 169.137 184.097 170.181 183.053C171.226 182.008 172.643 181.421 174.12 181.421H181C182.476 181.424 183.892 182.012 184.936 183.056C185.98 184.1 186.567 185.515 186.57 186.991V192.721C186.567 194.197 185.979 195.611 184.935 196.654C183.891 197.696 182.476 198.281 181 198.281" fill="#0DD967"/>
<path d="M117.52 164.631V165.491L113.36 174.191H112.02L116.17 165.741H111.49V164.671L117.52 164.631Z" fill="white"/>
<path d="M132.32 171.761C132.33 171.19 132.519 170.636 132.859 170.177C133.2 169.718 133.676 169.377 134.22 169.201C133.782 169.035 133.403 168.741 133.132 168.358C132.862 167.975 132.711 167.52 132.7 167.051C132.734 166.344 133.046 165.679 133.569 165.201C134.092 164.723 134.782 164.472 135.49 164.501H135.66C137.51 164.501 138.43 165.661 138.43 166.851C138.426 167.34 138.274 167.816 137.994 168.216C137.713 168.616 137.318 168.921 136.86 169.091C137.401 169.247 137.879 169.57 138.226 170.013C138.572 170.457 138.77 170.999 138.79 171.561C138.79 173.221 137.36 174.341 135.54 174.341C133.54 174.341 132.34 173.151 132.34 171.751M137.48 171.691C137.48 170.531 136.67 169.971 135.38 169.601C134.907 169.686 134.478 169.931 134.165 170.296C133.851 170.66 133.673 171.121 133.66 171.601C133.652 171.834 133.69 172.066 133.771 172.283C133.853 172.501 133.977 172.701 134.136 172.871C134.294 173.041 134.485 173.178 134.697 173.274C134.909 173.37 135.137 173.424 135.37 173.431H135.57C136.027 173.479 136.485 173.344 136.843 173.055C137.2 172.767 137.43 172.348 137.48 171.891V171.721M133.93 166.941C133.93 167.941 134.65 168.411 135.75 168.711C136.148 168.617 136.506 168.397 136.769 168.084C137.032 167.77 137.186 167.38 137.21 166.971C137.219 166.777 137.19 166.583 137.125 166.399C137.059 166.216 136.957 166.048 136.826 165.904C136.696 165.76 136.537 165.643 136.361 165.56C136.185 165.478 135.994 165.43 135.8 165.421H135.58C135.381 165.401 135.18 165.42 134.989 165.478C134.798 165.536 134.62 165.632 134.467 165.759C134.313 165.887 134.186 166.044 134.094 166.221C134.002 166.398 133.946 166.592 133.93 166.791C133.925 166.845 133.925 166.898 133.93 166.951" fill="white"/>
<path d="M138.79 189.851C138.79 193.091 137.58 194.851 135.47 194.851C133.6 194.851 132.34 193.101 132.31 189.941C132.28 186.781 133.69 184.941 135.63 184.941C137.57 184.941 138.79 186.731 138.79 189.781M133.6 189.921C133.6 192.411 134.37 193.821 135.54 193.821C136.86 193.821 137.54 192.281 137.54 189.821C137.54 187.361 136.94 185.921 135.6 185.921C134.46 185.921 133.6 187.301 133.6 189.921Z" fill="white"/>
<path d="M154.53 173.281C154.863 173.313 155.197 173.313 155.53 173.281C156.276 173.19 156.975 172.868 157.53 172.361C158.232 171.682 158.677 170.781 158.79 169.811C158.418 170.25 157.923 170.566 157.37 170.721C156.816 170.876 156.229 170.861 155.684 170.679C155.139 170.498 154.66 170.157 154.31 169.701C153.96 169.245 153.755 168.695 153.72 168.121V167.901C153.687 167.033 154.001 166.187 154.592 165.55C155.182 164.912 156.002 164.535 156.87 164.501H156.99C158.99 164.501 160.15 166.081 160.15 168.501C160.193 169.323 160.07 170.144 159.786 170.916C159.502 171.688 159.065 172.394 158.5 172.991C157.739 173.711 156.762 174.161 155.72 174.271C155.326 174.33 154.928 174.353 154.53 174.341V173.281ZM155 167.781C154.953 168.264 155.099 168.746 155.406 169.121C155.714 169.496 156.157 169.733 156.64 169.781H156.84C157.214 169.796 157.585 169.712 157.915 169.536C158.246 169.36 158.523 169.1 158.72 168.781C158.805 168.64 158.846 168.476 158.84 168.311C158.84 166.681 158.24 165.431 156.84 165.431C156.561 165.455 156.29 165.536 156.044 165.667C155.797 165.798 155.579 165.978 155.403 166.196C155.228 166.413 155.098 166.664 155.022 166.933C154.946 167.202 154.925 167.484 154.96 167.761" fill="white"/>
<path d="M115.32 152.991V150.391H110.89V149.541L115.15 143.441H116.55V149.381H117.89V150.381H116.55V152.981L115.32 152.991ZM115.32 149.381V146.191C115.32 145.691 115.32 145.191 115.37 144.691H115.32C115.03 145.241 114.8 145.691 114.53 146.101L112.19 149.341L115.32 149.381Z" fill="white"/>
<path d="M138.14 144.522H134.5L134.13 146.982C134.388 146.942 134.649 146.922 134.91 146.922C135.63 146.903 136.342 147.079 136.97 147.432C137.398 147.68 137.751 148.04 137.991 148.473C138.231 148.906 138.348 149.397 138.33 149.892C138.325 150.326 138.234 150.756 138.063 151.155C137.892 151.555 137.643 151.917 137.332 152.22C137.021 152.524 136.653 152.764 136.25 152.925C135.846 153.086 135.415 153.167 134.98 153.162H134.78C133.948 153.184 133.125 152.98 132.4 152.572L132.72 151.572C133.336 151.904 134.021 152.085 134.72 152.102C135 152.121 135.281 152.084 135.547 151.993C135.813 151.903 136.058 151.76 136.268 151.574C136.478 151.388 136.65 151.162 136.772 150.909C136.894 150.656 136.965 150.382 136.98 150.102C136.98 150.102 136.98 150.022 136.98 149.972C136.98 148.742 136.14 147.862 134.23 147.862C133.785 147.865 133.341 147.898 132.9 147.962L133.52 143.372H138.09L138.14 144.522Z" fill="white"/>
<path d="M159.24 144.352C158.906 144.331 158.57 144.348 158.24 144.402C157.387 144.521 156.599 144.92 155.996 145.535C155.394 146.15 155.012 146.947 154.91 147.801C155.148 147.502 155.442 147.252 155.776 147.066C156.11 146.881 156.478 146.763 156.858 146.719C157.237 146.675 157.622 146.707 157.99 146.812C158.357 146.917 158.701 147.094 159 147.332C159.362 147.627 159.651 148.004 159.842 148.431C160.033 148.858 160.121 149.324 160.1 149.792C160.141 150.633 159.85 151.457 159.288 152.086C158.727 152.715 157.941 153.097 157.1 153.152H156.95C154.95 153.152 153.57 151.572 153.57 149.082C153.544 148.293 153.674 147.508 153.952 146.77C154.23 146.032 154.651 145.357 155.19 144.782C156.019 143.982 157.094 143.485 158.24 143.372C158.554 143.32 158.872 143.293 159.19 143.292L159.24 144.352ZM158.87 149.862C158.904 149.608 158.887 149.35 158.82 149.103C158.754 148.856 158.64 148.625 158.483 148.422C158.327 148.219 158.133 148.05 157.911 147.923C157.689 147.795 157.444 147.714 157.19 147.682C157.094 147.671 156.996 147.671 156.9 147.682C156.514 147.69 156.138 147.803 155.812 148.009C155.486 148.215 155.223 148.507 155.05 148.852C154.951 149.029 154.9 149.229 154.9 149.432C154.9 151.002 155.65 152.161 157 152.161C158.12 152.161 158.87 151.232 158.87 149.872" fill="white"/>
<path d="M114.12 124.332L112.45 125.232L112.2 124.232L114.32 123.122H115.42V132.672H114.12V124.332Z" fill="white"/>
<path d="M132.44 132.681V131.881L133.44 130.881C135.88 128.561 136.99 127.321 137 125.881C137.048 125.433 136.915 124.984 136.632 124.634C136.349 124.283 135.938 124.059 135.49 124.011H135.1C134.362 124.051 133.658 124.336 133.1 124.821L132.69 123.911C133.445 123.272 134.401 122.918 135.39 122.911C136.1 122.85 136.806 123.072 137.353 123.53C137.9 123.987 138.244 124.642 138.31 125.351V125.691C138.31 127.451 137.03 128.881 135.01 130.821L134.25 131.521H138.54V132.601L132.44 132.681Z" fill="white"/>
<path d="M154.09 131.191C154.732 131.574 155.463 131.781 156.21 131.791C157.87 131.791 158.38 130.791 158.37 129.941C158.37 128.601 157.15 128.031 155.9 128.031H155.18V127.031H155.9C156.84 127.031 158.03 126.551 158.03 125.411C158.03 124.651 157.55 123.971 156.36 123.971C155.671 123.991 155.003 124.214 154.44 124.611L154.11 123.611C154.855 123.132 155.724 122.878 156.61 122.881C158.49 122.881 159.34 124.001 159.34 125.161C159.331 125.677 159.155 126.175 158.837 126.581C158.519 126.987 158.078 127.279 157.58 127.411C158.169 127.497 158.708 127.792 159.099 128.242C159.49 128.691 159.707 129.266 159.71 129.861C159.71 131.391 158.52 132.731 156.22 132.731C155.35 132.738 154.495 132.513 153.74 132.081L154.09 131.191Z" fill="white"/>
<path d="M115.59 193.462C115.59 193.689 115.523 193.911 115.396 194.1C115.27 194.29 115.09 194.437 114.88 194.524C114.67 194.611 114.439 194.634 114.216 194.589C113.993 194.545 113.788 194.436 113.627 194.275C113.466 194.114 113.357 193.909 113.312 193.686C113.268 193.463 113.291 193.232 113.378 193.021C113.465 192.811 113.612 192.632 113.801 192.505C113.99 192.379 114.213 192.312 114.44 192.312C114.591 192.31 114.742 192.339 114.882 192.396C115.022 192.454 115.149 192.538 115.256 192.645C115.363 192.752 115.448 192.88 115.505 193.02C115.563 193.16 115.591 193.31 115.59 193.462Z" fill="white"/>
<path d="M184.4 138.491H178.32V132.421H176.76V138.491H170.69V140.051H176.76V146.121H178.32V140.061H184.38L184.4 138.491Z" fill="white"/>
<path d="M160.55 193.442L157.32 190.232L160.53 187.022L159.71 186.202L156.5 189.412L153.32 186.202L152.49 187.022L155.7 190.232L152.49 193.442L153.32 194.272L156.53 191.062L159.74 194.272L160.55 193.442Z" fill="white"/>
<path d="M182.27 168.731H172.11V170.281H182.27V168.731Z" fill="white"/>
<path d="M182.64 186.711H172.48V188.261H182.64V186.711Z" fill="white"/>
<path d="M182.64 190.622H172.48V192.172H182.64V190.622Z" fill="white"/>
<path d="M144.18 85.4015V86.7315L147.18 87.5115L147.27 84.5815L144.18 85.4015Z" fill="#FFC0BB"/>
<path d="M151 85.1214V86.7014C151 86.7014 153.89 87.5714 153.88 87.5814C153.87 87.5914 154.11 84.9814 154.11 84.9814L151 85.1214Z" fill="#FFC0BB"/>
<path d="M133.32 23.6217L132.76 27.1217L131.59 22.5117C131.59 22.5117 133.22 21.7217 133.29 22.0117C133.325 22.5612 133.325 23.1123 133.29 23.6617" fill="#2C3A64"/>
<path d="M124.04 31.0615L123.54 37.0615L128.82 36.8015L128.21 31.5115L124.04 31.0615Z" fill="#FFC0BB"/>
<path d="M128.49 34.0115L128.21 31.4915L124.04 31.0615L123.87 33.1215C124.464 33.7136 125.221 34.114 126.045 34.2709C126.869 34.4277 127.72 34.3339 128.49 34.0015" fill="#F99893"/>
<path d="M131.72 27.0317C131.673 27.2295 131.683 27.4363 131.749 27.6286C131.815 27.8208 131.933 27.9907 132.091 28.1186C132.249 28.2466 132.439 28.3274 132.641 28.3519C132.843 28.3764 133.047 28.3435 133.231 28.257C133.415 28.1705 133.571 28.0339 133.68 27.8629C133.79 27.6919 133.849 27.4935 133.851 27.2903C133.853 27.0872 133.798 26.8876 133.691 26.7145C133.585 26.5414 133.432 26.4018 133.25 26.3117C132.951 26.2108 132.625 26.2295 132.34 26.3637C132.055 26.4979 131.833 26.7373 131.72 27.0317Z" fill="#F99893"/>
<path d="M131.32 30.9616C131.502 30.6771 131.662 30.3796 131.8 30.0716C132.149 29.2527 132.391 28.3923 132.52 27.5116C132.536 27.3411 132.573 27.1732 132.63 27.0116C132.805 26.2926 132.836 25.5463 132.722 24.8152C132.608 24.0841 132.352 23.3825 131.967 22.7506C131.582 22.1187 131.076 21.5688 130.479 21.1323C129.882 20.6958 129.204 20.3812 128.485 20.2066C127.766 20.0319 127.02 20.0006 126.289 20.1144C125.558 20.2282 124.856 20.4848 124.224 20.8697C123.592 21.2546 123.042 21.7602 122.606 22.3576C122.169 22.9551 121.855 23.6326 121.68 24.3516C121.599 24.6795 121.549 25.0143 121.53 25.3516C121.374 25.2406 121.194 25.1682 121.004 25.1403C120.815 25.1125 120.621 25.1301 120.44 25.1916C120.115 25.4021 119.872 25.717 119.751 26.0844C119.63 26.4517 119.637 26.8495 119.772 27.212C119.907 27.5745 120.162 27.8801 120.495 28.0782C120.827 28.2763 121.217 28.3551 121.6 28.3016C121.692 28.2614 121.779 28.2111 121.86 28.1516C121.887 29.4752 122.41 30.7405 123.324 31.6977C124.239 32.6548 125.479 33.2343 126.8 33.3216C128.084 33.3891 129.345 32.9593 130.32 32.1216L130.52 31.9516C130.832 31.6545 131.104 31.3184 131.33 30.9516" fill="#FFC0BB"/>
<path d="M126.95 59.1216C126.95 59.1216 125.85 66.5816 133.06 67.8816C138.41 68.6894 143.823 68.994 149.23 68.7916L150.48 85.9316L154.24 86.1216C154.24 86.1216 163.93 62.3116 150.52 58.5916L138.52 58.6516L133.52 58.2916C133.52 58.2916 128.52 57.0516 128.43 57.2916C128.34 57.5316 127.08 59.2916 126.96 59.1316" fill="#163744"/>
<path d="M120.32 59.1213C120.32 59.1213 119.22 66.5813 126.43 67.8813C131.78 68.6888 137.193 68.9935 142.6 68.7913L143.85 85.9313L147.62 86.1213C147.62 86.1213 157.32 62.3213 143.89 58.6013L131.89 58.6613L126.89 58.3013C126.89 58.3013 121.89 57.0613 121.81 57.3013C121.73 57.5413 120.44 59.2513 120.32 59.1213Z" fill="#193C4A"/>
<path d="M129.4 34.6516C129.4 34.6516 134.4 35.2816 135.63 36.3116C136.86 37.3416 142.95 52.3816 142.95 52.3816L137.95 58.2916L127.24 58.3616C127.24 58.3616 119.24 62.7016 114.16 58.6016C109.08 54.5016 111.72 40.2516 114.63 37.1716C117.54 34.0916 122.75 34.1716 122.75 34.1716C122.75 34.1716 127.47 37.4816 129.45 34.6416" fill="#098AD3"/>
<path d="M119.79 42.1218C119.96 42.9405 120.08 43.7687 120.15 44.6018C120.15 45.0218 120.21 45.4418 120.24 45.8618C120.27 46.2818 120.24 46.7018 120.24 47.1218C120.238 47.9624 120.172 48.8016 120.04 49.6318C119.92 50.4688 119.671 51.2819 119.3 52.0418C119.549 51.2479 119.713 50.4301 119.79 49.6018C119.88 48.7718 119.91 47.9418 119.92 47.1118C119.93 46.2818 119.92 45.4518 119.92 44.6118C119.92 43.7718 119.85 42.9518 119.81 42.1118" fill="#0053C9"/>
<path d="M134.64 41.5818C134.87 42.8018 135.11 44.0218 135.35 45.2318C135.59 46.4418 135.86 47.6618 136.15 48.8618C136.44 50.0618 136.76 51.2518 137.15 52.4218C137.345 52.9993 137.568 53.5667 137.82 54.1218C138.062 54.6896 138.382 55.2213 138.77 55.7018C138.332 55.2564 137.965 54.7473 137.68 54.1918C137.387 53.6388 137.13 53.0676 136.91 52.4818C136.69 51.9018 136.5 51.3018 136.31 50.7118C136.12 50.1218 135.98 49.5118 135.83 48.9118C135.68 48.3118 135.55 47.7018 135.43 47.0918C135.31 46.4818 135.19 45.8718 135.1 45.2518C134.9 44.0318 134.74 42.8018 134.63 41.5518" fill="#0053C9"/>
<path d="M137.13 54.8813C137.13 54.6313 135.21 54.3513 134.51 54.3113C133.99 54.3113 130.51 54.1713 129.3 54.1113L129.39 54.4213V55.7713L129.19 56.6613C130.19 56.7313 132.78 56.8313 133.32 56.9413C133.98 57.1137 134.625 57.3377 135.25 57.6113C135.25 57.6113 135.77 57.4913 135.12 57.2113C134.72 57.0404 134.361 56.7845 134.07 56.4613C133.98 56.3613 134.07 56.1913 134.15 56.2013C135.92 56.6713 136.1 56.7413 136.1 56.7413C136.1 56.7413 138.18 56.7413 136.1 56.2613C134.86 55.9813 134.42 55.8213 134.3 55.6813C134.277 55.6596 134.261 55.6312 134.255 55.6002C134.249 55.5691 134.253 55.5369 134.266 55.5082C134.28 55.4794 134.302 55.4556 134.329 55.44C134.357 55.4244 134.388 55.4179 134.42 55.4213C135.49 55.3513 137.42 55.7313 136.89 55.4813C136.137 55.2418 135.364 55.0711 134.58 54.9713C134.58 54.9713 134.49 54.7713 134.64 54.7613C135.64 54.6713 137.17 55.1013 137.14 54.8713" fill="#FFC0BB"/>
<path d="M118.58 51.8515C119.02 51.9615 119.45 52.0815 119.88 52.1715L121.19 52.4415C122.07 52.6015 122.95 52.7515 123.83 52.8715C124.71 52.9915 125.6 53.0915 126.49 53.1815C127.38 53.2715 128.28 53.3415 129.15 53.3915H129.32V53.4915C129.389 53.7818 129.442 54.0755 129.48 54.3715C129.512 54.6671 129.528 54.9642 129.53 55.2615C129.528 55.5632 129.501 55.8642 129.45 56.1615C129.397 56.4573 129.31 56.7459 129.19 57.0215L128.19 57.6815L127.19 58.3215L128.12 57.6015L129.04 56.8815C129.141 56.6141 129.208 56.3353 129.24 56.0515C129.277 55.7663 129.294 55.479 129.29 55.1915C129.278 54.9069 129.251 54.6232 129.21 54.3415C129.17 54.0584 129.113 53.7779 129.04 53.5015L129.18 53.6115L127.83 53.5315L126.49 53.4215C125.6 53.3215 124.71 53.2215 123.82 53.0715C122.93 52.9215 122.05 52.7515 121.18 52.5515C120.74 52.4415 120.31 52.3315 119.88 52.2015L118.6 51.7715" fill="#0053C9"/>
<path d="M159.55 44.8516H140.17L134.67 58.2616H127.99C127.866 58.2708 127.749 58.3243 127.661 58.4124C127.573 58.5005 127.519 58.6173 127.51 58.7416C127.513 58.8671 127.564 58.9867 127.654 59.0745C127.744 59.1624 127.864 59.2116 127.99 59.2116H153.11L159.55 44.8516Z" fill="#FFC53E"/>
<path d="M149.94 52.5116C149.882 52.6819 149.776 52.8318 149.635 52.9434C149.493 53.0549 149.323 53.1234 149.144 53.1407C148.965 53.1579 148.784 53.1231 148.625 53.0405C148.465 52.9578 148.332 52.8309 148.242 52.6748C148.153 52.5187 148.11 52.3401 148.12 52.1603C148.129 51.9806 148.19 51.8074 148.295 51.6614C148.4 51.5155 148.546 51.4029 148.713 51.3373C148.881 51.2717 149.064 51.2559 149.24 51.2916C149.494 51.3618 149.71 51.5293 149.841 51.7577C149.972 51.9861 150.007 52.257 149.94 52.5116Z" fill="#EEFBFF"/>
<path d="M133.42 20.3516C133.42 20.3516 135.07 20.4016 133.33 19.0016C131.59 17.6016 126.93 16.0016 123.95 17.5416C123.95 17.5416 123.35 16.2716 122.49 16.5416C121.63 16.8116 123.05 17.7216 123.05 17.7216C123.05 17.7216 121.95 17.7216 121.61 18.2316C121.27 18.7416 122.04 18.6416 122.41 18.6316C121.78 18.7316 119.41 20.2516 120.58 25.1116C121.01 25.0116 123.46 21.4616 123.46 21.4616C123.46 21.4616 129.06 24.5716 128.46 22.1016C128.46 22.1016 134.26 25.7216 133.46 22.7316C133.46 22.7316 135.7 22.8916 133.4 20.3216" fill="#235347"/>
<path d="M120.57 25.1718C120.742 25.1162 120.926 25.1083 121.102 25.1488C121.278 25.1893 121.44 25.2767 121.57 25.4018C122.07 25.8018 122.02 27.1818 122.02 27.1818C122.02 27.1818 124.39 28.7218 124.14 22.1818C123.88 15.2718 122.14 22.7318 122.14 22.7318L120.57 25.1718Z" fill="#235347"/>
<path d="M58.66 37.3315L71.75 55.1215L67.02 57.3615L72.75 71.6615L58.63 55.2515L64.18 53.0615L58.66 37.3315Z" fill="#FFC53E"/>
<path d="M50.64 85.1816L60.51 99.1816L63.32 96.2116L72.45 103.922L63.82 89.5316L60.82 93.0816L50.64 85.1816Z" fill="#FFC53E"/>
<path d="M87.12 47.4717L85.54 60.1217L88.54 59.9217L89.68 68.7317L92.16 56.5017L88.75 56.9617L87.12 47.4717Z" fill="#FFC53E"/>
<path d="M50.63 159.122L53.63 157.262L56.23 158.842L55.32 159.482L52.16 159.932C52.16 159.932 50.93 159.772 50.88 159.732C50.7698 159.538 50.6793 159.334 50.61 159.122" fill="#FFC0BB"/>
<path d="M50.63 159.122L49.87 159.612C49.7939 159.661 49.7355 159.733 49.7035 159.818C49.6715 159.903 49.6675 159.995 49.6921 160.083C49.7167 160.17 49.7686 160.247 49.8402 160.303C49.9119 160.358 49.9994 160.389 50.09 160.392H55.87C55.9181 160.393 55.966 160.385 56.0109 160.367C56.0557 160.35 56.0966 160.323 56.1311 160.29C56.1656 160.256 56.193 160.216 56.2117 160.172C56.2304 160.127 56.24 160.08 56.24 160.032V158.812C52.38 160.022 51.05 159.642 50.62 159.102" fill="#0DD967"/>
<path d="M63.32 159.212L66.32 157.352L68.92 158.922L68.01 159.572L64.85 160.022C64.85 160.022 63.62 159.862 63.57 159.822C63.4639 159.626 63.3737 159.422 63.3 159.212" fill="#FFC0BB"/>
<path d="M63.32 159.211L62.55 159.701C62.4579 159.763 62.3929 159.857 62.3687 159.965C62.3445 160.073 62.3629 160.187 62.42 160.281C62.4581 160.34 62.51 160.387 62.5711 160.421C62.6322 160.454 62.7005 160.471 62.77 160.471H68.55C68.599 160.473 68.6477 160.464 68.6932 160.446C68.7388 160.428 68.7801 160.401 68.8147 160.366C68.8494 160.331 68.8766 160.29 68.8947 160.245C68.9128 160.199 68.9214 160.15 68.92 160.101V158.921C65.06 160.131 63.74 159.751 63.31 159.211" fill="#0DD967"/>
<path d="M92.8499 108.002C93.4553 107.643 94.1461 107.453 94.8499 107.453C95.5538 107.453 96.2446 107.643 96.8499 108.002C98.9699 109.222 98.9699 113.322 98.1399 114.302C97.3099 115.282 98.1399 116.622 96.5099 117.902C94.8799 119.182 92.1899 119.652 90.6699 118.152C89.1499 116.652 90.2699 113.312 90.2699 113.312L92.8499 108.002Z" fill="#2C3A64"/>
<path d="M69.43 121.672C69.4246 121.686 69.4163 121.699 69.4056 121.71C69.395 121.72 69.3822 121.729 69.3681 121.735C69.354 121.74 69.3389 121.743 69.3238 121.742C69.3086 121.742 69.2937 121.738 69.28 121.732C68.7303 120.849 68.0718 120.04 67.32 119.322C67.11 119.402 68.23 121.092 68.11 121.252C67.99 121.412 66.93 119.742 66.72 119.872C66.51 120.002 67.52 121.492 67.46 121.572C67.4 121.652 66.32 120.322 66.13 120.322C65.94 120.322 66.99 121.892 66.93 122.012C66.87 122.132 65.81 121.292 65.73 121.382C65.65 121.472 65.58 121.502 67.43 124.092C67.43 124.092 68.24 124.902 68.29 125.232L69.29 125.542L70.29 124.542C70.29 124.542 70.39 120.442 70.29 120.352C70.19 120.262 70.04 120.352 69.5 121.652" fill="#FFC0BB"/>
<path d="M72.9299 146.191L69.1399 159.121L64.5699 157.841L66.0899 146.981L70.8199 143.731L72.9299 146.191Z" fill="#163744"/>
<path d="M87.71 119.642C87.71 119.642 79.77 129.412 78.42 130.962L70.42 123.022C69.5192 123.522 68.6942 124.148 67.97 124.882C67.97 124.882 71.21 132.382 73.97 134.342L79.56 138.122L78.49 140.672L80.49 142.222L81.49 139.702L84.38 133.322L87.1 124.822L87.62 120.612L87.71 119.642Z" fill="#098AD3"/>
<path d="M87.6699 120.612C87.6699 120.612 84.3199 126.062 83.6699 128.172C83.0199 130.282 83.5299 130.442 83.2199 133.002C82.9099 135.562 80.5599 142.392 80.5599 142.392L84.4599 145.012C84.4599 145.012 86.5699 138.282 86.5699 138.012C86.5699 137.742 88.5699 125.412 88.5699 125.412L90.1899 120.812L87.6699 120.612Z" fill="#EEFBFF"/>
<path d="M84.0499 144.741C84.0499 144.741 77.3499 138.741 72.1699 137.521C66.9899 136.301 53.0699 157.321 53.0699 157.321L56.3999 159.721C56.3999 159.721 68.4 151.061 70.7299 147.191C70.7299 147.191 80.5099 160.101 83.7899 160.411C87.0699 160.721 90.7899 160.031 95.1299 154.791C100.07 148.841 84.0499 144.791 84.0499 144.791" fill="#193C4A"/>
<path d="M90.7099 115.291L92.1899 119.291C92.1899 119.291 91.1199 121.741 87.5199 120.831C87.7455 119.978 87.6641 119.072 87.2899 118.271C86.6599 116.521 90.7099 115.271 90.7099 115.271" fill="#FFC0BB"/>
<g opacity="0.6">
<mask id="mask6_106_3544" style="mask-type:luminance" maskUnits="userSpaceOnUse" x="87" y="115" width="5" height="5">
<path d="M91.4 115.292H87.22V119.922H91.4V115.292Z" fill="white"/>
</mask>
<g mask="url(#mask6_106_3544)">
<path d="M90.7099 115.291L91.4099 117.161C91.0899 118.561 89.9099 119.551 87.6299 119.921C87.6067 119.357 87.4918 118.799 87.2899 118.271C86.6699 116.531 90.7099 115.271 90.7099 115.271" fill="#FC8D84"/>
</g>
</g>
<path d="M70.1299 143.271C70.0698 143.601 70.0397 143.936 70.0399 144.271C70.0417 144.606 70.0685 144.941 70.1199 145.271C70.1723 145.609 70.2458 145.943 70.3399 146.271C70.425 146.613 70.5353 146.947 70.6699 147.271L70.7499 147.211C70.5713 147.086 70.4009 146.949 70.2399 146.801C70.0699 146.651 69.9099 146.501 69.7599 146.341L69.3299 145.841C69.1899 145.671 69.0599 145.481 68.9299 145.301C69.0382 145.495 69.1584 145.682 69.2899 145.861C69.4199 146.041 69.5599 146.221 69.7099 146.391C69.8529 146.561 70.0065 146.721 70.1699 146.871C70.3337 147.026 70.5074 147.17 70.6899 147.301L70.8399 147.401L70.7699 147.231C70.6499 146.921 70.5399 146.611 70.4499 146.291C70.3519 145.963 70.2751 145.629 70.2199 145.291C70.1599 144.961 70.1198 144.627 70.0999 144.291C70.075 143.959 70.075 143.624 70.0999 143.291" fill="white"/>
<path d="M82.45 112.622C82.4959 112.818 82.4855 113.023 82.4199 113.213C82.3542 113.404 82.2361 113.572 82.079 113.698C81.922 113.824 81.7324 113.903 81.5323 113.926C81.3322 113.949 81.1296 113.915 80.948 113.828C80.7664 113.741 80.6131 113.604 80.5059 113.434C80.3987 113.263 80.342 113.066 80.3422 112.864C80.3424 112.663 80.3995 112.466 80.5071 112.295C80.6146 112.125 80.7682 111.988 80.95 111.902C81.2446 111.805 81.5654 111.825 81.845 111.959C82.1247 112.094 82.3415 112.331 82.45 112.622Z" fill="#F99893"/>
<path d="M82.89 116.502C82.708 116.223 82.5507 115.928 82.42 115.622C82.0728 114.816 81.8308 113.969 81.7 113.102C81.6821 112.932 81.6487 112.765 81.6 112.602C81.4183 111.889 81.3798 111.147 81.4867 110.419C81.5936 109.691 81.8438 108.992 82.2228 108.361C82.6018 107.731 83.1021 107.182 83.6948 106.746C84.2875 106.31 84.9607 105.996 85.6755 105.822C86.3904 105.648 87.1326 105.618 87.8592 105.733C88.5859 105.848 89.2825 106.106 89.9089 106.491C90.5352 106.877 91.0787 107.384 91.5081 107.981C91.9374 108.578 92.244 109.255 92.41 109.972C92.4918 110.3 92.5421 110.634 92.56 110.972C92.7152 110.863 92.8937 110.792 93.0811 110.764C93.2686 110.736 93.46 110.753 93.64 110.812C94.011 111.059 94.2695 111.442 94.3594 111.878C94.4493 112.314 94.3633 112.769 94.12 113.142C93.9475 113.408 93.7022 113.619 93.4133 113.75C93.1244 113.881 92.804 113.927 92.49 113.882C92.3965 113.849 92.3088 113.802 92.23 113.742C92.2052 115.048 91.6909 116.296 90.789 117.241C89.887 118.185 88.6633 118.757 87.36 118.842C86.0944 118.899 84.8542 118.474 83.89 117.652L83.69 117.482C83.3774 117.188 83.108 116.851 82.89 116.482" fill="#FFC0BB"/>
<path d="M80.82 122.862C82.0659 125.98 82.3605 129.397 81.6666 132.682C80.9727 135.968 79.3214 138.974 76.9209 141.322C74.5205 143.67 71.4784 145.255 68.1785 145.876C64.8785 146.497 61.4686 146.127 58.3787 144.813C55.2888 143.498 52.6573 141.298 50.8163 138.49C48.9753 135.682 48.0072 132.391 48.0341 129.033C48.061 125.676 49.0817 122.401 50.9674 119.623C52.8531 116.844 55.5194 114.686 58.63 113.422C60.7068 112.584 62.9283 112.164 65.1675 112.185C67.4067 112.207 69.6197 112.669 71.6803 113.545C73.7409 114.422 75.6086 115.696 77.1768 117.294C78.745 118.893 79.983 120.785 80.82 122.862Z" fill="#FFB93E"/>
<path d="M79.2301 123.502C80.5529 126.794 80.6938 130.442 79.6287 133.827C78.5636 137.211 76.3584 140.121 73.3885 142.062C70.4187 144.003 66.8679 144.855 63.3408 144.472C59.8137 144.089 56.5283 142.495 54.0442 139.962C51.56 137.429 50.0306 134.113 49.7165 130.58C49.4024 127.046 50.3229 123.512 52.3213 120.581C54.3198 117.649 57.2725 115.501 60.6768 114.502C64.0811 113.503 67.7264 113.715 70.9921 115.102C72.8507 115.89 74.5353 117.038 75.949 118.48C77.3627 119.921 78.4777 121.628 79.2301 123.502Z" fill="#FFC53E"/>
<path d="M70.3701 142.551C67.7334 143.605 64.8436 143.853 62.0658 143.265C59.2881 142.676 56.7472 141.278 54.7642 139.245C52.7812 137.213 51.4452 134.639 50.925 131.847C50.4048 129.056 50.7237 126.173 51.8415 123.563C52.9593 120.953 54.8258 118.733 57.2051 117.183C59.5843 115.634 62.3695 114.824 65.2087 114.857C68.0479 114.89 70.8136 115.764 73.1562 117.369C75.4988 118.973 77.3132 121.236 78.3701 123.871C79.0726 125.623 79.4228 127.496 79.4009 129.383C79.379 131.27 78.9853 133.135 78.2423 134.87C77.4993 136.605 76.4216 138.176 75.0708 139.494C73.72 140.812 72.1226 141.851 70.3701 142.551ZM59.84 116.411C57.3034 117.435 55.1272 119.188 53.5867 121.448C52.0462 123.708 51.2106 126.375 51.1855 129.11C51.1604 131.845 51.9469 134.526 53.4457 136.814C54.9444 139.103 57.088 140.895 59.6054 141.965C62.1228 143.035 64.901 143.334 67.5885 142.825C70.2761 142.316 72.7524 141.022 74.7042 139.105C76.656 137.189 77.9957 134.737 78.5539 132.059C79.1121 129.381 78.8636 126.598 77.84 124.061C76.4675 120.66 73.8 117.943 70.4244 116.509C67.0487 115.074 63.2415 115.039 59.84 116.411Z" fill="#FFA412"/>
<mask id="mask7_106_3544" style="mask-type:luminance" maskUnits="userSpaceOnUse" x="58" y="119" width="15" height="20">
<path d="M72.06 119.342H58.26V138.992H72.06V119.342Z" fill="white"/>
</mask>
<g mask="url(#mask7_106_3544)">
<path d="M65.53 124.122C65.321 123.784 65.0357 123.501 64.6969 123.294C64.3582 123.087 63.9755 122.963 63.58 122.932C63.5937 123.04 63.6171 123.147 63.65 123.252C64.13 124.452 64.65 125.632 65.09 126.832C65.19 127.092 65.32 127.152 65.6 127.132C66.266 127.09 66.9339 127.09 67.6 127.132C68.6094 127.142 69.5843 127.501 70.359 128.148C71.1338 128.795 71.6606 129.69 71.85 130.682C72.2125 131.772 72.1888 132.953 71.7826 134.028C71.3765 135.102 70.6128 136.004 69.62 136.582C69.23 136.852 69.18 137.082 69.38 137.472C69.5222 137.768 69.649 138.072 69.76 138.382L68.21 139.002L67.66 137.622C66.4124 137.987 65.0749 137.891 63.8923 137.351C62.7097 136.812 61.7611 135.864 61.22 134.682L63.86 133.262C64.1705 133.719 64.5726 134.108 65.0407 134.402C65.5089 134.696 66.033 134.89 66.58 134.972L65.82 133.122C65.51 132.342 65.18 131.572 64.88 130.782C64.8557 130.657 64.7832 130.548 64.6783 130.476C64.5734 130.405 64.4446 130.378 64.32 130.402C63.304 130.515 62.2756 130.385 61.32 130.022C60.4623 129.657 59.7255 129.056 59.1947 128.29C58.6638 127.524 58.3605 126.623 58.32 125.692C58.2354 124.843 58.4028 123.988 58.8012 123.234C59.1996 122.48 59.8113 121.86 60.56 121.452C60.6595 121.379 60.763 121.313 60.87 121.252L61 121.132L60.53 119.972L62.1 119.342C62.21 119.622 62.34 119.892 62.43 120.182C62.52 120.472 62.69 120.522 62.98 120.462C63.6045 120.293 64.2578 120.261 64.896 120.366C65.5342 120.471 66.1425 120.712 66.68 121.072C67.284 121.493 67.7834 122.047 68.14 122.692L65.53 124.122ZM66.53 130.242L68.2 134.392C68.6697 134.119 69.0255 133.686 69.2021 133.172C69.3786 132.658 69.3641 132.098 69.1613 131.594C68.9585 131.09 68.5809 130.676 68.0976 130.427C67.6144 130.179 67.0578 130.113 66.53 130.242ZM61.95 123.562C61.6087 123.856 61.3668 124.248 61.2576 124.685C61.1484 125.122 61.1771 125.582 61.34 126.002C61.5211 126.395 61.8188 126.723 62.1927 126.941C62.5665 127.159 62.9985 127.257 63.43 127.222L61.95 123.562Z" fill="#FFA412"/>
</g>
<path d="M71.0399 132.352C71.0481 132.366 71.0528 132.383 71.0535 132.4C71.0543 132.417 71.0512 132.433 71.0444 132.449C71.0377 132.464 71.0274 132.478 71.0145 132.489C71.0016 132.5 70.9863 132.508 70.9699 132.512C70.9589 132.516 70.947 132.519 70.9349 132.519C70.9229 132.519 70.911 132.516 70.8999 132.512C69.8173 132.232 68.7074 132.071 67.5899 132.032C67.4899 132.262 69.6599 132.762 69.6899 133.032C69.7199 133.302 67.6099 132.722 67.5299 132.982C67.4499 133.242 69.3999 133.662 69.4099 133.782C69.4199 133.902 67.5099 133.682 67.4099 133.782C67.3099 133.882 69.2799 134.382 69.3299 134.522C69.3799 134.662 67.8899 134.792 67.8899 134.922C67.8899 135.052 67.8899 135.142 71.2999 135.802L72.6699 136.002L73.8699 135.562L73.9299 134.022C72.92 132.858 71.8485 131.75 70.7199 130.702C70.5099 130.722 70.4999 130.882 71.0699 132.352" fill="#FFC0BB"/>
<path d="M92.09 118.622C92.09 118.622 98.92 126.862 97.99 141.352C97.06 155.842 96.9 155.952 96.9 155.952C94.26 155.6 91.7501 154.593 89.6 153.022C87.4592 151.381 85.1454 149.979 82.7 148.842L85.22 140.662C83.2946 140.703 81.3774 140.399 79.56 139.762C77.18 138.762 72.21 136.102 72.21 136.102C72.3806 134.996 72.6931 133.917 73.14 132.892C73.14 132.892 79.46 134.832 82.63 134.892C82.63 134.892 86.33 123.502 92.09 118.652" fill="#098AD3"/>
<path d="M91.6 121.262C90.5642 122.167 89.595 123.147 88.7 124.192C87.8012 125.236 86.9632 126.331 86.19 127.472L85.9 127.902L85.62 128.342L85.09 129.222C84.99 129.372 84.92 129.522 84.83 129.672L84.59 130.122L84.34 130.582C84.26 130.732 84.19 130.892 84.12 131.042L83.67 131.982L83.28 132.932L83.09 133.412L82.93 133.902C82.82 134.232 82.72 134.562 82.61 134.902C82.74 134.582 82.87 134.262 82.99 133.902L83.18 133.422L83.39 132.962L83.81 132.022L84.32 131.122L84.55 130.672L84.81 130.222L85.06 129.772C85.1392 129.621 85.226 129.474 85.32 129.332L85.86 128.462C85.94 128.312 86.04 128.172 86.13 128.032L86.42 127.602C87.18 126.472 88 125.372 88.87 124.312L89.54 123.532C89.76 123.272 89.99 123.012 90.22 122.762C90.67 122.242 91.15 121.762 91.64 121.272" fill="#0053C9"/>
<path d="M94.5499 127.012C93.9899 128.282 93.3899 129.522 92.7699 130.762C92.4499 131.382 92.1399 131.992 91.7699 132.602C91.3999 133.212 91.1099 133.812 90.7699 134.402C90.4299 134.992 90.0599 135.582 89.6699 136.152C89.4799 136.442 89.2799 136.722 89.0799 137.002C88.8878 137.289 88.6809 137.566 88.4599 137.832C88.0376 138.378 87.5764 138.892 87.0799 139.372C86.5926 139.86 86.0367 140.274 85.4299 140.602C86.0616 140.308 86.645 139.921 87.1599 139.452C87.6801 138.988 88.1617 138.483 88.5999 137.942C89.0499 137.412 89.4599 136.842 89.8499 136.282C90.2399 135.722 90.6199 135.112 90.9699 134.522C91.6799 133.322 92.3199 132.092 92.9699 130.842C93.5905 129.601 94.1315 128.321 94.5899 127.012" fill="#0053C9"/>
<path d="M81.32 106.232C82.0937 104.712 83.4164 103.543 85.02 102.962C86.6741 102.282 88.5233 102.25 90.2 102.872C94.91 104.642 93.97 109.872 93.75 110.802C93.4341 110.738 93.1059 110.795 92.83 110.962C92.688 111.033 92.5568 111.124 92.44 111.232C91.53 110.952 91.25 109.432 90.78 108.702C90.13 107.702 87.64 108.702 86.56 107.942C85.9904 107.622 85.5514 107.112 85.32 106.502C81.18 107.162 81.49 111.832 81.49 111.832C81.31 111.832 80.89 111.122 80.89 111.122C80.89 111.122 79.89 109.432 81.34 106.232" fill="#2C3A64"/>
<path d="M206.73 143.122L197.87 148.692L197.21 201.012L198.98 202.222L200.71 201.842L205.71 167.442L209.81 145.232L206.73 143.122Z" fill="#FFC0BB"/>
<path d="M224.72 194.441C222.21 187.868 218.53 181.804 213.86 176.541C213.86 176.541 215.16 173.051 216.49 161.541C217.82 150.031 212.2 142.771 212.2 142.771L202.27 145.771C202.27 145.771 207.32 175.981 208.14 177.901C208.77 179.401 216.86 190.221 220.34 194.841V194.931L221.9 196.931L223.39 198.831L225.14 198.031L225.45 195.841L224.72 194.441Z" fill="#FFC0BB"/>
<path d="M197.87 147.982C197.87 147.982 195.54 165.742 195.8 178.982C195.8 178.982 204.8 180.402 211.39 179.902L211.67 172.312L213.09 179.472C213.09 179.472 216.35 179.332 217.84 178.132C217.325 173.681 217.115 169.201 217.21 164.722C217.48 158.892 217.21 151.562 215.31 146.722C213.41 141.882 202.73 147.192 202.73 147.192L197.87 147.982Z" fill="#163744"/>
<path d="M209.87 103.251C211.097 104.23 212.019 105.538 212.53 107.021C213.05 108.911 215.39 108.581 216.85 111.101C218.47 113.901 220.78 118.101 215.49 120.921C212.2 122.671 206.97 124.031 205.79 122.841C204.61 121.651 201.79 122.131 202.41 109.681C202.41 109.681 210.14 105.311 210.22 105.281C210.144 104.609 210.031 103.941 209.88 103.281" fill="#2C3A64"/>
<path d="M199.58 138.891L200.52 134.821L198.17 128.501C197.31 131.733 196.235 134.904 194.95 137.991L187.85 138.861L186.32 139.121C186.32 139.121 196.03 144.661 198.66 140.581L199.12 140.691L199.37 139.611C199.51 139.379 199.621 139.131 199.7 138.871L199.58 138.891Z" fill="#24B5E9"/>
<path d="M208.61 116.842L208.42 119.842L204.34 120.692H203.62L203.77 117.112L208.09 115.582L208.61 116.842Z" fill="#FFC0BB"/>
<path d="M202.21 121.632C202.03 123.632 202.86 124.012 202.86 124.012L209.01 119.452C205.19 119.822 202.72 120.232 202.72 120.232C202.72 120.232 202.41 121.692 202.21 121.632Z" fill="#FFC0BB"/>
<path d="M212.42 110.341C212.42 110.341 213.68 105.181 210.69 103.251C209.479 102.421 208.067 101.93 206.602 101.832C205.136 101.733 203.671 102.03 202.36 102.691C200.2 103.851 198.9 107.881 199.87 110.191L207.05 107.991L212.42 110.341Z" fill="#2C3A64"/>
<path d="M208.69 116.062C208.69 116.062 208.61 116.932 208.53 118.012C206.98 119.712 204.07 119.132 203.69 119.012V117.372L208.69 116.062Z" fill="#F99893"/>
<path d="M200.81 111.121C200.837 111.327 200.805 111.536 200.719 111.724C200.632 111.912 200.494 112.072 200.32 112.185C200.147 112.298 199.945 112.36 199.738 112.364C199.531 112.367 199.327 112.312 199.15 112.205C198.972 112.098 198.829 111.942 198.736 111.757C198.643 111.572 198.604 111.364 198.624 111.158C198.644 110.952 198.722 110.756 198.849 110.592C198.975 110.428 199.146 110.303 199.34 110.231C199.653 110.161 199.98 110.215 200.254 110.38C200.528 110.546 200.727 110.812 200.81 111.121Z" fill="#F99893"/>
<path d="M200.87 115.122C200.698 114.805 200.564 114.469 200.47 114.122C200.192 113.263 200.028 112.373 199.98 111.472C199.98 111.292 199.98 111.122 199.98 110.942C199.832 109.471 200.259 108 201.172 106.838C202.085 105.675 203.412 104.911 204.876 104.706C206.339 104.5 207.826 104.869 209.023 105.735C210.221 106.601 211.037 107.897 211.3 109.352C211.35 109.683 211.37 110.017 211.36 110.352C211.527 110.253 211.715 110.197 211.909 110.188C212.102 110.179 212.295 110.218 212.47 110.302C212.648 110.442 212.796 110.616 212.906 110.814C213.016 111.012 213.086 111.23 213.111 111.455C213.136 111.68 213.116 111.908 213.053 112.126C212.989 112.343 212.883 112.546 212.74 112.722C212.536 112.975 212.264 113.166 211.956 113.272C211.649 113.379 211.317 113.396 211 113.322C210.904 113.281 210.816 113.223 210.74 113.152C210.583 114.486 209.93 115.713 208.912 116.589C207.893 117.465 206.583 117.926 205.24 117.882C203.942 117.813 202.719 117.251 201.82 116.312C201.752 116.254 201.688 116.19 201.63 116.122C201.347 115.822 201.105 115.486 200.91 115.122" fill="#FFC0BB"/>
<path d="M215.67 128.332C215.534 128.196 215.41 128.049 215.3 127.892C215.187 127.738 215.084 127.577 214.99 127.412C214.9 127.242 214.81 127.062 214.74 126.892C214.663 126.709 214.596 126.522 214.54 126.332C214.568 126.528 214.611 126.722 214.67 126.912C214.697 127.007 214.731 127.1 214.77 127.192C214.77 127.282 214.85 127.372 214.89 127.462C214.978 127.638 215.078 127.809 215.19 127.972C215.279 128.104 215.379 128.227 215.49 128.342C215.39 128.351 215.29 128.351 215.19 128.342C215.05 128.356 214.91 128.356 214.77 128.342H214.56C214.491 128.332 214.423 128.312 214.36 128.282C214.223 128.235 214.092 128.171 213.97 128.092C214.079 128.192 214.204 128.273 214.34 128.332C214.472 128.402 214.613 128.453 214.76 128.482C214.906 128.502 215.054 128.502 215.2 128.482C215.35 128.496 215.5 128.496 215.65 128.482H215.76L215.67 128.332Z" fill="white"/>
<path d="M204.02 110.931C203.869 111.175 203.735 111.429 203.62 111.691C203.499 111.953 203.399 112.224 203.32 112.501C203.278 112.641 203.251 112.786 203.24 112.931V113.191H203.29L203.38 113.251C203.506 113.326 203.64 113.386 203.78 113.431C203.916 113.482 204.057 113.519 204.2 113.541C203.941 113.432 203.693 113.298 203.46 113.141L203.38 113.081C203.365 113.029 203.365 112.974 203.38 112.921C203.396 112.786 203.423 112.652 203.46 112.521C203.54 112.251 203.63 111.981 203.72 111.711C203.81 111.441 203.91 111.181 203.99 110.901" fill="#F99893"/>
<path d="M214.69 136.862C215.164 134.067 215.498 131.25 215.69 128.422C215.69 127.422 214.54 126.022 214.48 125.232C213.977 124.829 213.579 124.311 213.32 123.722L211.54 120.032L210.36 119.452C209.902 119.392 209.438 119.392 208.98 119.452L205.93 121.752C205.51 122.059 204.986 122.19 204.471 122.117C203.955 122.044 203.489 121.773 203.17 121.362C202.931 121.035 202.792 120.646 202.77 120.242C200.1 122.392 198.3 123.352 197.93 126.802C197.67 129.202 198.93 131.242 199.12 133.532L197.92 147.992C203.744 148.039 209.563 147.618 215.32 146.732C214.845 143.467 214.634 140.17 214.69 136.872" fill="#098AD3"/>
<path d="M197.03 147.342L186.5 147.982C186.158 147.989 185.822 147.898 185.53 147.721C185.238 147.544 185.002 147.288 184.85 146.982L179.32 134.202C179.07 133.632 179.42 133.142 180.08 133.102L190.61 132.472C190.952 132.461 191.29 132.55 191.583 132.727C191.876 132.904 192.111 133.163 192.26 133.472L197.8 146.292C198.05 146.862 197.7 147.352 197.04 147.392" fill="#064C91"/>
<path d="M187.49 133.301L183.9 133.521C183.755 133.527 183.611 133.491 183.486 133.419C183.36 133.346 183.258 133.24 183.19 133.111L183.09 132.881C182.98 132.631 183.09 132.421 183.42 132.401L187 132.191C187.146 132.181 187.291 132.214 187.418 132.287C187.545 132.36 187.646 132.47 187.71 132.601L187.81 132.831C187.92 133.071 187.81 133.281 187.49 133.301Z" fill="#EEFBFF"/>
<path d="M212.03 109.632H211.9L211.81 108.512L211.31 107.512C211.31 107.512 209.31 104.732 209.31 104.662C208.789 104.283 208.237 103.949 207.66 103.662C207.57 103.662 205.47 103.962 205.47 103.962C205.47 103.962 201.79 103.162 202.41 105.222C202.723 105.948 203.196 106.595 203.793 107.114C204.391 107.634 205.097 108.012 205.86 108.222C205.548 107.684 205.383 107.073 205.38 106.452C207.096 108.168 209.135 109.528 211.38 110.452C211.547 110.353 211.735 110.297 211.929 110.288C212.122 110.279 212.315 110.318 212.49 110.402L212.03 109.632Z" fill="#2C3A64"/>
<path d="M216.52 129.422C216.52 129.422 215.02 121.202 210.44 119.492C210.205 119.404 209.955 119.363 209.704 119.371C209.453 119.38 209.206 119.438 208.978 119.542C208.749 119.646 208.544 119.794 208.372 119.977C208.201 120.161 208.068 120.377 207.98 120.612C207.901 120.819 207.86 121.04 207.86 121.262C207.86 123.162 213.67 137.172 213.07 137.892C212.26 138.892 197.33 142.392 196.83 142.512L195.05 142.342C194.022 142.208 192.986 142.145 191.95 142.152C191.83 142.302 191.95 142.452 193.47 143.152C193.487 143.16 193.501 143.172 193.513 143.186C193.525 143.2 193.534 143.217 193.54 143.234C193.545 143.252 193.547 143.271 193.546 143.289C193.544 143.307 193.539 143.325 193.53 143.342C193.526 143.355 193.52 143.367 193.511 143.377C193.503 143.387 193.492 143.396 193.48 143.402C192.74 143.852 190.42 145.302 190.48 145.512C190.54 145.722 192.67 144.512 192.86 144.692C193.05 144.872 190.97 146.002 191.1 146.262C191.23 146.522 193.1 145.402 193.2 145.492C193.3 145.582 191.63 146.842 191.62 147.042C191.61 147.242 193.55 146.112 193.7 146.192C193.85 146.272 192.76 147.492 192.85 147.592C192.94 147.692 192.58 147.852 195.85 145.792C195.85 145.792 196.65 145.252 196.94 145.032C196.94 145.032 215.48 142.412 216.63 140.952C218.77 138.222 216.55 129.392 216.55 129.392" fill="#FFC0BB"/>
<path d="M216.52 129.421C216.52 129.421 215.02 121.201 210.43 119.491C210.196 119.403 209.946 119.363 209.696 119.371C209.446 119.38 209.2 119.438 208.972 119.542C208.745 119.646 208.54 119.794 208.369 119.978C208.199 120.161 208.067 120.377 207.98 120.611C207.901 120.819 207.86 121.039 207.86 121.261C207.86 123.161 213.67 137.171 213.07 137.891C212.25 138.891 197.32 142.391 196.83 142.511C197.009 143.349 197.232 144.177 197.5 144.991C200.56 144.541 215.61 142.301 216.65 140.991C218.78 138.271 216.56 129.441 216.56 129.441" fill="#24B5E9"/>
<path d="M193.89 202.272L197.55 200.012L200.72 201.922L199.62 202.702L195.78 203.242C195.78 203.242 194.28 203.052 194.22 203.012C194.089 202.773 193.982 202.522 193.9 202.262" fill="#FFC0BB"/>
<path d="M193.89 202.271L192.96 202.871C192.867 202.931 192.796 203.018 192.757 203.121C192.718 203.224 192.714 203.336 192.744 203.442C192.774 203.548 192.838 203.641 192.926 203.708C193.013 203.774 193.12 203.81 193.23 203.811H200.23C200.349 203.811 200.464 203.764 200.548 203.68C200.633 203.595 200.68 203.481 200.68 203.361V201.921C195.99 203.391 194.38 202.921 193.85 202.271" fill="#063E70"/>
<path d="M222.43 201.922L222.33 197.422L225.45 195.802L225.6 197.142L224.2 200.762C224.2 200.762 223.3 201.972 223.2 202.012C222.931 202.002 222.664 201.972 222.4 201.922" fill="#FFC0BB"/>
<path d="M222.42 201.922L222.49 203.021C222.494 203.089 222.511 203.154 222.54 203.215C222.569 203.275 222.61 203.329 222.66 203.374C222.711 203.418 222.769 203.452 222.832 203.474C222.896 203.496 222.963 203.506 223.03 203.502C223.114 203.499 223.196 203.474 223.268 203.43C223.34 203.386 223.399 203.325 223.44 203.252L226.9 197.132C226.958 197.028 226.972 196.906 226.94 196.792C226.909 196.677 226.833 196.58 226.73 196.521L225.45 195.792C224.45 200.602 223.25 201.792 222.45 201.922" fill="#063E70"/>
<path d="M155.79 91.7114L149.51 89.2914C149.435 89.2622 149.375 89.2053 149.342 89.1326C149.308 89.0599 149.304 88.9771 149.33 88.9014V88.7814C149.344 88.7446 149.366 88.7109 149.393 88.6824C149.421 88.6539 149.453 88.6311 149.49 88.6153C149.526 88.5995 149.565 88.591 149.604 88.5904C149.644 88.5897 149.683 88.5969 149.72 88.6114L155.99 91.0314C156.028 91.0448 156.062 91.0656 156.092 91.0925C156.122 91.1195 156.145 91.1521 156.162 91.1885C156.179 91.2248 156.188 91.2641 156.19 91.3042C156.191 91.3442 156.184 91.384 156.17 91.4214V91.5414C156.141 91.616 156.084 91.6764 156.011 91.7099C155.939 91.7435 155.856 91.7476 155.78 91.7214" fill="white"/>
<path d="M150.61 86.5215L149.61 88.3415C149.49 88.5715 149.54 88.8415 149.71 88.9015L155.71 91.2315C155.797 91.261 155.891 91.2644 155.979 91.2413C156.068 91.2182 156.148 91.1696 156.21 91.1015C156.317 90.979 156.389 90.8293 156.417 90.6689C156.446 90.5084 156.429 90.3433 156.37 90.1915C156.12 89.1915 154.37 88.3415 153.81 87.3515L151 86.2715C150.906 86.2509 150.808 86.2648 150.723 86.3108C150.639 86.3567 150.574 86.4315 150.54 86.5215" fill="#235347"/>
<path d="M153.03 88.3015C153.01 88.2779 152.998 88.2477 152.998 88.2165C152.998 88.1853 153.01 88.1551 153.03 88.1315C153.217 87.9179 153.471 87.7732 153.75 87.7207C154.029 87.6681 154.318 87.7106 154.57 87.8415C154.587 87.8628 154.596 87.8892 154.596 87.9165C154.596 87.9438 154.587 87.9702 154.57 87.9915C154.57 88.0515 154.48 88.0715 154.45 88.0515C154.231 87.9282 153.976 87.8857 153.73 87.9314C153.483 87.9771 153.26 88.1081 153.1 88.3015C153.086 88.3129 153.068 88.3191 153.05 88.3191C153.032 88.3191 153.014 88.3129 153 88.3015" fill="white"/>
<path d="M153.56 88.7917C153.543 88.7667 153.534 88.737 153.534 88.7067C153.534 88.6763 153.543 88.6467 153.56 88.6217C153.744 88.4034 153.998 88.2554 154.278 88.2026C154.559 88.1497 154.849 88.1953 155.1 88.3317C155.117 88.353 155.126 88.3794 155.126 88.4067C155.126 88.4339 155.117 88.4604 155.1 88.4817C155.1 88.5417 155.02 88.5617 154.98 88.5417C154.762 88.4192 154.508 88.3762 154.262 88.42C154.016 88.4637 153.792 88.5916 153.63 88.7817C153.624 88.7883 153.616 88.7936 153.607 88.7972C153.599 88.8008 153.589 88.8027 153.58 88.8027C153.571 88.8027 153.561 88.8008 153.553 88.7972C153.544 88.7936 153.537 88.7883 153.53 88.7817" fill="white"/>
<path d="M154.05 89.2516C154.031 89.2272 154.021 89.1973 154.021 89.1666C154.021 89.1358 154.031 89.106 154.05 89.0816C154.232 88.8641 154.484 88.7165 154.763 88.6636C155.042 88.6108 155.331 88.656 155.58 88.7916C155.599 88.8119 155.61 88.8387 155.61 88.8666C155.61 88.8944 155.599 88.9212 155.58 88.9416C155.576 88.9529 155.569 88.9632 155.561 88.9719C155.552 88.9806 155.542 88.9875 155.531 88.9922C155.519 88.9969 155.507 88.9992 155.495 88.9991C155.483 88.999 155.471 88.9964 155.46 88.9916C155.24 88.8721 154.986 88.8318 154.741 88.8773C154.495 88.9228 154.272 89.0514 154.11 89.2416C154.103 89.2482 154.096 89.2535 154.087 89.2571C154.079 89.2607 154.069 89.2626 154.06 89.2626C154.051 89.2626 154.041 89.2607 154.033 89.2571C154.024 89.2535 154.017 89.2482 154.01 89.2416" fill="white"/>
<g opacity="0.3">
<mask id="mask8_106_3544" style="mask-type:luminance" maskUnits="userSpaceOnUse" x="149" y="87" width="3" height="3">
<path d="M151.37 87.1714H149.58V89.5314H151.37V87.1714Z" fill="white"/>
</mask>
<g mask="url(#mask8_106_3544)">
<path d="M151.32 89.5314C151.44 87.7914 150.69 87.3114 150.23 87.1714L149.61 88.3514C149.49 88.5714 149.54 88.8414 149.71 88.9014L151.32 89.5314Z" fill="#E87B50"/>
</g>
</g>
<path d="M149.39 91.7314L142.96 89.7314C142.885 89.7083 142.822 89.6566 142.784 89.5873C142.747 89.5181 142.738 89.437 142.76 89.3614V89.2314C142.77 89.1934 142.788 89.1579 142.813 89.1271C142.837 89.0962 142.867 89.0707 142.902 89.052C142.937 89.0333 142.975 89.0218 143.014 89.0183C143.053 89.0147 143.093 89.0192 143.13 89.0314L149.56 91.0314C149.598 91.0428 149.634 91.0618 149.665 91.0872C149.696 91.1126 149.721 91.1439 149.74 91.1793C149.759 91.2147 149.77 91.2535 149.773 91.2933C149.777 91.3332 149.772 91.3734 149.76 91.4114V91.5414C149.75 91.5794 149.732 91.6149 149.707 91.6458C149.683 91.6766 149.653 91.7022 149.618 91.7209C149.583 91.7396 149.545 91.7511 149.506 91.7546C149.467 91.7581 149.427 91.7536 149.39 91.7414" fill="white"/>
<path d="M143.87 86.9117L143.03 88.8017C142.978 88.8938 142.963 89.0024 142.989 89.1049C143.016 89.2074 143.08 89.2958 143.17 89.3517L149.35 91.2517C149.441 91.2754 149.537 91.2719 149.626 91.2417C149.714 91.2115 149.792 91.1559 149.85 91.0817C149.948 90.9518 150.01 90.7976 150.027 90.6356C150.045 90.4735 150.018 90.3098 149.95 90.1617C149.63 89.1617 147.88 88.4617 147.19 87.5117L144.32 86.6217C144.226 86.6101 144.13 86.6317 144.05 86.6828C143.969 86.7338 143.909 86.8113 143.88 86.9017" fill="#235347"/>
<path d="M146.4 88.5218C146.383 88.4968 146.374 88.4671 146.374 88.4368C146.374 88.4064 146.383 88.3768 146.4 88.3518C146.57 88.1227 146.814 87.9584 147.09 87.8857C147.366 87.8131 147.659 87.8363 147.92 87.9518C147.939 87.9721 147.949 87.9989 147.949 88.0268C147.949 88.0546 147.939 88.0814 147.92 88.1018C147.92 88.1018 147.84 88.1818 147.8 88.1618C147.574 88.0581 147.32 88.0353 147.08 88.0972C146.839 88.1592 146.627 88.302 146.48 88.5018C146.473 88.5084 146.466 88.5137 146.457 88.5173C146.448 88.5209 146.439 88.5228 146.43 88.5228C146.421 88.5228 146.411 88.5209 146.403 88.5173C146.394 88.5137 146.386 88.5084 146.38 88.5018" fill="white"/>
<path d="M146.97 88.9715C146.951 88.9471 146.941 88.9172 146.941 88.8865C146.941 88.8558 146.951 88.8259 146.97 88.8015C147.141 88.5724 147.384 88.4081 147.66 88.3354C147.936 88.2628 148.229 88.286 148.49 88.4015C148.507 88.4228 148.516 88.4492 148.516 88.4765C148.516 88.5038 148.507 88.5302 148.49 88.5515C148.483 88.5738 148.468 88.5926 148.447 88.6038C148.427 88.615 148.403 88.6177 148.38 88.6115C148.153 88.509 147.897 88.4868 147.655 88.5486C147.414 88.6103 147.2 88.7524 147.05 88.9515C147.044 88.9581 147.036 88.9634 147.027 88.967C147.019 88.9706 147.009 88.9725 147 88.9725C146.991 88.9725 146.982 88.9706 146.973 88.967C146.964 88.9634 146.957 88.9581 146.95 88.9515" fill="white"/>
<path d="M147.49 89.3914C147.471 89.367 147.461 89.3371 147.461 89.3064C147.461 89.2757 147.471 89.2458 147.49 89.2214C147.66 88.9924 147.904 88.828 148.18 88.7554C148.456 88.6827 148.749 88.706 149.01 88.8214C149.024 88.8438 149.032 88.8699 149.032 88.8964C149.032 88.923 149.024 88.949 149.01 88.9714C149.01 89.0214 148.93 89.0514 148.89 89.0314C148.663 88.927 148.407 88.9038 148.165 88.9657C147.923 89.0276 147.709 89.1709 147.56 89.3714C147.553 89.3781 147.546 89.3833 147.537 89.387C147.528 89.3906 147.519 89.3924 147.51 89.3924C147.501 89.3924 147.491 89.3906 147.483 89.387C147.474 89.3833 147.466 89.3781 147.46 89.3714" fill="white"/>
<g opacity="0.3">
<mask id="mask9_106_3544" style="mask-type:luminance" maskUnits="userSpaceOnUse" x="142" y="87" width="3" height="3">
<path d="M144.82 87.5815H142.98V89.8515H144.82V87.5815Z" fill="white"/>
</mask>
<g mask="url(#mask9_106_3544)">
<path d="M144.82 89.8615C144.82 88.1215 144.04 87.6915 143.57 87.5815L143.03 88.8015C142.978 88.8936 142.963 89.0022 142.989 89.1047C143.016 89.2072 143.08 89.2956 143.17 89.3515L144.82 89.8615Z" fill="#E87B50"/>
</g>
</g>
<path d="M226.86 165.972C231.991 165.972 236.15 161.812 236.15 156.682C236.15 151.551 231.991 147.392 226.86 147.392C221.729 147.392 217.57 151.551 217.57 156.682C217.57 161.812 221.729 165.972 226.86 165.972Z" fill="#00BF90"/>
<path d="M125.26 161.021H17.51V172.281H125.26V161.021Z" fill="#FCD17D"/>
<path d="M113.81 172.091H6.05994V183.351H113.81V172.091Z" fill="#FCD17D"/>
<path d="M109.12 183.161H1.37V194.421H109.12V183.161Z" fill="#FCD17D"/>
<path d="M116.88 194.231H9.13V205.491H116.88V194.231Z" fill="#FCD17D"/>
<path d="M125.2 160.631H17.45V171.891H125.2V160.631Z" fill="#FCD17D"/>
<path d="M17.45 160.631L125.21 171.891H17.45V160.631Z" fill="#FFA600"/>
<path d="M125.21 160.631V171.891L17.45 160.631H125.21Z" fill="#FFD165"/>
<path d="M29.73 160.631H26.95V171.861H29.73V160.631Z" fill="#FFD165"/>
<path d="M44.63 160.631H41.85V171.861H44.63V160.631Z" fill="#FFD165"/>
<path d="M61.28 160.631H58.5V171.861H61.28V160.631Z" fill="#FFD165"/>
<path d="M77.07 160.631H74.29V171.861H77.07V160.631Z" fill="#FFD165"/>
<path d="M95.4699 160.631H92.6899V171.861H95.4699V160.631Z" fill="#FFD165"/>
<path d="M113.81 172.091H6.05994V183.351H113.81V172.091Z" fill="#FCD17D"/>
<path d="M6.05994 172.122L113.81 183.382H6.05994V172.122Z" fill="#FFA600"/>
<path d="M113.81 172.122V183.382L6.05994 172.122H113.81Z" fill="#FFD165"/>
<path d="M18.3399 172.091H15.5599V183.321H18.3399V172.091Z" fill="#FFD165"/>
<path d="M33.24 172.091H30.46V183.321H33.24V172.091Z" fill="#FFD165"/>
<path d="M49.89 172.091H47.11V183.321H49.89V172.091Z" fill="#FFD165"/>
<path d="M65.67 172.091H62.89V183.321H65.67V172.091Z" fill="#FFD165"/>
<path d="M84.08 172.091H81.3V183.321H84.08V172.091Z" fill="#FFD165"/>
<path d="M102.04 172.091H99.26V183.321H102.04V172.091Z" fill="#FFD165"/>
<path d="M109.12 183.551H1.37V194.811H109.12V183.551Z" fill="#FCD17D"/>
<path d="M1.37 183.551L109.12 194.811H1.37V183.551Z" fill="#FFA600"/>
<path d="M109.12 183.551V194.811L1.37 183.551H109.12Z" fill="#FFD165"/>
<path d="M13.64 183.551H10.86V194.781H13.64V183.551Z" fill="#FFD165"/>
<path d="M28.55 183.551H25.77V194.781H28.55V183.551Z" fill="#FFD165"/>
<path d="M45.2 183.551H42.42V194.781H45.2V183.551Z" fill="#FFD165"/>
<path d="M60.98 183.551H58.2V194.781H60.98V183.551Z" fill="#FFD165"/>
<path d="M79.38 183.551H76.6V194.781H79.38V183.551Z" fill="#FFD165"/>
<path d="M97.3499 183.551H94.5699V194.781H97.3499V183.551Z" fill="#FFD165"/>
<path d="M116.88 194.872H9.13V206.132H116.88V194.872Z" fill="#FCD17D"/>
<path d="M9.13 194.872L116.88 206.122H9.13V194.872Z" fill="#FFA600"/>
<path d="M116.88 194.872V206.122L9.12 194.872H116.88Z" fill="#FFD165"/>
<path d="M21.41 194.872H18.63V206.102H21.41V194.872Z" fill="#FFD165"/>
<path d="M36.31 194.872H33.53V206.102H36.31V194.872Z" fill="#FFD165"/>
<path d="M52.9601 194.872H50.1801V206.102H52.9601V194.872Z" fill="#FFD165"/>
<path d="M68.74 194.872H65.96V206.102H68.74V194.872Z" fill="#FFD165"/>
<path d="M87.14 194.872H84.36V206.102H87.14V194.872Z" fill="#FFD165"/>
<path d="M105.11 194.872H102.33V206.102H105.11V194.872Z" fill="#FFD165"/>
</g>
</svg>
