<svg width="44" height="8" viewBox="0 0 44 8" fill="none" xmlns="http://www.w3.org/2000/svg">
<path opacity="0.3" d="M4 8C6.20914 8 8 6.20914 8 4C8 1.79086 6.20914 0 4 0C1.79086 0 0 1.79086 0 4C0 6.20914 1.79086 8 4 8Z" fill="#00BF54"/>
<path opacity="0.3" d="M22 8C24.2091 8 26 6.20914 26 4C26 1.79086 24.2091 0 22 0C19.7909 0 18 1.79086 18 4C18 6.20914 19.7909 8 22 8Z" fill="#00BF54"/>
<path d="M40 8C42.2091 8 44 6.20914 44 4C44 1.79086 42.2091 0 40 0C37.7909 0 36 1.79086 36 4C36 6.20914 37.7909 8 40 8Z" fill="#00BF54"/>
</svg>
