<svg width="24" height="24" viewBox="0 0 24 24" fill="none" xmlns="http://www.w3.org/2000/svg">
<path d="M12 12C12.7911 12 13.5645 11.7654 14.2223 11.3259C14.8801 10.8864 15.3928 10.2616 15.6955 9.53074C15.9983 8.79983 16.0775 7.99556 15.9231 7.21964C15.7688 6.44372 15.3878 5.73098 14.8284 5.17157C14.269 4.61216 13.5563 4.2312 12.7804 4.07686C12.0044 3.92252 11.2002 4.00173 10.4693 4.30448C9.73836 4.60723 9.11365 5.11992 8.67412 5.77772C8.2346 6.43552 8 7.20888 8 8C8 9.06087 8.42143 10.0783 9.17157 10.8284C9.92172 11.5786 10.9391 12 12 12ZM12 14C9.33 14 4 15.34 4 18V19C4 19.2652 4.10536 19.5196 4.29289 19.7071C4.48043 19.8946 4.73478 20 5 20H19C19.2652 20 19.5196 19.8946 19.7071 19.7071C19.8946 19.5196 20 19.2652 20 19V18C20 15.34 14.67 14 12 14Z" fill="#D1DCE2"/>
</svg>
