<svg width="70" height="25" viewBox="0 0 70 25" fill="none" xmlns="http://www.w3.org/2000/svg">
<path d="M11.468 16.356C11.74 16.14 11.864 16.04 11.84 16.056C12.624 15.408 13.24 14.876 13.688 14.46C14.144 14.044 14.528 13.608 14.84 13.152C15.152 12.696 15.308 12.252 15.308 11.82C15.308 11.492 15.232 11.236 15.08 11.052C14.928 10.868 14.7 10.776 14.396 10.776C14.092 10.776 13.852 10.892 13.676 11.124C13.508 11.348 13.424 11.668 13.424 12.084H11.444C11.46 11.404 11.604 10.836 11.876 10.38C12.156 9.924 12.52 9.588 12.968 9.372C13.424 9.156 13.928 9.048 14.48 9.048C15.432 9.048 16.148 9.292 16.628 9.78C17.116 10.268 17.36 10.904 17.36 11.688C17.36 12.544 17.068 13.34 16.484 14.076C15.9 14.804 15.156 15.516 14.252 16.212H17.492V17.88H11.468V16.356ZM22.7275 11.604C22.6635 11.308 22.5515 11.088 22.3915 10.944C22.2315 10.792 22.0035 10.716 21.7075 10.716C21.2515 10.716 20.9235 10.916 20.7235 11.316C20.5235 11.708 20.4195 12.332 20.4115 13.188C20.5875 12.908 20.8395 12.688 21.1675 12.528C21.5035 12.368 21.8715 12.288 22.2715 12.288C23.0555 12.288 23.6835 12.536 24.1555 13.032C24.6355 13.528 24.8755 14.22 24.8755 15.108C24.8755 15.692 24.7555 16.204 24.5155 16.644C24.2835 17.084 23.9395 17.428 23.4835 17.676C23.0355 17.924 22.5035 18.048 21.8875 18.048C20.6555 18.048 19.7995 17.664 19.3195 16.896C18.8395 16.12 18.5995 15.008 18.5995 13.56C18.5995 12.04 18.8515 10.912 19.3555 10.176C19.8675 9.432 20.6835 9.06 21.8035 9.06C22.4035 9.06 22.9075 9.18 23.3155 9.42C23.7315 9.652 24.0435 9.96 24.2515 10.344C24.4675 10.728 24.5955 11.148 24.6355 11.604H22.7275ZM21.7795 13.908C21.4355 13.908 21.1475 14.012 20.9155 14.22C20.6915 14.42 20.5795 14.708 20.5795 15.084C20.5795 15.468 20.6835 15.768 20.8915 15.984C21.1075 16.2 21.4115 16.308 21.8035 16.308C22.1555 16.308 22.4315 16.204 22.6315 15.996C22.8395 15.78 22.9435 15.488 22.9435 15.12C22.9435 14.744 22.8435 14.448 22.6435 14.232C22.4435 14.016 22.1555 13.908 21.7795 13.908ZM32.2041 11.028H28.4601V12.684C28.6201 12.508 28.8441 12.364 29.1321 12.252C29.4201 12.14 29.7321 12.084 30.0681 12.084C30.6681 12.084 31.1641 12.22 31.5561 12.492C31.9561 12.764 32.2481 13.116 32.4321 13.548C32.6161 13.98 32.7081 14.448 32.7081 14.952C32.7081 15.888 32.4441 16.632 31.9161 17.184C31.3881 17.728 30.6441 18 29.6841 18C29.0441 18 28.4881 17.892 28.0161 17.676C27.5441 17.452 27.1801 17.144 26.9241 16.752C26.6681 16.36 26.5281 15.908 26.5041 15.396H28.5081C28.5561 15.644 28.6721 15.852 28.8561 16.02C29.0401 16.18 29.2921 16.26 29.6121 16.26C29.9881 16.26 30.2681 16.14 30.4521 15.9C30.6361 15.66 30.7281 15.34 30.7281 14.94C30.7281 14.548 30.6321 14.248 30.4401 14.04C30.2481 13.832 29.9681 13.728 29.6001 13.728C29.3281 13.728 29.1041 13.796 28.9281 13.932C28.7521 14.06 28.6361 14.232 28.5801 14.448H26.6001V9.228H32.2041V11.028ZM38.6398 11.22V12.924H41.3878V14.508H38.6398V16.356H41.7478V18H36.5878V9.576H41.7478V11.22H38.6398ZM48.6719 12.24C48.5199 11.96 48.2999 11.748 48.0119 11.604C47.7319 11.452 47.3999 11.376 47.0159 11.376C46.3519 11.376 45.8199 11.596 45.4199 12.036C45.0199 12.468 44.8199 13.048 44.8199 13.776C44.8199 14.552 45.0279 15.16 45.4439 15.6C45.8679 16.032 46.4479 16.248 47.1839 16.248C47.6879 16.248 48.1119 16.12 48.4559 15.864C48.8079 15.608 49.0639 15.24 49.2239 14.76H46.6199V13.248H51.0839V15.156C50.9319 15.668 50.6719 16.144 50.3039 16.584C49.9439 17.024 49.4839 17.38 48.9239 17.652C48.3639 17.924 47.7319 18.06 47.0279 18.06C46.1959 18.06 45.4519 17.88 44.7959 17.52C44.1479 17.152 43.6399 16.644 43.2719 15.996C42.9119 15.348 42.7319 14.608 42.7319 13.776C42.7319 12.944 42.9119 12.204 43.2719 11.556C43.6399 10.9 44.1479 10.392 44.7959 10.032C45.4439 9.664 46.1839 9.48 47.0159 9.48C48.0239 9.48 48.8719 9.724 49.5599 10.212C50.2559 10.7 50.7159 11.376 50.9399 12.24H48.6719ZM58.6406 12.288C58.6406 12.776 58.5286 13.224 58.3046 13.632C58.0806 14.032 57.7366 14.356 57.2726 14.604C56.8086 14.852 56.2326 14.976 55.5446 14.976H54.2726V18H52.2206V9.576H55.5446C56.2166 9.576 56.7846 9.692 57.2486 9.924C57.7126 10.156 58.0606 10.476 58.2926 10.884C58.5246 11.292 58.6406 11.76 58.6406 12.288ZM55.3886 13.344C55.7806 13.344 56.0726 13.252 56.2646 13.068C56.4566 12.884 56.5526 12.624 56.5526 12.288C56.5526 11.952 56.4566 11.692 56.2646 11.508C56.0726 11.324 55.7806 11.232 55.3886 11.232H54.2726V13.344H55.3886Z" fill="#EF5830"/>
<path opacity="0.1" d="M65 0H5C2.23858 0 0 2.23858 0 5V20C0 22.7614 2.23858 25 5 25H65C67.7614 25 70 22.7614 70 20V5C70 2.23858 67.7614 0 65 0Z" fill="#EF5830"/>
</svg>
